<svg xmlns="http://www.w3.org/2000/svg" xmlns:xlink="http://www.w3.org/1999/xlink" xmlns:lucid="lucid" width="1349.16" height="680"><g transform="translate(-205.42106722810001 -220)" lucid:page-tab-id="vDj40wWFWHu_"><path d="M0 0h1760v1360H0z" fill="#fff"/><path d="M269.1 564.7c-4.43 0-8-3.57-8-8v-44.1c0-4.4 3.57-8 8-8h220.96c4.42 0 8 3.6 8 8v44.1c0 4.43-3.58 8-8 8z" stroke="#000" stroke-opacity="0" fill="#d85656"/><path d="M254.22 507.44c15.9 0 28.8 12.2 28.8 27.22 0 15.03-12.9 27.22-28.8 27.22s-28.8-12.2-28.8-27.22c0-15.03 12.9-27.22 28.8-27.22z" stroke="#d85656" stroke-width="10" fill="#fff"/><path d="M295.17 514.7c0-2.77 2.23-5 5-5h172.2c2.77 0 5 2.23 5 5v39.93c0 2.76-2.23 5-5 5h-172.2c-2.77 0-5-2.24-5-5z" fill="#fff" fill-opacity="0"/><use xlink:href="#a" transform="matrix(1,0,0,1,300.16602061469354,514.6941580756013) translate(71.99074710449281 31.35864833906071)"/><path d="M519.38 564.7c-4.42 0-8-3.57-8-8v-44.1c0-4.4 3.58-8 8-8h220.97c4.42 0 8 3.6 8 8v44.1c0 4.43-3.58 8-8 8z" stroke="#225798" fill="#225798"/><path d="M503.65 507.44c15.9 0 28.8 12.2 28.8 27.22 0 15.03-12.9 27.22-28.8 27.22s-28.8-12.2-28.8-27.22c0-15.03 12.9-27.22 28.8-27.22z" stroke="#225798" stroke-width="10" fill="#fff"/><path d="M545.46 514.7c0-2.77 2.24-5 5-5h172.22c2.76 0 5 2.23 5 5v39.93c0 2.76-2.24 5-5 5H550.46c-2.76 0-5-2.24-5-5z" fill-opacity="0"/><use xlink:href="#b" transform="matrix(1,0,0,1,550.460035077301,514.6941580756013) translate(71.99074710449281 31.35864833906071)"/><path d="M769.68 564.7c-4.42 0-8-3.57-8-8v-44.1c0-4.4 3.58-8 8-8h220.97c4.4 0 8 3.6 8 8v44.1c0 4.43-3.6 8-8 8z" stroke="#000" stroke-opacity="0" fill="#ff741d"/><path d="M756.48 507.44c15.9 0 28.8 12.2 28.8 27.22 0 15.03-12.9 27.22-28.8 27.22s-28.8-12.2-28.8-27.22c0-15.03 12.9-27.22 28.8-27.22z" stroke="#ff741d" stroke-width="10" fill="#fff"/><path d="M795.75 514.7c0-2.77 2.24-5 5-5h172.22c2.76 0 5 2.23 5 5v39.93c0 2.76-2.24 5-5 5H800.75c-2.76 0-5-2.24-5-5z" fill-opacity="0"/><use xlink:href="#c" transform="matrix(1,0,0,1,800.7540495399082,514.6941580756013) translate(71.99074710449281 31.35864833906071)"/><path d="M1019.97 564.7c-4.42 0-8-3.57-8-8v-44.1c0-4.4 3.58-8 8-8h220.97c4.42 0 8 3.6 8 8v44.1c0 4.43-3.58 8-8 8z" stroke="#4247a8" fill="#4247a8"/><path d="M1006.77 507.44c15.9 0 28.8 12.2 28.8 27.22 0 15.03-12.9 27.22-28.8 27.22s-28.8-12.2-28.8-27.22c0-15.03 12.9-27.22 28.8-27.22z" stroke="#4247a8" stroke-width="10" fill="#fff"/><path d="M1046.05 514.7c0-2.77 2.24-5 5-5h172.2c2.78 0 5 2.23 5 5v39.93c0 2.76-2.22 5-5 5h-172.2c-2.76 0-5-2.24-5-5z" fill-opacity="0"/><use xlink:href="#d" transform="matrix(1,0,0,1,1051.0480640025153,514.6941580756013) translate(71.99074710449281 31.35864833906071)"/><path d="M1270.26 564.7c-4.4 0-8-3.57-8-8v-44.1c0-4.4 3.6-8 8-8h220.97c4.42 0 8 3.6 8 8v44.1c0 4.43-3.58 8-8 8z" stroke="#000" stroke-opacity="0" fill="#ffaf28"/><path d="M1257.07 507.44c15.9 0 28.8 12.2 28.8 27.22 0 15.03-12.9 27.22-28.8 27.22s-28.8-12.2-28.8-27.22c0-15.03 12.9-27.22 28.8-27.22z" stroke="#ffaf28" stroke-width="10" fill="#fff"/><path d="M1296.34 514.7c0-2.77 2.24-5 5-5h172.22c2.76 0 5 2.23 5 5v39.93c0 2.76-2.24 5-5 5h-172.22c-2.76 0-5-2.24-5-5z" fill-opacity="0"/><use xlink:href="#e" transform="matrix(1,0,0,1,1301.3420784651225,514.6941580756013) translate(71.99074710449281 31.35864833906071)"/><path d="M255.58 245c0-2.76 2.24-5 5-5H500c2.77 0 5 2.24 5 5v33.83c0 2.76-2.23 5-5 5H260.58c-2.76 0-5-2.24-5-5z" fill="#fff" fill-opacity="0"/><use xlink:href="#f" transform="matrix(1,0,0,1,260.57688661791553,245) translate(21.731042382588782 27.318127147766322)"/><use xlink:href="#g" transform="matrix(1,0,0,1,260.57688661791553,245) translate(132.9185185185185 27.318127147766322)"/><path d="M516.3 580.97c0-2.77 2.23-5 5-5h214.2c2.77 0 5 2.23 5 5v41.72c0 2.75-2.23 5-5 5H521.3c-2.77 0-5-2.25-5-5z" fill="#fff" fill-opacity="0"/><use xlink:href="#h" transform="matrix(1,0,0,1,521.2888119912819,580.965381586483) translate(8.543757159221087 27.818127147766322)"/><use xlink:href="#i" transform="matrix(1,0,0,1,521.2888119912819,580.965381586483) translate(69.40668193967164 27.818127147766322)"/><use xlink:href="#j" transform="matrix(1,0,0,1,521.2888119912819,580.965381586483) translate(116.06571210385644 27.818127147766322)"/><path d="M996.4 580.97c0-2.77 2.25-5 5-5h253.76c2.76 0 5 2.23 5 5v40.5c0 2.76-2.24 5-5 5H1001.4c-2.75 0-5-2.24-5-5z" fill="#fff" fill-opacity="0"/><use xlink:href="#k" transform="matrix(1,0,0,1,1001.4093037589073,580.965381586483) translate(32.16746849942727 27.755627147766322)"/><use xlink:href="#l" transform="matrix(1,0,0,1,1001.4093037589073,580.965381586483) translate(151.2205421916762 27.755627147766322)"/><path d="M1237.1 245c0-2.76 2.23-5 5-5h287.48c2.76 0 5 2.24 5 5v33.83c0 2.76-2.24 5-5 5h-287.5c-2.75 0-5-2.24-5-5z" fill="#fff" fill-opacity="0"/><use xlink:href="#m" transform="matrix(1,0,0,1,1242.0886924646913,245) translate(21.10332187857962 25.193127147766322)"/><use xlink:href="#n" transform="matrix(1,0,0,1,1242.0886924646913,245) translate(95.78831615120275 25.193127147766322)"/><use xlink:href="#o" transform="matrix(1,0,0,1,1242.0886924646913,245) translate(162.8368079419626 25.193127147766322)"/><use xlink:href="#p" transform="matrix(1,0,0,1,1242.0886924646913,245) translate(219.19419625811378 25.193127147766322)"/><use xlink:href="#q" transform="matrix(1,0,0,1,1242.0886924646913,245) translate(100.58648339060711 58.18281786941581)"/><path d="M724 245c0-2.76 2.24-5 5-5h265.24c2.76 0 5 2.24 5 5v33.83c0 2.76-2.24 5-5 5H729c-2.76 0-5-2.24-5-5z" fill="#fff" fill-opacity="0"/><use xlink:href="#h" transform="matrix(1,0,0,1,728.9982555431553,245) translate(42.8639175257732 27.318127147766322)"/><use xlink:href="#r" transform="matrix(1,0,0,1,728.9982555431553,245) translate(103.72684230622376 27.318127147766322)"/><path d="M255.58 304.44c0-2.76 2.24-5 5-5H500c2.77 0 5 2.24 5 5v183.7c0 2.75-2.23 5-5 5H260.58c-2.76 0-5-2.25-5-5z" fill="#fff" fill-opacity="0"/><use xlink:href="#s" transform="matrix(1,0,0,1,260.57688661791553,304.43881350784113) translate(34.88927071401298 55.88831615120276)"/><use xlink:href="#t" transform="matrix(1,0,0,1,260.57688661791553,304.43881350784113) translate(81.55998472699504 55.88831615120276)"/><use xlink:href="#u" transform="matrix(1,0,0,1,260.57688661791553,304.43881350784113) translate(174.96456662848416 55.88831615120276)"/><use xlink:href="#v" transform="matrix(1,0,0,1,260.57688661791553,304.43881350784113) translate(31.04776632302406 83.17079037800688)"/><use xlink:href="#w" transform="matrix(1,0,0,1,260.57688661791553,304.43881350784113) translate(113.08465063001147 83.17079037800688)"/><use xlink:href="#x" transform="matrix(1,0,0,1,260.57688661791553,304.43881350784113) translate(163.6077510500191 83.17079037800688)"/><use xlink:href="#y" transform="matrix(1,0,0,1,260.57688661791553,304.43881350784113) translate(48.099312714776644 110.45326460481101)"/><use xlink:href="#z" transform="matrix(1,0,0,1,260.57688661791553,304.43881350784113) translate(92.30702558228333 110.45326460481101)"/><use xlink:href="#A" transform="matrix(1,0,0,1,260.57688661791553,304.43881350784113) translate(118.76849942726233 110.45326460481101)"/><use xlink:href="#B" transform="matrix(1,0,0,1,260.57688661791553,304.43881350784113) translate(76.48697976326842 137.73573883161512)"/><path d="M503.68 626.36c0-2.76 2.24-5 5-5H748.1c2.77 0 5 2.24 5 5V870.3c0 2.76-2.23 5-5 5H508.7c-2.76 0-5-2.24-5-5z" fill="#fff" fill-opacity="0"/><g><use xlink:href="#C" transform="matrix(1,0,0,1,508.6848246637062,626.3590711708501) translate(19.168104874634082 28.657760595647197)"/><use xlink:href="#D" transform="matrix(1,0,0,1,508.6848246637062,626.3590711708501) translate(66.1648593610793 28.657760595647197)"/><use xlink:href="#E" transform="matrix(1,0,0,1,508.6848246637062,626.3590711708501) translate(120.65385007000128 28.657760595647197)"/><use xlink:href="#F" transform="matrix(1,0,0,1,508.6848246637062,626.3590711708501) translate(41.45535827924145 55.406901489118)"/><use xlink:href="#G" transform="matrix(1,0,0,1,508.6848246637062,626.3590711708501) translate(104.48921344024438 55.406901489118)"/><use xlink:href="#H" transform="matrix(1,0,0,1,508.6848246637062,626.3590711708501) translate(186.16078019600357 55.406901489118)"/><use xlink:href="#I" transform="matrix(1,0,0,1,508.6848246637062,626.3590711708501) translate(45.851629120529466 82.1560423825888)"/><use xlink:href="#J" transform="matrix(1,0,0,1,508.6848246637062,626.3590711708501) translate(158.29709176530483 82.1560423825888)"/><use xlink:href="#K" transform="matrix(1,0,0,1,508.6848246637062,626.3590711708501) translate(37.74019982181494 108.90518327605959)"/><use xlink:href="#L" transform="matrix(1,0,0,1,508.6848246637062,626.3590711708501) translate(108.26629120529465 108.90518327605959)"/><use xlink:href="#M" transform="matrix(1,0,0,1,508.6848246637062,626.3590711708501) translate(38.39035255186458 135.65432416953038)"/><use xlink:href="#N" transform="matrix(1,0,0,1,508.6848246637062,626.3590711708501) translate(105.13936617029401 135.65432416953038)"/><use xlink:href="#O" transform="matrix(1,0,0,1,508.6848246637062,626.3590711708501) translate(129.907089219804 135.65432416953038)"/><use xlink:href="#P" transform="matrix(1,0,0,1,508.6848246637062,626.3590711708501) translate(53.158107420134925 162.40346506300116)"/><use xlink:href="#Q" transform="matrix(1,0,0,1,508.6848246637062,626.3590711708501) translate(150.92869415807561 162.40346506300116)"/><use xlink:href="#R" transform="matrix(1,0,0,1,508.6848246637062,626.3590711708501) translate(31.517309405625564 189.15260595647197)"/><use xlink:href="#S" transform="matrix(1,0,0,1,508.6848246637062,626.3590711708501) translate(152.75531373297696 189.15260595647197)"/><use xlink:href="#T" transform="matrix(1,0,0,1,508.6848246637062,626.3590711708501) translate(177.52303678248694 189.15260595647197)"/><use xlink:href="#U" transform="matrix(1,0,0,1,508.6848246637062,626.3590711708501) translate(24.179871452208243 215.90174684994275)"/><use xlink:href="#V" transform="matrix(1,0,0,1,508.6848246637062,626.3590711708501) translate(104.55113274786817 215.90174684994275)"/><use xlink:href="#W" transform="matrix(1,0,0,1,508.6848246637062,626.3590711708501) translate(198.54464172075856 215.90174684994275)"/><use xlink:href="#X" transform="matrix(1,0,0,1,508.6848246637062,626.3590711708501) translate(27.244877179585085 242.65088774341353)"/><use xlink:href="#Y" transform="matrix(1,0,0,1,508.6848246637062,626.3590711708501) translate(90.27873234058802 242.65088774341353)"/><use xlink:href="#Z" transform="matrix(1,0,0,1,508.6848246637062,626.3590711708501) translate(166.9967544864452 242.65088774341353)"/></g><path d="M1261.12 297.73c0-2.76 2.24-5 5-5h239.43c2.76 0 5 2.24 5 5v189.6c0 2.76-2.24 5-5 5h-239.43c-2.76 0-5-2.24-5-5z" fill="#fff" fill-opacity="0"/><g><use xlink:href="#aa" transform="matrix(1,0,0,1,1266.119876191801,297.7306434896692) translate(6.1031309660175594 44.7827605956472)"/><use xlink:href="#ab" transform="matrix(1,0,0,1,1266.119876191801,297.7306434896692) translate(64.30728013236605 44.7827605956472)"/><use xlink:href="#ac" transform="matrix(1,0,0,1,1266.119876191801,297.7306434896692) translate(129.87982690594376 44.7827605956472)"/><use xlink:href="#ad" transform="matrix(1,0,0,1,1266.119876191801,297.7306434896692) translate(179.41527300496375 44.7827605956472)"/><use xlink:href="#ae" transform="matrix(1,0,0,1,1266.119876191801,297.7306434896692) translate(24.675225913198442 71.531901489118)"/><use xlink:href="#af" transform="matrix(1,0,0,1,1266.119876191801,297.7306434896692) translate(147.21353570064912 71.531901489118)"/><use xlink:href="#ag" transform="matrix(1,0,0,1,1266.119876191801,297.7306434896692) translate(190.5570510372916 71.531901489118)"/><use xlink:href="#ah" transform="matrix(1,0,0,1,1266.119876191801,297.7306434896692) translate(25.975531373297695 98.2810423825888)"/><use xlink:href="#ai" transform="matrix(1,0,0,1,1266.119876191801,297.7306434896692) translate(86.5945335369734 98.2810423825888)"/><use xlink:href="#aj" transform="matrix(1,0,0,1,1266.119876191801,297.7306434896692) translate(152.10516100292733 98.2810423825888)"/><use xlink:href="#T" transform="matrix(1,0,0,1,1266.119876191801,297.7306434896692) translate(183.0648148148148 98.2810423825888)"/><use xlink:href="#ak" transform="matrix(1,0,0,1,1266.119876191801,297.7306434896692) translate(51.9506809214713 125.03018327605959)"/><use xlink:href="#al" transform="matrix(1,0,0,1,1266.119876191801,297.7306434896692) translate(150.89773450426372 125.03018327605959)"/><use xlink:href="#am" transform="matrix(1,0,0,1,1266.119876191801,297.7306434896692) translate(56.346951762759346 151.77932416953035)"/></g><path d="M1003.57 645c0-2.76 2.24-5 5-5H1248c2.76 0 5 2.24 5 5v230c0 2.76-2.24 5-5 5h-239.43c-2.76 0-5-2.24-5-5z" fill="#fff" fill-opacity="0"/><g><use xlink:href="#an" transform="matrix(1,0,0,1,1008.5695941365361,645) translate(11.706828305969196 78.7827605956472)"/><use xlink:href="#ao" transform="matrix(1,0,0,1,1008.5695941365361,645) translate(108.1771095838106 78.7827605956472)"/><use xlink:href="#ap" transform="matrix(1,0,0,1,1008.5695941365361,645) translate(173.74965635738832 78.7827605956472)"/><use xlink:href="#aq" transform="matrix(1,0,0,1,1008.5695941365361,645) translate(16.71859488354333 105.531901489118)"/><use xlink:href="#ab" transform="matrix(1,0,0,1,1008.5695941365361,645) translate(58.761804760086534 105.531901489118)"/><use xlink:href="#X" transform="matrix(1,0,0,1,1008.5695941365361,645) translate(124.33435153366425 105.531901489118)"/><use xlink:href="#ar" transform="matrix(1,0,0,1,1008.5695941365361,645) translate(187.36820669466718 105.531901489118)"/><use xlink:href="#as" transform="matrix(1,0,0,1,1008.5695941365361,645) translate(58.73084510627466 132.2810423825888)"/><use xlink:href="#at" transform="matrix(1,0,0,1,1008.5695941365361,645) translate(89.69049891816215 132.2810423825888)"/><use xlink:href="#ad" transform="matrix(1,0,0,1,1008.5695941365361,645) translate(137.9875588647066 132.2810423825888)"/><use xlink:href="#au" transform="matrix(1,0,0,1,1008.5695941365361,645) translate(59.566755759195644 159.03018327605957)"/></g><path d="M736.9 297.73c0-2.76 2.24-5 5-5h239.43c2.76 0 5 2.24 5 5v187.92c0 2.76-2.24 5-5 5H741.9c-2.76 0-5-2.24-5-5z" fill="#fff" fill-opacity="0"/><g><use xlink:href="#av" transform="matrix(1,0,0,1,741.9042592300215,297.7306434896692) translate(27.589130711467476 32.7827605956472)"/><use xlink:href="#aw" transform="matrix(1,0,0,1,741.9042592300215,297.7306434896692) translate(73.34749904543719 32.7827605956472)"/><use xlink:href="#ax" transform="matrix(1,0,0,1,741.9042592300215,297.7306434896692) translate(109.63221331296933 32.7827605956472)"/><use xlink:href="#ay" transform="matrix(1,0,0,1,741.9042592300215,297.7306434896692) translate(21.05294641720759 59.531901489118)"/><use xlink:href="#N" transform="matrix(1,0,0,1,741.9042592300215,297.7306434896692) translate(86.68741249840907 59.531901489118)"/><use xlink:href="#az" transform="matrix(1,0,0,1,741.9042592300215,297.7306434896692) translate(111.45513554791907 59.531901489118)"/><use xlink:href="#aA" transform="matrix(1,0,0,1,741.9042592300215,297.7306434896692) translate(21.672139493445325 86.2810423825888)"/><use xlink:href="#aB" transform="matrix(1,0,0,1,741.9042592300215,297.7306434896692) translate(83.52952780959653 86.2810423825888)"/><use xlink:href="#D" transform="matrix(1,0,0,1,741.9042592300215,297.7306434896692) translate(106.99694539900725 86.2810423825888)"/><use xlink:href="#aC" transform="matrix(1,0,0,1,741.9042592300215,297.7306434896692) translate(161.48593610792923 86.2810423825888)"/><use xlink:href="#af" transform="matrix(1,0,0,1,741.9042592300215,297.7306434896692) translate(30.278923253150065 113.03018327605959)"/><use xlink:href="#aD" transform="matrix(1,0,0,1,741.9042592300215,297.7306434896692) translate(73.62243858979255 113.03018327605959)"/><use xlink:href="#aE" transform="matrix(1,0,0,1,741.9042592300215,297.7306434896692) translate(146.62530227822327 113.03018327605959)"/><use xlink:href="#T" transform="matrix(1,0,0,1,741.9042592300215,297.7306434896692) translate(178.76142293496247 113.03018327605959)"/><use xlink:href="#aF" transform="matrix(1,0,0,1,741.9042592300215,297.7306434896692) translate(33.99408171057658 139.77932416953038)"/><use xlink:href="#V" transform="matrix(1,0,0,1,741.9042592300215,297.7306434896692) translate(93.43661702940055 139.77932416953038)"/><use xlink:href="#aG" transform="matrix(1,0,0,1,741.9042592300215,297.7306434896692) translate(187.43012600229093 139.77932416953038)"/><use xlink:href="#aH" transform="matrix(1,0,0,1,741.9042592300215,297.7306434896692) translate(84.73695430826015 166.52846506300116)"/></g><defs><path fill="#fff" d="M27 0v-27h64v-190l-56 39v-29l58-41h29v221h61V0H27" id="aI"/><use transform="matrix(0.08909252895507191,0,0,0.08909252895507191,0,0)" xlink:href="#aI" id="a"/><path fill="#fff" d="M101-251c82-7 93 87 43 132L82-64C71-53 59-42 53-27h129V0H18c2-99 128-94 128-182 0-28-16-43-45-43s-46 15-49 41l-32-3c6-41 34-60 81-64" id="aJ"/><use transform="matrix(0.08909252895507191,0,0,0.08909252895507191,0,0)" xlink:href="#aJ" id="b"/><path fill="#fff" d="M126-127c33 6 58 20 58 59 0 88-139 92-164 29-3-8-5-16-6-25l32-3c6 27 21 44 54 44 32 0 52-15 52-46 0-38-36-46-79-43v-28c39 1 72-4 72-42 0-27-17-43-46-43-28 0-47 15-49 41l-32-3c6-42 35-63 81-64 48-1 79 21 79 65 0 36-21 52-52 59" id="aK"/><use transform="matrix(0.08909252895507191,0,0,0.08909252895507191,0,0)" xlink:href="#aK" id="c"/><path fill="#fff" d="M155-56V0h-30v-56H8v-25l114-167h33v167h35v25h-35zm-30-156c-27 46-58 90-88 131h88v-131" id="aL"/><use transform="matrix(0.08909252895507191,0,0,0.08909252895507191,0,0)" xlink:href="#aL" id="d"/><path fill="#fff" d="M54-142c48-35 137-8 131 61C196 18 31 33 14-55l32-4c7 23 22 37 52 37 35-1 51-22 54-58 4-55-73-65-99-34H22l8-134h141v27H59" id="aM"/><use transform="matrix(0.08909252895507191,0,0,0.08909252895507191,0,0)" xlink:href="#aM" id="e"/><path fill="#333" d="M67-125c0 53 21 87 73 88 37 1 54-22 65-47l45 17C233-25 199 4 140 4 58 4 20-42 15-125 8-235 124-281 211-232c18 10 29 29 36 50l-46 12c-8-25-30-41-62-41-52 0-71 34-72 86" id="aN"/><path fill="#333" d="M133-34C117-15 103 5 69 4 32 3 11-16 11-54c-1-60 55-63 116-61 1-26-3-47-28-47-18 1-26 9-28 27l-52-2c7-38 36-58 82-57s74 22 75 68l1 82c-1 14 12 18 25 15v27c-30 8-71 5-69-32zm-48 3c29 0 43-24 42-57-32 0-66-3-65 30 0 17 8 27 23 27" id="aO"/><path fill="#333" d="M135-194c53 0 70 44 70 98 0 56-19 98-73 100-31 1-45-17-59-34 3 33 2 69 2 105H25l-1-265h48c2 10 0 23 3 31 11-24 29-35 60-35zM114-30c33 0 39-31 40-66 0-38-9-64-40-64-56 0-55 130 0 130" id="aP"/><path fill="#333" d="M115-3C79 11 28 4 28-45v-112H4v-33h27l15-45h31v45h36v33H77v99c-1 23 16 31 38 25v30" id="aQ"/><path fill="#333" d="M85 4C-2 5 27-109 22-190h50c7 57-23 150 33 157 60-5 35-97 40-157h50l1 190h-47c-2-12 1-28-3-38-12 25-28 42-61 42" id="aR"/><path fill="#333" d="M135-150c-39-12-60 13-60 57V0H25l-1-190h47c2 13-1 29 3 40 6-28 27-53 61-41v41" id="aS"/><path fill="#333" d="M185-48c-13 30-37 53-82 52C43 2 14-33 14-96s30-98 90-98c62 0 83 45 84 108H66c0 31 8 55 39 56 18 0 30-7 34-22zm-45-69c5-46-57-63-70-21-2 6-4 13-4 21h74" id="aT"/><g id="f"><use transform="matrix(0.07636502481863307,0,0,0.07636502481863307,0,0)" xlink:href="#aN"/><use transform="matrix(0.07636502481863307,0,0,0.07636502481863307,19.778541428025964,0)" xlink:href="#aO"/><use transform="matrix(0.07636502481863307,0,0,0.07636502481863307,35.05154639175258,0)" xlink:href="#aP"/><use transform="matrix(0.07636502481863307,0,0,0.07636502481863307,51.77548682703322,0)" xlink:href="#aQ"/><use transform="matrix(0.07636502481863307,0,0,0.07636502481863307,60.862924780450555,0)" xlink:href="#aR"/><use transform="matrix(0.07636502481863307,0,0,0.07636502481863307,77.5868652157312,0)" xlink:href="#aS"/><use transform="matrix(0.07636502481863307,0,0,0.07636502481863307,88.27796869033983,0)" xlink:href="#aT"/></g><path fill="#333" d="M147 0H94L2-248h55l64 206c17-72 42-137 63-206h54" id="aU"/><path fill="#333" d="M25-224v-37h50v37H25zM25 0v-190h50V0H25" id="aV"/><path fill="#333" d="M88-194c31-1 46 15 58 34l-1-101h50l1 261h-48c-2-10 0-23-3-31C134-8 116 4 84 4 32 4 16-41 15-95c0-56 19-97 73-99zm17 164c33 0 40-30 41-66 1-37-9-64-41-64s-38 30-39 65c0 43 13 65 39 65" id="aW"/><path fill="#333" d="M110-194c64 0 96 36 96 99 0 64-35 99-97 99-61 0-95-36-95-99 0-62 34-99 96-99zm-1 164c35 0 45-28 45-65 0-40-10-65-43-65-34 0-45 26-45 65 0 36 10 65 43 65" id="aX"/><g id="g"><use transform="matrix(0.07636502481863307,0,0,0.07636502481863307,0,0)" xlink:href="#aU"/><use transform="matrix(0.07636502481863307,0,0,0.07636502481863307,17.793050782741503,0)" xlink:href="#aV"/><use transform="matrix(0.07636502481863307,0,0,0.07636502481863307,25.429553264604813,0)" xlink:href="#aW"/><use transform="matrix(0.07636502481863307,0,0,0.07636502481863307,42.15349369988545,0)" xlink:href="#aT"/><use transform="matrix(0.07636502481863307,0,0,0.07636502481863307,57.426498663612065,0)" xlink:href="#aX"/></g><path fill="#333" d="M240-174c0 40-23 61-54 70L253 0h-59l-57-94H76V0H24v-248c93 4 217-23 216 74zM76-134c48-2 112 12 112-38 0-48-66-32-112-35v73" id="aY"/><path fill="#333" d="M135-194c87-1 58 113 63 194h-50c-7-57 23-157-34-157-59 0-34 97-39 157H25l-1-190h47c2 12-1 28 3 38 12-26 28-41 61-42" id="aZ"/><g id="h"><use transform="matrix(0.07636502481863307,0,0,0.07636502481863307,0,0)" xlink:href="#aY"/><use transform="matrix(0.07636502481863307,0,0,0.07636502481863307,19.778541428025964,0)" xlink:href="#aR"/><use transform="matrix(0.07636502481863307,0,0,0.07636502481863307,36.502481863306606,0)" xlink:href="#aZ"/></g><path fill="#333" d="M230 0l2-204L168 0h-37L68-204 70 0H24v-248h70l56 185 57-185h69V0h-46" id="ba"/><path fill="#333" d="M24 0v-248h52v208h133V0H24" id="bb"/><g id="i"><use transform="matrix(0.07636502481863307,0,0,0.07636502481863307,0,0)" xlink:href="#ba"/><use transform="matrix(0.07636502481863307,0,0,0.07636502481863307,22.83314242077129,0)" xlink:href="#bb"/></g><path fill="#333" d="M25 0v-261h50V0H25" id="bc"/><g id="j"><use transform="matrix(0.07636502481863307,0,0,0.07636502481863307,0,0)" xlink:href="#ba"/><use transform="matrix(0.07636502481863307,0,0,0.07636502481863307,22.83314242077129,0)" xlink:href="#aX"/><use transform="matrix(0.07636502481863307,0,0,0.07636502481863307,39.557082856051935,0)" xlink:href="#aW"/><use transform="matrix(0.07636502481863307,0,0,0.07636502481863307,56.28102329133257,0)" xlink:href="#aT"/><use transform="matrix(0.07636502481863307,0,0,0.07636502481863307,71.5540282550592,0)" xlink:href="#bc"/></g><path fill="#333" d="M24-248c93 1 206-16 204 79-1 75-69 88-152 82V0H24v-248zm52 121c47 0 100 7 100-41 0-47-54-39-100-39v80" id="bd"/><path fill="#333" d="M190-63c-7 42-38 67-86 67-59 0-84-38-90-98-12-110 154-137 174-36l-49 2c-2-19-15-32-35-32-30 0-35 28-38 64-6 74 65 87 74 30" id="be"/><path fill="#333" d="M147 0L96-86 75-71V0H25v-261h50v150l67-79h53l-66 74L201 0h-54" id="bf"/><path fill="#333" d="M195-6C206 82 75 100 31 46c-4-6-6-13-8-21l49-6c3 16 16 24 34 25 40 0 42-37 40-79-11 22-30 35-61 35-53 0-70-43-70-97 0-56 18-96 73-97 30 0 46 14 59 34l2-30h47zm-90-29c32 0 41-27 41-63 0-35-9-62-40-62-32 0-39 29-40 63 0 36 9 62 39 62" id="bg"/><g id="k"><use transform="matrix(0.07636502481863307,0,0,0.07636502481863307,0,0)" xlink:href="#bd"/><use transform="matrix(0.07636502481863307,0,0,0.07636502481863307,18.327605956471935,0)" xlink:href="#aO"/><use transform="matrix(0.07636502481863307,0,0,0.07636502481863307,33.60061092019855,0)" xlink:href="#be"/><use transform="matrix(0.07636502481863307,0,0,0.07636502481863307,48.87361588392516,0)" xlink:href="#bf"/><use transform="matrix(0.07636502481863307,0,0,0.07636502481863307,64.14662084765177,0)" xlink:href="#aO"/><use transform="matrix(0.07636502481863307,0,0,0.07636502481863307,79.41962581137837,0)" xlink:href="#bg"/><use transform="matrix(0.07636502481863307,0,0,0.07636502481863307,96.14356624665902,0)" xlink:href="#aT"/></g><path fill="#333" d="M24-248c120-7 223 5 221 122C244-46 201 0 124 0H24v-248zM76-40c74 7 117-18 117-86 0-67-45-88-117-82v168" id="bh"/><g id="l"><use transform="matrix(0.07636502481863307,0,0,0.07636502481863307,0,0)" xlink:href="#bh"/><use transform="matrix(0.07636502481863307,0,0,0.07636502481863307,19.778541428025964,0)" xlink:href="#aO"/><use transform="matrix(0.07636502481863307,0,0,0.07636502481863307,35.05154639175258,0)" xlink:href="#aQ"/><use transform="matrix(0.07636502481863307,0,0,0.07636502481863307,44.138984345169916,0)" xlink:href="#aO"/></g><path fill="#333" d="M169-182c-1-43-94-46-97-3 18 66 151 10 154 114 3 95-165 93-204 36-6-8-10-19-12-30l50-8c3 46 112 56 116 5-17-69-150-10-154-114-4-87 153-88 188-35 5 8 8 18 10 28" id="bi"/><g id="m"><use transform="matrix(0.07636502481863307,0,0,0.07636502481863307,0,0)" xlink:href="#bi"/><use transform="matrix(0.07636502481863307,0,0,0.07636502481863307,18.327605956471935,0)" xlink:href="#aT"/><use transform="matrix(0.07636502481863307,0,0,0.07636502481863307,33.60061092019855,0)" xlink:href="#aZ"/><use transform="matrix(0.07636502481863307,0,0,0.07636502481863307,50.32455135547918,0)" xlink:href="#aW"/></g><g id="n"><use transform="matrix(0.07636502481863307,0,0,0.07636502481863307,0,0)" xlink:href="#bh"/><use transform="matrix(0.07636502481863307,0,0,0.07636502481863307,19.778541428025964,0)" xlink:href="#aO"/><use transform="matrix(0.07636502481863307,0,0,0.07636502481863307,35.05154639175258,0)" xlink:href="#aQ"/><use transform="matrix(0.07636502481863307,0,0,0.07636502481863307,44.138984345169916,0)" xlink:href="#aO"/></g><g id="o"><use transform="matrix(0.07636502481863307,0,0,0.07636502481863307,0,0)" xlink:href="#aO"/><use transform="matrix(0.07636502481863307,0,0,0.07636502481863307,15.273004963726613,0)" xlink:href="#aZ"/><use transform="matrix(0.07636502481863307,0,0,0.07636502481863307,31.996945399007256,0)" xlink:href="#aW"/></g><g id="p"><use transform="matrix(0.07636502481863307,0,0,0.07636502481863307,0,0)" xlink:href="#bh"/><use transform="matrix(0.07636502481863307,0,0,0.07636502481863307,19.778541428025964,0)" xlink:href="#aX"/></g><path fill="#333" d="M80-75H40l-6-173h52zM34 0v-47h51V0H34" id="bj"/><g id="q"><use transform="matrix(0.07636502481863307,0,0,0.07636502481863307,0,0)" xlink:href="#ba"/><use transform="matrix(0.07636502481863307,0,0,0.07636502481863307,22.83314242077129,0)" xlink:href="#aO"/><use transform="matrix(0.07636502481863307,0,0,0.07636502481863307,38.1061473844979,0)" xlink:href="#bg"/><use transform="matrix(0.07636502481863307,0,0,0.07636502481863307,54.83008781977854,0)" xlink:href="#aV"/><use transform="matrix(0.07636502481863307,0,0,0.07636502481863307,62.466590301641844,0)" xlink:href="#be"/><use transform="matrix(0.07636502481863307,0,0,0.07636502481863307,77.73959526536845,0)" xlink:href="#bj"/></g><path fill="#333" d="M140-251c80 0 125 45 125 126S219 4 139 4C58 4 15-44 15-125s44-126 125-126zm-1 214c52 0 73-35 73-88 0-50-21-86-72-86-52 0-73 35-73 86s22 88 72 88" id="bk"/><g id="r"><use transform="matrix(0.07636502481863307,0,0,0.07636502481863307,0,0)" xlink:href="#bk"/><use transform="matrix(0.07636502481863307,0,0,0.07636502481863307,21.38220694921726,0)" xlink:href="#aP"/><use transform="matrix(0.07636502481863307,0,0,0.07636502481863307,38.1061473844979,0)" xlink:href="#aT"/><use transform="matrix(0.07636502481863307,0,0,0.07636502481863307,53.379152348224515,0)" xlink:href="#aZ"/><use transform="matrix(0.07636502481863307,0,0,0.07636502481863307,70.10309278350516,0)" xlink:href="#aN"/><use transform="matrix(0.07636502481863307,0,0,0.07636502481863307,89.88163421153112,0)" xlink:href="#aU"/></g><path fill="#333" d="M232-93c-1 65-40 97-104 97C67 4 28-28 28-90v-158h33c8 89-33 224 67 224 102 0 64-133 71-224h33v155" id="bl"/><path fill="#333" d="M135-143c-3-34-86-38-87 0 15 53 115 12 119 90S17 21 10-45l28-5c4 36 97 45 98 0-10-56-113-15-118-90-4-57 82-63 122-42 12 7 21 19 24 35" id="bm"/><path fill="#333" d="M100-194c63 0 86 42 84 106H49c0 40 14 67 53 68 26 1 43-12 49-29l28 8c-11 28-37 45-77 45C44 4 14-33 15-96c1-61 26-98 85-98zm52 81c6-60-76-77-97-28-3 7-6 17-6 28h103" id="bn"/><g id="s"><use transform="matrix(0.06315387552500955,0,0,0.06315387552500955,0,0)" xlink:href="#bl"/><use transform="matrix(0.06315387552500955,0,0,0.06315387552500955,16.356853760977472,0)" xlink:href="#bm"/><use transform="matrix(0.06315387552500955,0,0,0.06315387552500955,27.724551355479193,0)" xlink:href="#bn"/></g><path fill="#333" d="M140-251c81 0 123 46 123 126C263-46 219 4 140 4 59 4 17-45 17-125s42-126 123-126zm0 227c63 0 89-41 89-101s-29-99-89-99c-61 0-89 39-89 99S79-25 140-24" id="bo"/><path fill="#333" d="M115-194c55 1 70 41 70 98S169 2 115 4C84 4 66-9 55-30l1 105H24l-1-265h31l2 30c10-21 28-34 59-34zm-8 174c40 0 45-34 45-75s-6-73-45-74c-42 0-51 32-51 76 0 43 10 73 51 73" id="bp"/><path fill="#333" d="M117-194c89-4 53 116 60 194h-32v-121c0-31-8-49-39-48C34-167 62-67 57 0H25l-1-190h30c1 10-1 24 2 32 11-22 29-35 61-36" id="bq"/><path fill="#333" d="M212-179c-10-28-35-45-73-45-59 0-87 40-87 99 0 60 29 101 89 101 43 0 62-24 78-52l27 14C228-24 195 4 139 4 59 4 22-46 18-125c-6-104 99-153 187-111 19 9 31 26 39 46" id="br"/><path fill="#333" d="M137 0h-34L2-248h35l83 218 83-218h36" id="bs"/><g id="t"><use transform="matrix(0.06315387552500955,0,0,0.06315387552500955,0,0)" xlink:href="#bo"/><use transform="matrix(0.06315387552500955,0,0,0.06315387552500955,17.683085147002675,0)" xlink:href="#bp"/><use transform="matrix(0.06315387552500955,0,0,0.06315387552500955,30.313860252004584,0)" xlink:href="#bn"/><use transform="matrix(0.06315387552500955,0,0,0.06315387552500955,42.94463535700649,0)" xlink:href="#bq"/><use transform="matrix(0.06315387552500955,0,0,0.06315387552500955,55.5754104620084,0)" xlink:href="#br"/><use transform="matrix(0.06315387552500955,0,0,0.06315387552500955,71.93226422298588,0)" xlink:href="#bs"/></g><path fill="#333" d="M59-47c-2 24 18 29 38 22v24C64 9 27 4 27-40v-127H5v-23h24l9-43h21v43h35v23H59v120" id="bt"/><path fill="#333" d="M100-194c62-1 85 37 85 99 1 63-27 99-86 99S16-35 15-95c0-66 28-99 85-99zM99-20c44 1 53-31 53-75 0-43-8-75-51-75s-53 32-53 75 10 74 51 75" id="bu"/><g id="u"><use transform="matrix(0.06315387552500955,0,0,0.06315387552500955,0,0)" xlink:href="#bt"/><use transform="matrix(0.06315387552500955,0,0,0.06315387552500955,6.315387552500955,0)" xlink:href="#bu"/></g><path fill="#333" d="M96-169c-40 0-48 33-48 73s9 75 48 75c24 0 41-14 43-38l32 2c-6 37-31 61-74 61-59 0-76-41-82-99-10-93 101-131 147-64 4 7 5 14 7 22l-32 3c-4-21-16-35-41-35" id="bv"/><path fill="#333" d="M141-36C126-15 110 5 73 4 37 3 15-17 15-53c-1-64 63-63 125-63 3-35-9-54-41-54-24 1-41 7-42 31l-33-3c5-37 33-52 76-52 45 0 72 20 72 64v82c-1 20 7 32 28 27v20c-31 9-61-2-59-35zM48-53c0 20 12 33 32 33 41-3 63-29 60-74-43 2-92-5-92 41" id="bw"/><path fill="#333" d="M84 4C-5 8 30-112 23-190h32v120c0 31 7 50 39 49 72-2 45-101 50-169h31l1 190h-30c-1-10 1-25-2-33-11 22-28 36-60 37" id="bx"/><path fill="#333" d="M114-163C36-179 61-72 57 0H25l-1-190h30c1 12-1 29 2 39 6-27 23-49 58-41v29" id="by"/><g id="v"><use transform="matrix(0.06315387552500955,0,0,0.06315387552500955,0,0)" xlink:href="#bv"/><use transform="matrix(0.06315387552500955,0,0,0.06315387552500955,11.367697594501719,0)" xlink:href="#bw"/><use transform="matrix(0.06315387552500955,0,0,0.06315387552500955,23.99847269950363,0)" xlink:href="#bp"/><use transform="matrix(0.06315387552500955,0,0,0.06315387552500955,36.62924780450554,0)" xlink:href="#bt"/><use transform="matrix(0.06315387552500955,0,0,0.06315387552500955,42.94463535700649,0)" xlink:href="#bx"/><use transform="matrix(0.06315387552500955,0,0,0.06315387552500955,55.5754104620084,0)" xlink:href="#by"/><use transform="matrix(0.06315387552500955,0,0,0.06315387552500955,63.090721649484536,0)" xlink:href="#bn"/></g><path fill="#333" d="M101-234c-31-9-42 10-38 44h38v23H63V0H32v-167H5v-23h27c-7-52 17-82 69-68v24" id="bz"/><path fill="#333" d="M85-194c31 0 48 13 60 33l-1-100h32l1 261h-30c-2-10 0-23-3-31C134-8 116 4 85 4 32 4 16-35 15-94c0-66 23-100 70-100zm9 24c-40 0-46 34-46 75 0 40 6 74 45 74 42 0 51-32 51-76 0-42-9-74-50-73" id="bA"/><g id="w"><use transform="matrix(0.06315387552500955,0,0,0.06315387552500955,0,0)" xlink:href="#bz"/><use transform="matrix(0.06315387552500955,0,0,0.06315387552500955,6.315387552500955,0)" xlink:href="#bn"/><use transform="matrix(0.06315387552500955,0,0,0.06315387552500955,18.946162657502864,0)" xlink:href="#bn"/><use transform="matrix(0.06315387552500955,0,0,0.06315387552500955,31.576937762504773,0)" xlink:href="#bA"/></g><path fill="#333" d="M210-169c-67 3-38 105-44 169h-31v-121c0-29-5-50-35-48C34-165 62-65 56 0H25l-1-190h30c1 10-1 24 2 32 10-44 99-50 107 0 11-21 27-35 58-36 85-2 47 119 55 194h-31v-121c0-29-5-49-35-48" id="bB"/><g id="x"><use transform="matrix(0.06315387552500955,0,0,0.06315387552500955,0,0)" xlink:href="#bz"/><use transform="matrix(0.06315387552500955,0,0,0.06315387552500955,6.315387552500955,0)" xlink:href="#by"/><use transform="matrix(0.06315387552500955,0,0,0.06315387552500955,13.830698739977091,0)" xlink:href="#bu"/><use transform="matrix(0.06315387552500955,0,0,0.06315387552500955,26.461473844979,0)" xlink:href="#bB"/></g><g id="y"><use transform="matrix(0.06315387552500955,0,0,0.06315387552500955,0,0)" xlink:href="#bu"/><use transform="matrix(0.06315387552500955,0,0,0.06315387552500955,12.63077510500191,0)" xlink:href="#bq"/><use transform="matrix(0.06315387552500955,0,0,0.06315387552500955,25.26155021000382,0)" xlink:href="#bn"/></g><g id="z"><use transform="matrix(0.06315387552500955,0,0,0.06315387552500955,0,0)" xlink:href="#bu"/><use transform="matrix(0.06315387552500955,0,0,0.06315387552500955,12.63077510500191,0)" xlink:href="#by"/></g><path fill="#333" d="M108 0H70L1-190h34L89-25l56-165h34" id="bC"/><path fill="#333" d="M24 0v-261h32V0H24" id="bD"/><g id="A"><use transform="matrix(0.06315387552500955,0,0,0.06315387552500955,0,0)" xlink:href="#bm"/><use transform="matrix(0.06315387552500955,0,0,0.06315387552500955,11.367697594501719,0)" xlink:href="#bn"/><use transform="matrix(0.06315387552500955,0,0,0.06315387552500955,23.99847269950363,0)" xlink:href="#bC"/><use transform="matrix(0.06315387552500955,0,0,0.06315387552500955,35.36617029400535,0)" xlink:href="#bn"/><use transform="matrix(0.06315387552500955,0,0,0.06315387552500955,47.99694539900726,0)" xlink:href="#by"/><use transform="matrix(0.06315387552500955,0,0,0.06315387552500955,55.512256586483396,0)" xlink:href="#bw"/><use transform="matrix(0.06315387552500955,0,0,0.06315387552500955,68.1430316914853,0)" xlink:href="#bD"/></g><g id="B"><use transform="matrix(0.06315387552500955,0,0,0.06315387552500955,0,0)" xlink:href="#bv"/><use transform="matrix(0.06315387552500955,0,0,0.06315387552500955,11.367697594501719,0)" xlink:href="#bw"/><use transform="matrix(0.06315387552500955,0,0,0.06315387552500955,23.99847269950363,0)" xlink:href="#bB"/><use transform="matrix(0.06315387552500955,0,0,0.06315387552500955,42.881481481481494,0)" xlink:href="#bn"/><use transform="matrix(0.06315387552500955,0,0,0.06315387552500955,55.512256586483396,0)" xlink:href="#by"/><use transform="matrix(0.06315387552500955,0,0,0.06315387552500955,63.02756777395953,0)" xlink:href="#bw"/><use transform="matrix(0.06315387552500955,0,0,0.06315387552500955,75.65834287896143,0)" xlink:href="#bm"/></g><path fill="#333" d="M233-177c-1 41-23 64-60 70L243 0h-38l-65-103H63V0H30v-248c88 3 205-21 203 71zM63-129c60-2 137 13 137-47 0-61-80-42-137-45v92" id="bE"/><g id="C"><use transform="matrix(0.06191930762377498,0,0,0.06191930762377498,0,0)" xlink:href="#bE"/><use transform="matrix(0.06191930762377498,0,0,0.06191930762377498,16.03710067455772,0)" xlink:href="#bx"/><use transform="matrix(0.06191930762377498,0,0,0.06191930762377498,28.42096219931272,0)" xlink:href="#bq"/></g><path fill="#333" d="M106-169C34-169 62-67 57 0H25v-261h32l-1 103c12-21 28-36 61-36 89 0 53 116 60 194h-32v-121c2-32-8-49-39-48" id="bF"/><g id="D"><use transform="matrix(0.06191930762377498,0,0,0.06191930762377498,0,0)" xlink:href="#bn"/><use transform="matrix(0.06191930762377498,0,0,0.06191930762377498,12.383861524754996,0)" xlink:href="#bw"/><use transform="matrix(0.06191930762377498,0,0,0.06191930762377498,24.767723049509993,0)" xlink:href="#bv"/><use transform="matrix(0.06191930762377498,0,0,0.06191930762377498,35.91319842178949,0)" xlink:href="#bF"/></g><path fill="#333" d="M24-231v-30h32v30H24zM24 0v-190h32V0H24" id="bG"/><path fill="#333" d="M177-190C167-65 218 103 67 71c-23-6-38-20-44-43l32-5c15 47 100 32 89-28v-30C133-14 115 1 83 1 29 1 15-40 15-95c0-56 16-97 71-98 29-1 48 16 59 35 1-10 0-23 2-32h30zM94-22c36 0 50-32 50-73 0-42-14-75-50-75-39 0-46 34-46 75s6 73 46 73" id="bH"/><g id="E"><use transform="matrix(0.06191930762377498,0,0,0.06191930762377498,0,0)" xlink:href="#bG"/><use transform="matrix(0.06191930762377498,0,0,0.06191930762377498,4.891625302278223,0)" xlink:href="#bq"/><use transform="matrix(0.06191930762377498,0,0,0.06191930762377498,17.27548682703322,0)" xlink:href="#bv"/><use transform="matrix(0.06191930762377498,0,0,0.06191930762377498,28.42096219931272,0)" xlink:href="#bu"/><use transform="matrix(0.06191930762377498,0,0,0.06191930762377498,40.80482372406772,0)" xlink:href="#bB"/><use transform="matrix(0.06191930762377498,0,0,0.06191930762377498,59.318696703576435,0)" xlink:href="#bG"/><use transform="matrix(0.06191930762377498,0,0,0.06191930762377498,64.21032200585466,0)" xlink:href="#bq"/><use transform="matrix(0.06191930762377498,0,0,0.06191930762377498,76.59418353060966,0)" xlink:href="#bH"/></g><g id="F"><use transform="matrix(0.06191930762377498,0,0,0.06191930762377498,0,0)" xlink:href="#bz"/><use transform="matrix(0.06191930762377498,0,0,0.06191930762377498,6.191930762377498,0)" xlink:href="#by"/><use transform="matrix(0.06191930762377498,0,0,0.06191930762377498,13.560328369606722,0)" xlink:href="#bw"/><use transform="matrix(0.06191930762377498,0,0,0.06191930762377498,25.94418989436172,0)" xlink:href="#bB"/><use transform="matrix(0.06191930762377498,0,0,0.06191930762377498,44.45806287387044,0)" xlink:href="#bn"/></g><g id="G"><use transform="matrix(0.06191930762377498,0,0,0.06191930762377498,0,0)" xlink:href="#bt"/><use transform="matrix(0.06191930762377498,0,0,0.06191930762377498,6.191930762377498,0)" xlink:href="#bF"/><use transform="matrix(0.06191930762377498,0,0,0.06191930762377498,18.575792287132494,0)" xlink:href="#by"/><use transform="matrix(0.06191930762377498,0,0,0.06191930762377498,25.944189894361717,0)" xlink:href="#bu"/><use transform="matrix(0.06191930762377498,0,0,0.06191930762377498,38.32805141911671,0)" xlink:href="#bx"/><use transform="matrix(0.06191930762377498,0,0,0.06191930762377498,50.71191294387171,0)" xlink:href="#bH"/><use transform="matrix(0.06191930762377498,0,0,0.06191930762377498,63.09577446862671,0)" xlink:href="#bF"/></g><use transform="matrix(0.06191930762377498,0,0,0.06191930762377498,0,0)" xlink:href="#bw" id="H"/><path fill="#333" d="M127-220V0H93v-220H8v-28h204v28h-85" id="bI"/><path fill="#333" d="M206 0h-36l-40-164L89 0H53L-1-190h32L70-26l43-164h34l41 164 42-164h31" id="bJ"/><g id="I"><use transform="matrix(0.06191930762377498,0,0,0.06191930762377498,0,0)" xlink:href="#bI"/><use transform="matrix(0.06191930762377498,0,0,0.06191930762377498,11.08355606465572,0)" xlink:href="#bn"/><use transform="matrix(0.06191930762377498,0,0,0.06191930762377498,23.467417589410715,0)" xlink:href="#bq"/><use transform="matrix(0.06191930762377498,0,0,0.06191930762377498,35.85127911416571,0)" xlink:href="#bm"/><use transform="matrix(0.06191930762377498,0,0,0.06191930762377498,46.99675448644521,0)" xlink:href="#by"/><use transform="matrix(0.06191930762377498,0,0,0.06191930762377498,54.36515209367444,0)" xlink:href="#bu"/><use transform="matrix(0.06191930762377498,0,0,0.06191930762377498,66.74901361842943,0)" xlink:href="#bz"/><use transform="matrix(0.06191930762377498,0,0,0.06191930762377498,72.94094438080693,0)" xlink:href="#bD"/><use transform="matrix(0.06191930762377498,0,0,0.06191930762377498,77.83256968308515,0)" xlink:href="#bu"/><use transform="matrix(0.06191930762377498,0,0,0.06191930762377498,90.21643120784015,0)" xlink:href="#bJ"/></g><path fill="#333" d="M30 0v-248h33v221h125V0H30" id="bK"/><g id="J"><use transform="matrix(0.06191930762377498,0,0,0.06191930762377498,0,0)" xlink:href="#bK"/><use transform="matrix(0.06191930762377498,0,0,0.06191930762377498,12.383861524754996,0)" xlink:href="#bG"/><use transform="matrix(0.06191930762377498,0,0,0.06191930762377498,17.27548682703322,0)" xlink:href="#bt"/><use transform="matrix(0.06191930762377498,0,0,0.06191930762377498,23.46741758941072,0)" xlink:href="#bn"/></g><path fill="#333" d="M115-194c53 0 69 39 70 98 0 66-23 100-70 100C84 3 66-7 56-30L54 0H23l1-261h32v101c10-23 28-34 59-34zm-8 174c40 0 45-34 45-75 0-40-5-75-45-74-42 0-51 32-51 76 0 43 10 73 51 73" id="bL"/><path fill="#333" d="M24-231v-30h32v30H24zM-9 49c24 4 33-6 33-30v-209h32V24c2 40-23 58-65 49V49" id="bM"/><g id="K"><use transform="matrix(0.06191930762377498,0,0,0.06191930762377498,0,0)" xlink:href="#bo"/><use transform="matrix(0.06191930762377498,0,0,0.06191930762377498,17.337406134656995,0)" xlink:href="#bL"/><use transform="matrix(0.06191930762377498,0,0,0.06191930762377498,29.721267659411993,0)" xlink:href="#bM"/><use transform="matrix(0.06191930762377498,0,0,0.06191930762377498,34.612892961690214,0)" xlink:href="#bn"/><use transform="matrix(0.06191930762377498,0,0,0.06191930762377498,46.99675448644521,0)" xlink:href="#bv"/><use transform="matrix(0.06191930762377498,0,0,0.06191930762377498,58.14222985872471,0)" xlink:href="#bt"/></g><path fill="#333" d="M30-248c118-7 216 8 213 122C240-48 200 0 122 0H30v-248zM63-27c89 8 146-16 146-99s-60-101-146-95v194" id="bN"/><g id="L"><use transform="matrix(0.06191930762377498,0,0,0.06191930762377498,0,0)" xlink:href="#bN"/><use transform="matrix(0.06191930762377498,0,0,0.06191930762377498,16.03710067455772,0)" xlink:href="#bn"/><use transform="matrix(0.06191930762377498,0,0,0.06191930762377498,28.42096219931272,0)" xlink:href="#bt"/><use transform="matrix(0.06191930762377498,0,0,0.06191930762377498,34.612892961690214,0)" xlink:href="#bn"/><use transform="matrix(0.06191930762377498,0,0,0.06191930762377498,46.99675448644521,0)" xlink:href="#bv"/><use transform="matrix(0.06191930762377498,0,0,0.06191930762377498,58.14222985872471,0)" xlink:href="#bt"/><use transform="matrix(0.06191930762377498,0,0,0.06191930762377498,64.33416062110221,0)" xlink:href="#bG"/><use transform="matrix(0.06191930762377498,0,0,0.06191930762377498,69.22578592338044,0)" xlink:href="#bu"/><use transform="matrix(0.06191930762377498,0,0,0.06191930762377498,81.60964744813543,0)" xlink:href="#bq"/></g><g id="M"><use transform="matrix(0.06191930762377498,0,0,0.06191930762377498,0,0)" xlink:href="#bB"/><use transform="matrix(0.06191930762377498,0,0,0.06191930762377498,18.51387297950872,0)" xlink:href="#bu"/><use transform="matrix(0.06191930762377498,0,0,0.06191930762377498,30.897734504263717,0)" xlink:href="#bA"/><use transform="matrix(0.06191930762377498,0,0,0.06191930762377498,43.281596029018715,0)" xlink:href="#bn"/><use transform="matrix(0.06191930762377498,0,0,0.06191930762377498,55.66545755377371,0)" xlink:href="#bD"/></g><g id="N"><use transform="matrix(0.06191930762377498,0,0,0.06191930762377498,0,0)" xlink:href="#bt"/><use transform="matrix(0.06191930762377498,0,0,0.06191930762377498,6.191930762377498,0)" xlink:href="#bu"/></g><g id="O"><use transform="matrix(0.06191930762377498,0,0,0.06191930762377498,0,0)" xlink:href="#by"/><use transform="matrix(0.06191930762377498,0,0,0.06191930762377498,7.368397607229223,0)" xlink:href="#bn"/><use transform="matrix(0.06191930762377498,0,0,0.06191930762377498,19.752259131984218,0)" xlink:href="#bv"/><use transform="matrix(0.06191930762377498,0,0,0.06191930762377498,30.897734504263717,0)" xlink:href="#bG"/><use transform="matrix(0.06191930762377498,0,0,0.06191930762377498,35.78935980654194,0)" xlink:href="#bn"/><use transform="matrix(0.06191930762377498,0,0,0.06191930762377498,48.173221331296936,0)" xlink:href="#bC"/><use transform="matrix(0.06191930762377498,0,0,0.06191930762377498,59.318696703576435,0)" xlink:href="#bn"/></g><g id="P"><use transform="matrix(0.06191930762377498,0,0,0.06191930762377498,0,0)" xlink:href="#bL"/><use transform="matrix(0.06191930762377498,0,0,0.06191930762377498,12.383861524754996,0)" xlink:href="#bu"/><use transform="matrix(0.06191930762377498,0,0,0.06191930762377498,24.767723049509993,0)" xlink:href="#bx"/><use transform="matrix(0.06191930762377498,0,0,0.06191930762377498,37.15158457426499,0)" xlink:href="#bq"/><use transform="matrix(0.06191930762377498,0,0,0.06191930762377498,49.535446099019985,0)" xlink:href="#bA"/><use transform="matrix(0.06191930762377498,0,0,0.06191930762377498,61.91930762377498,0)" xlink:href="#bG"/><use transform="matrix(0.06191930762377498,0,0,0.06191930762377498,66.81093292605321,0)" xlink:href="#bq"/><use transform="matrix(0.06191930762377498,0,0,0.06191930762377498,79.1947944508082,0)" xlink:href="#bH"/></g><path fill="#333" d="M141 0L90-78 38 0H4l68-98-65-92h35l48 74 47-74h35l-64 92 68 98h-35" id="bO"/><g id="Q"><use transform="matrix(0.06191930762377498,0,0,0.06191930762377498,0,0)" xlink:href="#bL"/><use transform="matrix(0.06191930762377498,0,0,0.06191930762377498,12.383861524754996,0)" xlink:href="#bu"/><use transform="matrix(0.06191930762377498,0,0,0.06191930762377498,24.767723049509993,0)" xlink:href="#bO"/></g><g id="R"><use transform="matrix(0.06191930762377498,0,0,0.06191930762377498,0,0)" xlink:href="#bv"/><use transform="matrix(0.06191930762377498,0,0,0.06191930762377498,11.145475372279497,0)" xlink:href="#bu"/><use transform="matrix(0.06191930762377498,0,0,0.06191930762377498,23.529336897034494,0)" xlink:href="#bu"/><use transform="matrix(0.06191930762377498,0,0,0.06191930762377498,35.91319842178949,0)" xlink:href="#by"/><use transform="matrix(0.06191930762377498,0,0,0.06191930762377498,43.281596029018715,0)" xlink:href="#bA"/><use transform="matrix(0.06191930762377498,0,0,0.06191930762377498,55.66545755377371,0)" xlink:href="#bG"/><use transform="matrix(0.06191930762377498,0,0,0.06191930762377498,60.557082856051935,0)" xlink:href="#bq"/><use transform="matrix(0.06191930762377498,0,0,0.06191930762377498,72.94094438080693,0)" xlink:href="#bw"/><use transform="matrix(0.06191930762377498,0,0,0.06191930762377498,85.32480590556192,0)" xlink:href="#bt"/><use transform="matrix(0.06191930762377498,0,0,0.06191930762377498,91.51673666793941,0)" xlink:href="#bn"/><use transform="matrix(0.06191930762377498,0,0,0.06191930762377498,103.9005981926944,0)" xlink:href="#bm"/></g><g id="S"><use transform="matrix(0.06191930762377498,0,0,0.06191930762377498,0,0)" xlink:href="#bu"/><use transform="matrix(0.06191930762377498,0,0,0.06191930762377498,12.383861524754996,0)" xlink:href="#bz"/></g><g id="T"><use transform="matrix(0.06191930762377498,0,0,0.06191930762377498,0,0)" xlink:href="#bt"/><use transform="matrix(0.06191930762377498,0,0,0.06191930762377498,6.191930762377498,0)" xlink:href="#bF"/><use transform="matrix(0.06191930762377498,0,0,0.06191930762377498,18.575792287132494,0)" xlink:href="#bn"/></g><g id="U"><use transform="matrix(0.06191930762377498,0,0,0.06191930762377498,0,0)" xlink:href="#bH"/><use transform="matrix(0.06191930762377498,0,0,0.06191930762377498,12.383861524754996,0)" xlink:href="#bn"/><use transform="matrix(0.06191930762377498,0,0,0.06191930762377498,24.767723049509993,0)" xlink:href="#bq"/><use transform="matrix(0.06191930762377498,0,0,0.06191930762377498,37.15158457426499,0)" xlink:href="#bn"/><use transform="matrix(0.06191930762377498,0,0,0.06191930762377498,49.535446099019985,0)" xlink:href="#by"/><use transform="matrix(0.06191930762377498,0,0,0.06191930762377498,56.903843706249205,0)" xlink:href="#bw"/><use transform="matrix(0.06191930762377498,0,0,0.06191930762377498,69.2877052310042,0)" xlink:href="#bD"/></g><g id="V"><use transform="matrix(0.06191930762377498,0,0,0.06191930762377498,0,0)" xlink:href="#bD"/><use transform="matrix(0.06191930762377498,0,0,0.06191930762377498,4.891625302278223,0)" xlink:href="#bu"/><use transform="matrix(0.06191930762377498,0,0,0.06191930762377498,17.27548682703322,0)" xlink:href="#bv"/><use transform="matrix(0.06191930762377498,0,0,0.06191930762377498,28.42096219931272,0)" xlink:href="#bw"/><use transform="matrix(0.06191930762377498,0,0,0.06191930762377498,40.80482372406772,0)" xlink:href="#bt"/><use transform="matrix(0.06191930762377498,0,0,0.06191930762377498,46.99675448644521,0)" xlink:href="#bG"/><use transform="matrix(0.06191930762377498,0,0,0.06191930762377498,51.888379788723434,0)" xlink:href="#bu"/><use transform="matrix(0.06191930762377498,0,0,0.06191930762377498,64.27224131347843,0)" xlink:href="#bq"/><use transform="matrix(0.06191930762377498,0,0,0.06191930762377498,76.65610283823342,0)" xlink:href="#bm"/></g><g id="W"><use transform="matrix(0.06191930762377498,0,0,0.06191930762377498,0,0)" xlink:href="#bG"/><use transform="matrix(0.06191930762377498,0,0,0.06191930762377498,4.891625302278223,0)" xlink:href="#bq"/></g><g id="X"><use transform="matrix(0.06191930762377498,0,0,0.06191930762377498,0,0)" xlink:href="#bJ"/><use transform="matrix(0.06191930762377498,0,0,0.06191930762377498,16.03710067455772,0)" xlink:href="#bF"/><use transform="matrix(0.06191930762377498,0,0,0.06191930762377498,28.42096219931272,0)" xlink:href="#bG"/><use transform="matrix(0.06191930762377498,0,0,0.06191930762377498,33.31258750159094,0)" xlink:href="#bv"/><use transform="matrix(0.06191930762377498,0,0,0.06191930762377498,44.45806287387044,0)" xlink:href="#bF"/></g><g id="Y"><use transform="matrix(0.06191930762377498,0,0,0.06191930762377498,0,0)" xlink:href="#bu"/><use transform="matrix(0.06191930762377498,0,0,0.06191930762377498,12.383861524754996,0)" xlink:href="#bL"/><use transform="matrix(0.06191930762377498,0,0,0.06191930762377498,24.767723049509993,0)" xlink:href="#bM"/><use transform="matrix(0.06191930762377498,0,0,0.06191930762377498,29.659348351788218,0)" xlink:href="#bn"/><use transform="matrix(0.06191930762377498,0,0,0.06191930762377498,42.043209876543216,0)" xlink:href="#bv"/><use transform="matrix(0.06191930762377498,0,0,0.06191930762377498,53.188685248822715,0)" xlink:href="#bt"/><use transform="matrix(0.06191930762377498,0,0,0.06191930762377498,59.38061601120021,0)" xlink:href="#bm"/></g><g id="Z"><use transform="matrix(0.06191930762377498,0,0,0.06191930762377498,0,0)" xlink:href="#bn"/><use transform="matrix(0.06191930762377498,0,0,0.06191930762377498,12.383861524754996,0)" xlink:href="#bO"/><use transform="matrix(0.06191930762377498,0,0,0.06191930762377498,23.529336897034494,0)" xlink:href="#bG"/><use transform="matrix(0.06191930762377498,0,0,0.06191930762377498,28.42096219931272,0)" xlink:href="#bm"/><use transform="matrix(0.06191930762377498,0,0,0.06191930762377498,39.56643757159222,0)" xlink:href="#bt"/></g><path fill="#333" d="M185-189c-5-48-123-54-124 2 14 75 158 14 163 119 3 78-121 87-175 55-17-10-28-26-33-46l33-7c5 56 141 63 141-1 0-78-155-14-162-118-5-82 145-84 179-34 5 7 8 16 11 25" id="bP"/><g id="aa"><use transform="matrix(0.06191930762377498,0,0,0.06191930762377498,0,0)" xlink:href="#bP"/><use transform="matrix(0.06191930762377498,0,0,0.06191930762377498,14.860633829705996,0)" xlink:href="#bn"/><use transform="matrix(0.06191930762377498,0,0,0.06191930762377498,27.244495354460994,0)" xlink:href="#bq"/><use transform="matrix(0.06191930762377498,0,0,0.06191930762377498,39.62835687921599,0)" xlink:href="#bA"/></g><path fill="#333" d="M153-248C145-148 188 4 80 4 36 3 13-21 6-62l32-5c4 25 16 42 43 43 27 0 39-20 39-49v-147H72v-28h81" id="bQ"/><path fill="#333" d="M190 0L58-211 59 0H30v-248h39L202-35l-2-213h31V0h-41" id="bR"/><g id="ab"><use transform="matrix(0.06191930762377498,0,0,0.06191930762377498,0,0)" xlink:href="#bQ"/><use transform="matrix(0.06191930762377498,0,0,0.06191930762377498,11.145475372279497,0)" xlink:href="#bP"/><use transform="matrix(0.06191930762377498,0,0,0.06191930762377498,26.006109201985495,0)" xlink:href="#bo"/><use transform="matrix(0.06191930762377498,0,0,0.06191930762377498,43.34351533664249,0)" xlink:href="#bR"/></g><g id="ac"><use transform="matrix(0.06191930762377498,0,0,0.06191930762377498,0,0)" xlink:href="#bA"/><use transform="matrix(0.06191930762377498,0,0,0.06191930762377498,12.383861524754996,0)" xlink:href="#bw"/><use transform="matrix(0.06191930762377498,0,0,0.06191930762377498,24.767723049509993,0)" xlink:href="#bt"/><use transform="matrix(0.06191930762377498,0,0,0.06191930762377498,30.95965381188749,0)" xlink:href="#bw"/></g><g id="ad"><use transform="matrix(0.06191930762377498,0,0,0.06191930762377498,0,0)" xlink:href="#bu"/><use transform="matrix(0.06191930762377498,0,0,0.06191930762377498,12.383861524754996,0)" xlink:href="#bC"/><use transform="matrix(0.06191930762377498,0,0,0.06191930762377498,23.529336897034494,0)" xlink:href="#bn"/><use transform="matrix(0.06191930762377498,0,0,0.06191930762377498,35.91319842178949,0)" xlink:href="#by"/></g><path fill="#333" d="M143 0L79-87 56-68V0H24v-261h32v163l83-92h37l-77 82L181 0h-38" id="bS"/><g id="ae"><use transform="matrix(0.06191930762377498,0,0,0.06191930762377498,0,0)" xlink:href="#bJ"/><use transform="matrix(0.06191930762377498,0,0,0.06191930762377498,16.03710067455772,0)" xlink:href="#bn"/><use transform="matrix(0.06191930762377498,0,0,0.06191930762377498,28.42096219931272,0)" xlink:href="#bL"/><use transform="matrix(0.06191930762377498,0,0,0.06191930762377498,40.80482372406772,0)" xlink:href="#bm"/><use transform="matrix(0.06191930762377498,0,0,0.06191930762377498,51.950299096347216,0)" xlink:href="#bu"/><use transform="matrix(0.06191930762377498,0,0,0.06191930762377498,64.33416062110221,0)" xlink:href="#bv"/><use transform="matrix(0.06191930762377498,0,0,0.06191930762377498,75.4796359933817,0)" xlink:href="#bS"/><use transform="matrix(0.06191930762377498,0,0,0.06191930762377498,86.6251113656612,0)" xlink:href="#bn"/><use transform="matrix(0.06191930762377498,0,0,0.06191930762377498,99.00897289041619,0)" xlink:href="#bt"/><use transform="matrix(0.06191930762377498,0,0,0.06191930762377498,105.20090365279368,0)" xlink:href="#bm"/></g><g id="af"><use transform="matrix(0.06191930762377498,0,0,0.06191930762377498,0,0)" xlink:href="#bw"/><use transform="matrix(0.06191930762377498,0,0,0.06191930762377498,12.383861524754996,0)" xlink:href="#bq"/><use transform="matrix(0.06191930762377498,0,0,0.06191930762377498,24.767723049509993,0)" xlink:href="#bA"/></g><g id="ag"><use transform="matrix(0.06191930762377498,0,0,0.06191930762377498,0,0)" xlink:href="#bA"/><use transform="matrix(0.06191930762377498,0,0,0.06191930762377498,12.383861524754996,0)" xlink:href="#bu"/></g><g id="ah"><use transform="matrix(0.06191930762377498,0,0,0.06191930762377498,0,0)" xlink:href="#bm"/><use transform="matrix(0.06191930762377498,0,0,0.06191930762377498,11.145475372279497,0)" xlink:href="#bu"/><use transform="matrix(0.06191930762377498,0,0,0.06191930762377498,23.529336897034494,0)" xlink:href="#bB"/><use transform="matrix(0.06191930762377498,0,0,0.06191930762377498,42.043209876543216,0)" xlink:href="#bn"/></g><g id="ai"><use transform="matrix(0.06191930762377498,0,0,0.06191930762377498,0,0)" xlink:href="#bB"/><use transform="matrix(0.06191930762377498,0,0,0.06191930762377498,18.51387297950872,0)" xlink:href="#bw"/><use transform="matrix(0.06191930762377498,0,0,0.06191930762377498,30.897734504263717,0)" xlink:href="#bH"/><use transform="matrix(0.06191930762377498,0,0,0.06191930762377498,43.281596029018715,0)" xlink:href="#bG"/><use transform="matrix(0.06191930762377498,0,0,0.06191930762377498,48.173221331296936,0)" xlink:href="#bv"/></g><g id="aj"><use transform="matrix(0.06191930762377498,0,0,0.06191930762377498,0,0)" xlink:href="#bu"/><use transform="matrix(0.06191930762377498,0,0,0.06191930762377498,12.383861524754996,0)" xlink:href="#bq"/></g><path fill="#333" d="M33 0v-248h34V0H33" id="bT"/><g id="ak"><use transform="matrix(0.06191930762377498,0,0,0.06191930762377498,0,0)" xlink:href="#bE"/><use transform="matrix(0.06191930762377498,0,0,0.06191930762377498,16.03710067455772,0)" xlink:href="#bu"/><use transform="matrix(0.06191930762377498,0,0,0.06191930762377498,28.42096219931272,0)" xlink:href="#bL"/><use transform="matrix(0.06191930762377498,0,0,0.06191930762377498,40.80482372406772,0)" xlink:href="#bu"/><use transform="matrix(0.06191930762377498,0,0,0.06191930762377498,53.188685248822715,0)" xlink:href="#bE"/><use transform="matrix(0.06191930762377498,0,0,0.06191930762377498,69.22578592338044,0)" xlink:href="#bT"/><use transform="matrix(0.06191930762377498,0,0,0.06191930762377498,75.41771668575794,0)" xlink:href="#bo"/></g><g id="al"><use transform="matrix(0.06191930762377498,0,0,0.06191930762377498,0,0)" xlink:href="#bw"/><use transform="matrix(0.06191930762377498,0,0,0.06191930762377498,12.383861524754996,0)" xlink:href="#bq"/><use transform="matrix(0.06191930762377498,0,0,0.06191930762377498,24.767723049509993,0)" xlink:href="#bA"/></g><path fill="#333" d="M63-70H37l-4-178h34zM33 0v-35h34V0H33" id="bU"/><g id="am"><use transform="matrix(0.06191930762377498,0,0,0.06191930762377498,0,0)" xlink:href="#bA"/><use transform="matrix(0.06191930762377498,0,0,0.06191930762377498,12.383861524754996,0)" xlink:href="#by"/><use transform="matrix(0.06191930762377498,0,0,0.06191930762377498,19.752259131984218,0)" xlink:href="#bG"/><use transform="matrix(0.06191930762377498,0,0,0.06191930762377498,24.64388443426244,0)" xlink:href="#bC"/><use transform="matrix(0.06191930762377498,0,0,0.06191930762377498,35.78935980654194,0)" xlink:href="#bn"/><use transform="matrix(0.06191930762377498,0,0,0.06191930762377498,48.173221331296936,0)" xlink:href="#by"/><use transform="matrix(0.06191930762377498,0,0,0.06191930762377498,55.541618938526156,0)" xlink:href="#bm"/><use transform="matrix(0.06191930762377498,0,0,0.06191930762377498,66.68709431080565,0)" xlink:href="#bt"/><use transform="matrix(0.06191930762377498,0,0,0.06191930762377498,72.87902507318314,0)" xlink:href="#bw"/><use transform="matrix(0.06191930762377498,0,0,0.06191930762377498,85.26288659793813,0)" xlink:href="#bt"/><use transform="matrix(0.06191930762377498,0,0,0.06191930762377498,91.45481736031563,0)" xlink:href="#bG"/><use transform="matrix(0.06191930762377498,0,0,0.06191930762377498,96.34644266259386,0)" xlink:href="#bu"/><use transform="matrix(0.06191930762377498,0,0,0.06191930762377498,108.73030418734885,0)" xlink:href="#bq"/><use transform="matrix(0.06191930762377498,0,0,0.06191930762377498,121.11416571210384,0)" xlink:href="#bU"/></g><path fill="#333" d="M9 0v-24l116-142H16v-24h144v24L44-24h123V0H9" id="bV"/><g id="an"><use transform="matrix(0.06191930762377498,0,0,0.06191930762377498,0,0)" xlink:href="#bo"/><use transform="matrix(0.06191930762377498,0,0,0.06191930762377498,17.337406134656995,0)" xlink:href="#by"/><use transform="matrix(0.06191930762377498,0,0,0.06191930762377498,24.705803741886218,0)" xlink:href="#bH"/><use transform="matrix(0.06191930762377498,0,0,0.06191930762377498,37.08966526664121,0)" xlink:href="#bw"/><use transform="matrix(0.06191930762377498,0,0,0.06191930762377498,49.47352679139621,0)" xlink:href="#bq"/><use transform="matrix(0.06191930762377498,0,0,0.06191930762377498,61.85738831615121,0)" xlink:href="#bG"/><use transform="matrix(0.06191930762377498,0,0,0.06191930762377498,66.74901361842943,0)" xlink:href="#bV"/><use transform="matrix(0.06191930762377498,0,0,0.06191930762377498,77.89448899070892,0)" xlink:href="#bn"/></g><g id="ao"><use transform="matrix(0.06191930762377498,0,0,0.06191930762377498,0,0)" xlink:href="#bu"/><use transform="matrix(0.06191930762377498,0,0,0.06191930762377498,12.383861524754996,0)" xlink:href="#bL"/><use transform="matrix(0.06191930762377498,0,0,0.06191930762377498,24.767723049509993,0)" xlink:href="#bM"/><use transform="matrix(0.06191930762377498,0,0,0.06191930762377498,29.659348351788218,0)" xlink:href="#bn"/><use transform="matrix(0.06191930762377498,0,0,0.06191930762377498,42.043209876543216,0)" xlink:href="#bv"/><use transform="matrix(0.06191930762377498,0,0,0.06191930762377498,53.188685248822715,0)" xlink:href="#bt"/></g><g id="ap"><use transform="matrix(0.06191930762377498,0,0,0.06191930762377498,0,0)" xlink:href="#bA"/><use transform="matrix(0.06191930762377498,0,0,0.06191930762377498,12.383861524754996,0)" xlink:href="#bw"/><use transform="matrix(0.06191930762377498,0,0,0.06191930762377498,24.767723049509993,0)" xlink:href="#bt"/><use transform="matrix(0.06191930762377498,0,0,0.06191930762377498,30.95965381188749,0)" xlink:href="#bw"/></g><g id="aq"><use transform="matrix(0.06191930762377498,0,0,0.06191930762377498,0,0)" xlink:href="#bG"/><use transform="matrix(0.06191930762377498,0,0,0.06191930762377498,4.891625302278223,0)" xlink:href="#bq"/><use transform="matrix(0.06191930762377498,0,0,0.06191930762377498,17.27548682703322,0)" xlink:href="#bt"/><use transform="matrix(0.06191930762377498,0,0,0.06191930762377498,23.46741758941072,0)" xlink:href="#bu"/></g><g id="ar"><use transform="matrix(0.06191930762377498,0,0,0.06191930762377498,0,0)" xlink:href="#bv"/><use transform="matrix(0.06191930762377498,0,0,0.06191930762377498,11.145475372279497,0)" xlink:href="#bw"/><use transform="matrix(0.06191930762377498,0,0,0.06191930762377498,23.529336897034494,0)" xlink:href="#bq"/></g><g id="as"><use transform="matrix(0.06191930762377498,0,0,0.06191930762377498,0,0)" xlink:href="#bL"/><use transform="matrix(0.06191930762377498,0,0,0.06191930762377498,12.383861524754996,0)" xlink:href="#bn"/></g><g id="at"><use transform="matrix(0.06191930762377498,0,0,0.06191930762377498,0,0)" xlink:href="#bm"/><use transform="matrix(0.06191930762377498,0,0,0.06191930762377498,11.145475372279497,0)" xlink:href="#bn"/><use transform="matrix(0.06191930762377498,0,0,0.06191930762377498,23.529336897034494,0)" xlink:href="#bq"/><use transform="matrix(0.06191930762377498,0,0,0.06191930762377498,35.91319842178949,0)" xlink:href="#bt"/></g><path fill="#333" d="M266 0h-40l-56-210L115 0H75L2-248h35L96-30l15-64 43-154h32l59 218 59-218h35" id="bW"/><g id="au"><use transform="matrix(0.06191930762377498,0,0,0.06191930762377498,0,0)" xlink:href="#bW"/><use transform="matrix(0.06191930762377498,0,0,0.06191930762377498,20.557210131093296,0)" xlink:href="#bn"/><use transform="matrix(0.06191930762377498,0,0,0.06191930762377498,32.94107165584829,0)" xlink:href="#bL"/><use transform="matrix(0.06191930762377498,0,0,0.06191930762377498,45.32493318060329,0)" xlink:href="#bm"/><use transform="matrix(0.06191930762377498,0,0,0.06191930762377498,56.47040855288279,0)" xlink:href="#bu"/><use transform="matrix(0.06191930762377498,0,0,0.06191930762377498,68.85427007763778,0)" xlink:href="#bv"/><use transform="matrix(0.06191930762377498,0,0,0.06191930762377498,79.99974544991727,0)" xlink:href="#bS"/><use transform="matrix(0.06191930762377498,0,0,0.06191930762377498,91.14522082219676,0)" xlink:href="#bn"/><use transform="matrix(0.06191930762377498,0,0,0.06191930762377498,103.52908234695175,0)" xlink:href="#bt"/><use transform="matrix(0.06191930762377498,0,0,0.06191930762377498,109.72101310932925,0)" xlink:href="#bm"/></g><g id="av"><use transform="matrix(0.06191930762377498,0,0,0.06191930762377498,0,0)" xlink:href="#bl"/><use transform="matrix(0.06191930762377498,0,0,0.06191930762377498,16.03710067455772,0)" xlink:href="#bm"/><use transform="matrix(0.06191930762377498,0,0,0.06191930762377498,27.18257604683722,0)" xlink:href="#bn"/></g><path fill="#333" d="M240 0l2-218c-23 76-54 145-80 218h-23L58-218 59 0H30v-248h44l77 211c21-75 51-140 76-211h43V0h-30" id="bX"/><g id="aw"><use transform="matrix(0.06191930762377498,0,0,0.06191930762377498,0,0)" xlink:href="#bX"/><use transform="matrix(0.06191930762377498,0,0,0.06191930762377498,18.51387297950872,0)" xlink:href="#bK"/></g><g id="ax"><use transform="matrix(0.06191930762377498,0,0,0.06191930762377498,0,0)" xlink:href="#bL"/><use transform="matrix(0.06191930762377498,0,0,0.06191930762377498,12.383861524754996,0)" xlink:href="#bu"/><use transform="matrix(0.06191930762377498,0,0,0.06191930762377498,24.767723049509993,0)" xlink:href="#bx"/><use transform="matrix(0.06191930762377498,0,0,0.06191930762377498,37.15158457426499,0)" xlink:href="#bq"/><use transform="matrix(0.06191930762377498,0,0,0.06191930762377498,49.535446099019985,0)" xlink:href="#bA"/><use transform="matrix(0.06191930762377498,0,0,0.06191930762377498,61.91930762377498,0)" xlink:href="#bG"/><use transform="matrix(0.06191930762377498,0,0,0.06191930762377498,66.81093292605321,0)" xlink:href="#bq"/><use transform="matrix(0.06191930762377498,0,0,0.06191930762377498,79.1947944508082,0)" xlink:href="#bH"/></g><g id="ay"><use transform="matrix(0.06191930762377498,0,0,0.06191930762377498,0,0)" xlink:href="#bL"/><use transform="matrix(0.06191930762377498,0,0,0.06191930762377498,12.383861524754996,0)" xlink:href="#bu"/><use transform="matrix(0.06191930762377498,0,0,0.06191930762377498,24.767723049509993,0)" xlink:href="#bO"/><use transform="matrix(0.06191930762377498,0,0,0.06191930762377498,35.91319842178949,0)" xlink:href="#bn"/><use transform="matrix(0.06191930762377498,0,0,0.06191930762377498,48.297059946544486,0)" xlink:href="#bm"/></g><g id="az"><use transform="matrix(0.06191930762377498,0,0,0.06191930762377498,0,0)" xlink:href="#by"/><use transform="matrix(0.06191930762377498,0,0,0.06191930762377498,7.368397607229223,0)" xlink:href="#bn"/><use transform="matrix(0.06191930762377498,0,0,0.06191930762377498,19.752259131984218,0)" xlink:href="#bH"/><use transform="matrix(0.06191930762377498,0,0,0.06191930762377498,32.136120656739216,0)" xlink:href="#bG"/><use transform="matrix(0.06191930762377498,0,0,0.06191930762377498,37.02774595901744,0)" xlink:href="#bu"/><use transform="matrix(0.06191930762377498,0,0,0.06191930762377498,49.411607483772436,0)" xlink:href="#bq"/><use transform="matrix(0.06191930762377498,0,0,0.06191930762377498,61.795469008527434,0)" xlink:href="#bw"/><use transform="matrix(0.06191930762377498,0,0,0.06191930762377498,74.17933053328242,0)" xlink:href="#bD"/><use transform="matrix(0.06191930762377498,0,0,0.06191930762377498,79.07095583556065,0)" xlink:href="#bG"/><use transform="matrix(0.06191930762377498,0,0,0.06191930762377498,83.96258113783888,0)" xlink:href="#bV"/><use transform="matrix(0.06191930762377498,0,0,0.06191930762377498,95.10805651011837,0)" xlink:href="#bn"/></g><g id="aA"><use transform="matrix(0.06191930762377498,0,0,0.06191930762377498,0,0)" xlink:href="#bw"/><use transform="matrix(0.06191930762377498,0,0,0.06191930762377498,12.383861524754996,0)" xlink:href="#by"/><use transform="matrix(0.06191930762377498,0,0,0.06191930762377498,19.752259131984218,0)" xlink:href="#bn"/><use transform="matrix(0.06191930762377498,0,0,0.06191930762377498,32.136120656739216,0)" xlink:href="#bw"/><use transform="matrix(0.06191930762377498,0,0,0.06191930762377498,44.519982181494214,0)" xlink:href="#bm"/></g><g id="aB"><use transform="matrix(0.06191930762377498,0,0,0.06191930762377498,0,0)" xlink:href="#bG"/><use transform="matrix(0.06191930762377498,0,0,0.06191930762377498,4.891625302278223,0)" xlink:href="#bq"/></g><g id="aC"><use transform="matrix(0.06191930762377498,0,0,0.06191930762377498,0,0)" xlink:href="#bz"/><use transform="matrix(0.06191930762377498,0,0,0.06191930762377498,6.191930762377498,0)" xlink:href="#by"/><use transform="matrix(0.06191930762377498,0,0,0.06191930762377498,13.560328369606722,0)" xlink:href="#bw"/><use transform="matrix(0.06191930762377498,0,0,0.06191930762377498,25.94418989436172,0)" xlink:href="#bB"/><use transform="matrix(0.06191930762377498,0,0,0.06191930762377498,44.45806287387044,0)" xlink:href="#bn"/></g><g id="aD"><use transform="matrix(0.06191930762377498,0,0,0.06191930762377498,0,0)" xlink:href="#bm"/><use transform="matrix(0.06191930762377498,0,0,0.06191930762377498,11.145475372279497,0)" xlink:href="#bn"/><use transform="matrix(0.06191930762377498,0,0,0.06191930762377498,23.529336897034494,0)" xlink:href="#bw"/><use transform="matrix(0.06191930762377498,0,0,0.06191930762377498,35.91319842178949,0)" xlink:href="#by"/><use transform="matrix(0.06191930762377498,0,0,0.06191930762377498,43.281596029018715,0)" xlink:href="#bv"/><use transform="matrix(0.06191930762377498,0,0,0.06191930762377498,54.427071401298214,0)" xlink:href="#bF"/></g><g id="aE"><use transform="matrix(0.06191930762377498,0,0,0.06191930762377498,0,0)" xlink:href="#bz"/><use transform="matrix(0.06191930762377498,0,0,0.06191930762377498,6.191930762377498,0)" xlink:href="#bu"/><use transform="matrix(0.06191930762377498,0,0,0.06191930762377498,18.575792287132494,0)" xlink:href="#by"/></g><g id="aF"><use transform="matrix(0.06191930762377498,0,0,0.06191930762377498,0,0)" xlink:href="#bn"/><use transform="matrix(0.06191930762377498,0,0,0.06191930762377498,12.383861524754996,0)" xlink:href="#bO"/><use transform="matrix(0.06191930762377498,0,0,0.06191930762377498,23.529336897034494,0)" xlink:href="#bw"/><use transform="matrix(0.06191930762377498,0,0,0.06191930762377498,35.91319842178949,0)" xlink:href="#bv"/><use transform="matrix(0.06191930762377498,0,0,0.06191930762377498,47.05867379406899,0)" xlink:href="#bt"/></g><g id="aG"><use transform="matrix(0.06191930762377498,0,0,0.06191930762377498,0,0)" xlink:href="#bu"/><use transform="matrix(0.06191930762377498,0,0,0.06191930762377498,12.383861524754996,0)" xlink:href="#bz"/></g><g id="aH"><use transform="matrix(0.06191930762377498,0,0,0.06191930762377498,0,0)" xlink:href="#bu"/><use transform="matrix(0.06191930762377498,0,0,0.06191930762377498,12.383861524754996,0)" xlink:href="#bL"/><use transform="matrix(0.06191930762377498,0,0,0.06191930762377498,24.767723049509993,0)" xlink:href="#bM"/><use transform="matrix(0.06191930762377498,0,0,0.06191930762377498,29.659348351788218,0)" xlink:href="#bn"/><use transform="matrix(0.06191930762377498,0,0,0.06191930762377498,42.043209876543216,0)" xlink:href="#bv"/><use transform="matrix(0.06191930762377498,0,0,0.06191930762377498,53.188685248822715,0)" xlink:href="#bt"/><use transform="matrix(0.06191930762377498,0,0,0.06191930762377498,59.38061601120021,0)" xlink:href="#bm"/></g></defs></g></svg>