<?xml version="1.0" encoding="UTF-8" standalone="no"?>
<!-- Created with Inkscape (http://www.inkscape.org/) -->

<svg
   width="127.89255mm"
   height="64.029182mm"
   viewBox="0 0 127.89255 64.029182"
   version="1.1"
   id="svg16999"
   inkscape:version="1.1.1 (3bf5ae0d25, 2021-09-20)"
   sodipodi:docname="2601Hawk.svg"
   xmlns:inkscape="http://www.inkscape.org/namespaces/inkscape"
   xmlns:sodipodi="http://sodipodi.sourceforge.net/DTD/sodipodi-0.dtd"
   xmlns="http://www.w3.org/2000/svg"
   xmlns:svg="http://www.w3.org/2000/svg">
  <sodipodi:namedview
     id="namedview17001"
     pagecolor="#ffffff"
     bordercolor="#666666"
     borderopacity="1.0"
     inkscape:pageshadow="2"
     inkscape:pageopacity="0.0"
     inkscape:pagecheckerboard="0"
     inkscape:document-units="mm"
     showgrid="false"
     inkscape:zoom="1.0381216"
     inkscape:cx="286.09364"
     inkscape:cy="10.114422"
     inkscape:window-width="1920"
     inkscape:window-height="1009"
     inkscape:window-x="-8"
     inkscape:window-y="-8"
     inkscape:window-maximized="1"
     inkscape:current-layer="layer1"
     fit-margin-top="0"
     fit-margin-left="0"
     fit-margin-right="0"
     fit-margin-bottom="0" />
  <defs
     id="defs16996" />
  <g
     inkscape:label="Layer 1"
     inkscape:groupmode="layer"
     id="layer1"
     transform="translate(147.20719,-117.20629)">
    <path
       style="fill:#000000;fill-opacity:1;stroke:#000000;stroke-width:0.264583px;stroke-linecap:butt;stroke-linejoin:miter;stroke-opacity:1"
       d="M -108.00005,147.56821 -96.451395,146.31041 -88.18411,147.24962 -77.543397,147.1859 -72.764633,145.84785 -64.226577,148.39652 -64.800029,132.72218 -77.288529,132.21245 -85.826586,131.95758 -93.345173,133.35935 -102.64783,132.65846 -111.56819,134.12395 Z"
       id="path877" />
    <path
       style="fill:#ffffff;fill-opacity:1;stroke-width:0.264583"
       d="M -85.111136,180.64011 C -87.134796,176.87567 -88.781046,173.17304 -89.022606,171.84272 -89.181136,170.96959 -89.528376,169.95756 -89.794246,169.59376 -92.070206,166.47942 -93.540976,163.56373 -93.540976,162.16619 -93.540976,161.49202 -93.614576,161.53131 -97.797556,164.43987 -99.597826,165.69164 -101.11344,166.58784 -101.16558,166.43141 -101.21768,166.27499 -100.13713,164.57105 -98.764256,162.64486 -97.391386,160.71868 -96.113036,158.84951 -95.923476,158.49115 L -95.578816,157.83958 -96.291116,158.3063 C -96.682886,158.563 -97.976676,159.55241 -99.166216,160.505 -100.44583,161.52972 -101.3725,162.10649 -101.43552,161.91742 -101.49412,161.74167 -100.09899,158.76572 -98.335256,155.3042 -95.779766,150.28876 -95.128476,148.79007 -95.128476,147.92506 -95.128476,147.19474 -95.244366,146.83959 -95.482666,146.83959 -95.677466,146.83959 -97.042676,147.42927 -98.516456,148.14998 -100.5023,149.1211 -101.90053,149.59661 -103.91696,149.98657 -108.17947,150.81089 -111.5333,151.54464 -115.57678,152.53749 -119.293,153.44999 -121.05765,153.66876 -121.05765,153.217 -121.05765,153.08656 -120.62843,152.60296 -120.10382,152.14236 -119.57922,151.68175 -119.19737,151.25751 -119.25527,151.19961 -119.31317,151.14171 -120.29088,151.38976 -121.42794,151.75084 -123.98456,152.56272 -127.54339,152.9354 -127.35547,152.37156 -127.28717,152.16664 -126.52783,151.58225 -125.66804,151.07293 L -124.10479,150.14688 -128.52153,150.01459 C -133.5547,149.86384 -134.36652,149.59069 -132.41407,148.70492 -131.45044,148.26774 -131.36076,148.1723 -131.90556,148.16373 -133.24155,148.14273 -136.2031,147.37224 -137.11557,146.8083 L -138.05427,146.22815 -137.4653,145.78389 -136.87632,145.33962 -137.70906,144.99469 C -139.77025,144.14092 -140.50863,142.89328 -138.98317,142.84185 -138.21667,142.81605 -138.25198,142.78765 -139.30823,142.58074 -140.49423,142.34842 -142.58157,141.0699 -142.53465,140.60452 -142.52095,140.46855 -142.11808,140.28838 -141.63941,140.20413 -140.8968,140.07344 -140.84675,140.02162 -141.29827,139.85097 -143.10296,139.16891 -143.85394,138.75479 -144.48991,138.09098 L -145.20675,137.34275 -144.44314,137.17324 C -144.02315,137.08004 -143.56046,136.9734 -143.41494,136.93634 -143.26942,136.89924 -143.64139,136.61726 -144.24155,136.30963 -145.42853,135.7012 -146.81606,134.24088 -146.57609,133.85261 -146.37381,133.5253 -145.09031,133.54737 -143.68039,133.90241 -141.88476,134.35456 -141.67871,134.03319 -143.25108,133.23282 -145.12641,132.27823 -147.31617,130.10228 -147.20298,129.30584 -147.13168,128.80387 -146.98239,128.72917 -146.20443,128.80606 -145.70135,128.85576 -144.48394,129.30227 -143.49905,129.79825 -141.18743,130.96236 -140.80326,130.93799 -142.07426,129.70785 -143.52268,128.306 -144.72972,125.62073 -144.1652,125.0562 -144.0685,124.9595 -142.86771,125.48512 -141.49673,126.22419 -140.12575,126.96327 -138.9422,127.50612 -138.8666,127.43052 -138.73745,127.30137 -139.83748,126.24558 -141.2991,125.09586 -141.65544,124.81557 -142.08433,124.12786 -142.25218,123.56762 -142.56746,122.51529 -142.39633,120.78342 -141.9498,120.50744 -141.81009,120.42114 -141.05543,121.042 -140.27279,121.88722 -138.80277,123.47479 -135.97883,125.60108 -135.70459,125.32685 -135.61899,125.24125 -135.93026,124.25522 -136.39632,123.1357 -137.26183,121.05665 -137.83587,117.20629 -137.28032,117.20629 -136.98944,117.20629 -133.1246,121.13421 -131.03365,123.55492 -127.31188,127.86364 -121.97589,130.16038 -112.3264,131.60699 -110.60223,131.86547 -107.22425,131.992 -101.57016,132.00989 L -93.327456,132.03599 -91.912866,130.72502 -90.498266,129.41406 -91.053646,128.84758 C -91.601166,128.28911 -93.082426,127.80829 -94.293356,127.79596 -94.694156,127.79196 -94.962366,127.97677 -95.051816,128.31881 -95.376176,129.55914 -96.451396,128.19976 -96.451396,126.54934 -96.451396,125.06413 -95.331726,123.73715 -93.739636,123.33549 -92.970056,123.14133 -92.239006,122.66522 -91.424316,121.82759 -90.769466,121.15431 -89.912176,120.4344 -89.519226,120.22779 -88.416146,119.64781 -85.470746,119.7411 -84.111556,120.39907 -82.723406,121.07106 -80.322856,123.61507 -79.603386,125.17665 -79.309996,125.81343 -78.677086,127.19723 -78.196916,128.25178 -77.392876,130.01758 -77.217136,130.21883 -75.973566,130.79788 -73.322076,132.03253 -72.224706,132.15522 -63.907646,132.14692 -57.053506,132.13992 -55.683326,132.06702 -52.662856,131.54766 -47.642166,130.68432 -46.875746,130.48213 -43.672366,129.17593 -40.237936,127.7755 -38.070986,126.37308 -36.258686,124.37788 -32.746686,120.51143 -29.562446,117.40836 -29.283656,117.58066 -28.791366,117.88492 -29.227456,120.53394 -30.199866,123.14635 -30.684696,124.44884 -31.031366,125.56453 -30.970236,125.62566 -30.738696,125.8572 -27.363706,123.22112 -26.278886,121.96142 -25.655906,121.23802 -25.011246,120.64608 -24.846316,120.64601 -24.243636,120.64575 -23.990136,123.16131 -24.497346,124.10904 -24.761286,124.60222 -26.661926,126.46258 -27.610386,127.15611 -27.855346,127.33523 -27.974826,127.56273 -27.875896,127.66166 -27.776996,127.76056 -26.738626,127.30314 -25.568486,126.6451 -22.620386,124.98721 -22.368066,124.92511 -22.368066,125.85749 -22.368066,126.87734 -23.255856,128.48642 -24.565436,129.84015 -25.163726,130.45862 -25.559616,130.96463 -25.445186,130.96463 -25.330766,130.96463 -24.356046,130.54085 -23.279166,130.02289 -21.222736,129.03378 -19.625736,128.62653 -19.377646,129.02795 -18.875626,129.84023 -21.473456,132.58067 -23.631946,133.5158 -24.797256,134.02065 -25.189496,134.59915 -24.154006,134.28577 -23.049126,133.95138 -19.986816,133.79165 -19.986816,134.0684 -19.986816,134.59227 -21.115946,135.7525 -22.128496,136.26906 -23.302526,136.86801 -23.468046,137.31463 -22.515976,137.31463 -22.160756,137.31463 -21.807246,137.41639 -21.730376,137.54076 -21.502156,137.91003 -22.816926,138.9695 -24.295956,139.60816 -25.054626,139.93576 -25.489756,140.20858 -25.262906,140.21442 -25.036056,140.22042 -24.638456,140.38007 -24.379336,140.56954 -23.946516,140.88602 -23.997086,140.9756 -25.001426,141.67162 -25.602696,142.08829 -26.655146,142.58008 -27.340206,142.76448 -28.502436,143.07732 -28.526946,143.10095 -27.706476,143.11761 -26.430416,143.14351 -26.692436,143.84484 -28.350076,144.84022 -29.666966,145.63098 -29.687296,145.66185 -29.160116,146.06959 -28.635696,146.4752 -28.664516,146.50993 -30.114136,147.21916 -31.077746,147.69062 -32.294006,148.02071 -33.536926,148.14811 L -35.464936,148.34574 -34.340456,148.82344 C -32.133466,149.76103 -32.987296,150.05775 -38.355026,150.21856 L -42.568026,150.34477 -40.934706,151.26216 C -39.242636,152.21257 -39.013636,152.49343 -39.712256,152.76151 -40.322356,152.99563 -43.693716,152.46525 -45.602156,151.83492 -46.520956,151.53145 -47.332836,151.3433 -47.406346,151.4168 -47.479846,151.4903 -47.115056,151.8895 -46.595706,152.30389 -44.475446,153.99565 -45.819446,154.08639 -51.442056,152.6311 -54.675346,151.79423 -57.633166,151.14925 -62.452436,150.2302 -64.624526,149.81598 -65.953066,149.3805 -67.689416,148.51358 -70.280146,147.22009 -72.890976,146.44814 -73.855916,146.69032 -74.394866,146.82559 -74.490976,147.0111 -74.490976,147.91607 -74.490976,148.7527 -73.778206,150.4046 -71.182366,155.58395 -69.362626,159.21478 -68.009796,162.18547 -68.176086,162.18547 -68.342366,162.18547 -69.542706,161.34479 -70.843506,160.3173 -72.144316,159.28981 -73.407526,158.3728 -73.650646,158.27951 -74.194246,158.07091 -74.212706,158.04133 -70.823726,162.80993 -68.560686,165.99423 -68.160066,166.68338 -68.571966,166.68338 -68.746636,166.68338 -71.619446,164.76797 -74.424836,162.78105 -75.976906,161.68179 -76.078476,161.64676 -76.078476,162.21077 -76.078476,163.77776 -77.367346,166.41798 -79.811796,169.85838 -80.070276,170.22218 -80.400726,171.18918 -80.546116,172.00726 -80.763906,173.23267 -84.368426,181.23547 -84.702586,181.23547 -84.751286,181.23547 -84.935126,180.96758 -85.111136,180.64015 Z M -96.451396,145.39253 V 144.47463 L -99.608106,144.40033 -102.76482,144.32603 -100.36171,141.6802 C -97.159126,138.15414 -96.559446,136.70895 -97.539216,134.87823 -98.396126,133.27708 -101.56943,132.83896 -104.02575,133.98267 -105.64118,134.73485 -105.88056,135.04969 -105.44945,135.85521 L -105.12468,136.46206 -103.67159,135.69769 C -102.04118,134.84005 -101.26563,134.75616 -100.17606,135.3196 -98.392836,136.24174 -98.916576,137.53862 -102.76183,141.72242 -104.94215,144.0947 -105.71182,145.11193 -105.71182,145.62127 V 146.31041 H -101.08161 -96.451396 Z M -86.931666,145.847 C -85.526906,145.14122 -84.809536,143.87526 -84.810716,142.10411 -84.812716,139.29099 -86.283866,137.97209 -89.212136,138.15855 -90.617916,138.24805 -91.013816,138.38761 -91.684306,139.02999 L -92.482646,139.79484 V 138.80876 C -92.482646,137.4938 -91.601736,135.83243 -90.641106,135.33567 -89.674316,134.83572 -87.979706,134.81779 -86.836606,135.29537 -86.002186,135.64401 -85.954336,135.63001 -85.545606,134.91785 L -85.121146,134.17827 -86.161416,133.76204 C -86.733566,133.53311 -87.918396,133.3458 -88.794376,133.3458 -91.717056,133.3458 -93.436126,134.77143 -94.224586,137.84907 -95.118156,141.33704 -93.951976,144.87226 -91.556606,145.93689 -90.413546,146.44492 -88.029586,146.39857 -86.931666,145.84699 Z M -90.769266,144.36586 C -92.178906,143.73005 -92.636396,141.88653 -91.684756,140.67672 -90.561026,139.24812 -88.025956,139.18892 -87.059506,140.56871 -86.459246,141.42571 -86.555326,142.9858 -87.257126,143.77741 -87.991606,144.60588 -89.628916,144.88021 -90.769266,144.36586 Z M -74.731026,145.69474 C -73.834226,145.22124 -73.390296,144.73841 -72.808676,143.60394 -72.134026,142.28801 -72.055716,141.87619 -72.083036,139.78785 -72.109036,137.80297 -72.224026,137.22553 -72.839296,135.99168 -73.857516,133.94973 -75.193816,133.26383 -77.852486,133.41851 -79.431966,133.51041 -79.924986,133.65619 -80.728196,134.26883 -81.261376,134.6755 -81.922256,135.51608 -82.196816,136.13677 -83.250936,138.51977 -83.070636,142.35444 -81.815666,144.24359 -80.493316,146.23414 -77.077726,146.93377 -74.731026,145.69474 Z M -79.465426,144.06516 C -81.335036,142.49198 -81.326086,137.15675 -79.451226,135.57913 -78.441826,134.72978 -76.472686,134.67943 -75.458676,135.47705 -74.670786,136.0968 -73.961856,138.15758 -73.961856,139.82813 -73.961856,141.49869 -74.670786,143.55947 -75.458676,144.17922 -76.479806,144.98245 -78.441706,144.92659 -79.465466,144.06516 Z M -66.024316,139.82813 V 133.34584 H -68.273276 -70.522226 V 134.27188 C -70.522226,135.19303 -70.516226,135.19793 -69.331606,135.19793 H -68.140976 V 140.75418 146.31043 H -67.082646 -66.024316 Z"
       id="path16833" />
  </g>
</svg>
