<?xml version="1.0" encoding="UTF-8" standalone="no"?>
<!-- Created with Inkscape (http://www.inkscape.org/) -->

<svg
   width="1999.9999"
   height="233.60141"
   viewBox="0 0 529.16664 61.807042"
   version="1.1"
   id="svg5"
   inkscape:version="1.1.2 (b8e25be833, 2022-02-05)"
   sodipodi:docname="hawkAndText.svg"
   xmlns:inkscape="http://www.inkscape.org/namespaces/inkscape"
   xmlns:sodipodi="http://sodipodi.sourceforge.net/DTD/sodipodi-0.dtd"
   xmlns="http://www.w3.org/2000/svg"
   xmlns:svg="http://www.w3.org/2000/svg">
  <sodipodi:namedview
     id="namedview7"
     pagecolor="#ffffff"
     bordercolor="#666666"
     borderopacity="1.0"
     inkscape:pageshadow="2"
     inkscape:pageopacity="0.0"
     inkscape:pagecheckerboard="0"
     inkscape:document-units="px"
     showgrid="false"
     inkscape:snap-global="false"
     inkscape:zoom="0.24364829"
     inkscape:cx="991.18282"
     inkscape:cy="632.05861"
     inkscape:window-width="1366"
     inkscape:window-height="697"
     inkscape:window-x="-8"
     inkscape:window-y="-8"
     inkscape:window-maximized="1"
     inkscape:current-layer="text1972"
     fit-margin-top="0"
     fit-margin-left="0"
     fit-margin-right="0"
     fit-margin-bottom="0"
     units="px" />
  <defs
     id="defs2" />
  <g
     inkscape:label="Layer 1"
     inkscape:groupmode="layer"
     id="layer1"
     transform="translate(-67.177592,-85.740972)">
    <g
       id="g944"
       transform="matrix(1.7921736,0,0,1.7921736,146.73107,-44.567782)"
       style="fill:#ffffff;fill-opacity:1;stroke-width:0.299656">
      <g
         aria-label="STEEL HAWKS"
         transform="matrix(0.85363027,0,0,0.85363027,-470.94265,-445.2276)"
         id="text1972"
         style="font-size:39.9999px;line-height:1.25;font-family:Cinzel;-inkscape-font-specification:Cinzel;baseline-shift:baseline;opacity:1;vector-effect:none;stroke-width:0.299655;stop-color:#000000;stop-opacity:1">
        <g
           id="g878">
          <path
             id="path16833"
             style="fill:#ffffff;fill-opacity:1;stroke-width:0.0427204"
             d="M -39.038302,72.709955 C -39.337764,72.709955 -39.028502,74.784075 -38.561974,75.903875 -38.310751,76.506875 -38.142848,77.037925 -38.188989,77.084025 -38.336815,77.231735 -39.859019,76.086515 -40.651413,75.231415 -41.073285,74.776165 -41.480015,74.441765 -41.555323,74.488265 -41.796019,74.636905 -41.888226,75.569495 -41.718278,76.136295 -41.627798,76.438055 -41.396704,76.808645 -41.204623,76.959615 -40.416757,77.578875 -39.823849,78.147585 -39.893465,78.217155 -39.934215,78.257955 -40.572301,77.965315 -41.311309,77.567245 -42.050318,77.169155 -42.697362,76.886105 -42.749487,76.938185 -43.053785,77.242245 -42.403207,78.688435 -41.622454,79.443505 -40.937339,80.106085 -41.144383,80.119235 -42.390431,79.492305 -42.921322,79.225165 -43.577487,78.984665 -43.848665,78.957905 -44.268013,78.916405 -44.348678,78.957015 -44.387111,79.227325 -44.448131,79.656295 -43.267596,80.828245 -42.256725,81.342415 -41.40916,81.773515 -41.520293,81.946395 -42.488203,81.702865 -43.248201,81.511625 -43.940188,81.499845 -44.049224,81.676165 -44.178572,81.885295 -43.430539,82.671965 -42.790714,82.999665 -42.467205,83.165355 -42.266586,83.317045 -42.345026,83.337015 -42.423466,83.357015 -42.672961,83.414515 -42.89935,83.464735 L -43.311054,83.555935 -42.924698,83.958955 C -42.581888,84.316495 -42.176858,84.539605 -41.204066,84.906975 -40.960679,84.998875 -40.987896,85.026665 -41.38819,85.097085 -41.646211,85.142485 -41.863262,85.239545 -41.870648,85.312805 -41.895938,85.563455 -40.770927,86.252035 -40.13163,86.377165 -39.562272,86.488525 -39.542969,86.503855 -39.95614,86.517725 -40.778419,86.545425 -40.380559,87.217425 -39.269503,87.677285 L -38.820473,87.863205 -39.138026,88.102305 -39.455578,88.341675 -38.949444,88.654245 C -38.457589,88.957995 -36.861202,89.373025 -36.141056,89.384325 -35.847388,89.388325 -35.895722,89.440325 -36.415152,89.675735 -37.467595,90.152835 -37.030139,90.299855 -34.317078,90.381065 L -31.936271,90.452265 -32.778898,90.951055 C -33.242356,91.225385 -33.651842,91.540145 -33.688659,91.650515 -33.789954,91.954215 -31.871468,91.753565 -30.493357,91.316245 -29.88044,91.121745 -29.353523,90.988345 -29.322312,91.019525 -29.291102,91.050825 -29.49692,91.279125 -29.779699,91.527205 -30.062484,91.775305 -30.293633,92.035615 -30.293633,92.105885 -30.293633,92.349205 -29.342459,92.231695 -27.339281,91.740145 -25.159699,91.205375 -23.351898,90.809985 -21.05425,90.365985 -19.967321,90.155955 -19.213794,89.899835 -18.143353,89.376775 -17.348932,88.988595 -16.612962,88.670905 -16.507958,88.670905 -16.379513,88.670905 -16.316869,88.862335 -16.316869,89.255705 -16.316869,89.721605 -16.668079,90.528695 -18.045579,93.230085 -18.996297,95.094535 -19.748217,96.697605 -19.71663,96.792255 -19.68267,96.894125 -19.183256,96.583505 -18.493496,96.031565 -17.852291,95.518485 -17.154797,94.985495 -16.943618,94.847225 L -16.559769,94.595905 -16.745566,94.946875 C -16.847737,95.139905 -17.536754,96.146415 -18.27678,97.183895 -19.01681,98.221375 -19.599308,99.139285 -19.571226,99.223535 -19.543116,99.307735 -18.726017,98.825055 -17.755605,98.150825 -15.500826,96.584235 -15.461149,96.563025 -15.461149,96.926135 -15.461149,97.678875 -14.668452,99.249255 -13.441627,100.92669 -13.298309,101.12264 -13.111197,101.66774 -13.025745,102.13802 -12.895535,102.85454 -12.00819,104.84886 -10.917363,106.87645 -10.822493,107.0528 -10.723277,107.19709 -10.697028,107.19709 -10.516902,107.19709 -8.5740087,102.88684 -8.4566117,102.22681 -8.3782517,101.78617 -8.2001147,101.26515 -8.0607857,101.0692 -6.7431367,99.216135 -6.0482267,97.794085 -6.0482267,96.950085 -6.0482267,96.646295 -5.9934767,96.665285 -5.1568497,97.257365 -3.6446447,98.327555 -2.0960927,99.359095 -2.0019387,99.359095 -1.7799117,99.359095 -1.9960387,98.988065 -3.2158827,97.272955 -5.0426647,94.704515 -5.0325967,94.720405 -4.7395767,94.832765 -4.6085197,94.882965 -3.9276507,95.376825 -3.2264667,95.930245 -2.5252877,96.483665 -1.8781977,96.936445 -1.7885677,96.936445 -1.6989377,96.936445 -2.4282917,95.336575 -3.4091987,93.380945 -4.8084507,90.591265 -5.1925067,89.701575 -5.1925067,89.250965 -5.1925067,88.763525 -5.1409467,88.663615 -4.8504417,88.590745 -4.3303027,88.460255 -2.9229447,88.876015 -1.5264467,89.572725 -0.59049171,90.039665 0.12587029,90.274255 1.2967053,90.497365 3.8944633,90.992375 5.4887333,91.339765 7.2315893,91.790525 10.262386,92.574365 10.986787,92.525265 9.8438783,91.614055 9.5639283,91.390855 9.3672053,91.176025 9.4068253,91.136435 9.4464353,91.096935 9.8842703,91.198135 10.379532,91.361605 11.408253,91.701105 13.225357,91.986765 13.554214,91.860665 13.930811,91.716325 13.807528,91.565115 12.895449,91.053205 L 12.014931,90.558875 14.285986,90.490975 C 17.179392,90.404475 17.639732,90.244465 16.450072,89.739465 L 15.843949,89.482285 16.882962,89.376025 C 17.552932,89.307425 18.208682,89.129495 18.728102,88.875575 19.509502,88.493575 19.524992,88.474725 19.242302,88.256275 18.958132,88.036645 18.969232,88.020005 19.679092,87.594105 20.572612,87.057965 20.713732,86.680355 20.025892,86.666395 19.583632,86.657395 19.596902,86.644795 20.223382,86.476305 20.592662,86.377005 21.160022,86.112035 21.484122,85.887595 22.025492,85.512725 22.052532,85.464375 21.819222,85.293915 21.679532,85.191885 21.465452,85.105935 21.343162,85.102685 21.220862,85.099685 21.455412,84.952655 21.864342,84.776195 22.661612,84.432215 23.370392,83.861475 23.247372,83.662575 23.205872,83.595575 23.015162,83.540695 22.823692,83.540695 22.310482,83.540695 22.399762,83.300235 23.032602,82.977625 23.578402,82.699395 24.187212,82.074615 24.187212,81.792465 24.187212,81.643405 22.536532,81.729265 21.940962,81.909385 21.382782,82.078175 21.594142,81.766625 22.222302,81.494655 23.385792,80.990975 24.785972,79.515085 24.515342,79.077575 24.381642,78.861365 23.520752,79.080575 22.412262,79.613365 21.831782,79.892335 21.306522,80.120495 21.244842,80.120495 21.183142,80.120495 21.396442,79.847955 21.718942,79.514835 22.424852,78.785695 22.903632,77.919265 22.903632,77.369965 22.903632,76.867755 22.767452,76.901185 21.178282,77.794145 20.547532,78.148575 19.987842,78.394905 19.934522,78.341645 19.881222,78.288345 19.946122,78.165905 20.077702,78.069425 20.588962,77.695875 21.613442,76.693705 21.755722,76.428055 22.029122,75.917595 21.892492,74.562775 21.567692,74.562915 21.478792,74.562965 21.131352,74.881665 20.795552,75.271285 20.210792,75.949795 18.391352,77.369695 18.266542,77.244995 18.233642,77.212095 18.420522,76.611055 18.681872,75.909515 19.206042,74.502435 19.441102,73.075695 19.175742,72.911835 19.025472,72.819035 17.309192,74.490255 15.416089,76.572805 14.439199,77.647445 13.270945,78.402865 11.419666,79.157175 9.6929303,79.860715 9.2799903,79.969735 6.5736563,80.434745 4.9455123,80.714475 4.2069283,80.753555 0.51230029,80.757345 -3.9708977,80.761345 -4.5624227,80.695845 -5.9916737,80.030875 -6.6620027,79.718985 -6.7568877,79.610595 -7.1902947,78.659495 -7.4491237,78.091495 -7.7903717,77.346085 -7.9485217,77.003115 -8.3363417,76.162015 -9.6300907,74.791825 -10.378355,74.429875 -11.111008,74.075485 -12.69883,74.025075 -13.293431,74.337475 -13.505244,74.448695 -13.967195,74.836565 -14.320183,75.199205 -14.759331,75.650355 -15.153555,75.906805 -15.568388,76.011395 -16.426581,76.227735 -17.029963,76.942425 -17.029963,77.742375 -17.029963,78.631335 -16.450479,79.363475 -16.275637,78.695415 -16.227427,78.511175 -16.082763,78.411855 -15.866719,78.414015 -15.213984,78.421015 -14.415592,78.679625 -14.120461,78.980435 L -13.821013,79.285495 -14.583696,79.991635 -15.3461,80.697785 -19.789328,80.683185 C -22.837094,80.674185 -24.657781,80.605785 -25.587172,80.466615 -30.788599,79.687455 -33.664964,78.450305 -35.671133,76.129555 -36.798231,74.825715 -38.881508,72.709895 -39.038302,72.709895 Z"
             inkscape:export-filename="C:\Users\13479\Desktop\hawkAndText.png"
             inkscape:export-xdpi="95.805199"
             inkscape:export-ydpi="95.805199"
             transform="matrix(1.1714674,0,0,1.1714674,551.69394,521.5696)" />
          <path
             d="m 602.90797,640.78715 q -2.32,0 -4.43999,-0.52 -2.08,-0.52 -3.59999,-1.4 l 0.48,-5.35998 q 1.79999,1.11999 3.75999,1.75999 1.99999,0.6 3.67999,0.6 1.91999,0 3.11999,-0.8 1.2,-0.79999 1.2,-2.11999 0,-1.08 -0.8,-1.64 -0.8,-0.6 -2.51999,-1.27999 l -0.96,-0.4 q -0.2,-0.08 -0.44,-0.16 -0.24,-0.12 -0.56,-0.24 -2.23999,-0.92 -3.59999,-1.72 -1.36,-0.84 -2.35999,-2.31999 -0.96,-1.48 -0.96,-3.83999 0,-3.83999 2.59999,-6.03999 2.6,-2.19999 7.23998,-2.19999 3.52,0 7.19999,1.43999 l -0.88,5.27999 q -1.48,-0.84 -3.19999,-1.32 -1.68,-0.47999 -3.2,-0.47999 -1.87999,0 -2.91999,0.75999 -1.04,0.72 -1.04,1.96 0,1.08 0.72,1.68 0.72,0.59999 2.32,1.27999 l 1.63999,0.64 q 2.32,0.88 3.83999,1.72 1.52,0.83999 2.6,2.43999 1.07999,1.56 1.07999,4.07999 0,3.87999 -2.63999,6.03998 -2.63999,2.16 -7.35998,2.16 z"
             style="font-family:'Secular One';-inkscape-font-specification:'Secular One'"
             id="path825" />
          <path
             d="m 623.18793,618.6672 h -7.27998 v -5.03998 h 20.31995 v 5.03998 h -7.19998 v 21.59995 h -5.83999 z"
             style="font-family:'Secular One';-inkscape-font-specification:'Secular One'"
             id="path827" />
          <path
             d="m 640.22792,613.62722 h 16.19996 v 5.03998 h -10.47997 v 5.31999 h 8.67998 v 4.87999 h -8.67998 v 6.35998 h 10.47997 v 5.03999 h -16.19996 z"
             style="font-family:'Secular One';-inkscape-font-specification:'Secular One'"
             id="path829" />
          <path
             d="m 661.42789,613.62722 h 16.19996 v 5.03998 h -10.47997 v 5.31999 h 8.67998 v 4.87999 h -8.67998 v 6.35998 h 10.47997 v 5.03999 h -16.19996 z"
             style="font-family:'Secular One';-inkscape-font-specification:'Secular One'"
             id="path831" />
          <path
             d="m 682.62787,613.62722 h 5.79999 v 21.59994 h 9.59998 v 5.03999 h -15.39997 z"
             style="font-family:'Secular One';-inkscape-font-specification:'Secular One'"
             id="path833" />
          <path
             d="m 710.02786,613.62722 h 5.83999 v 10.31997 h 11.31997 v -10.31997 h 5.87998 v 26.63993 h -5.87998 v -11.35997 h -11.31997 v 11.35997 h -5.83999 z"
             style="font-family:'Secular One';-inkscape-font-specification:'Secular One'"
             id="path835" />
          <path
             d="m 746.30777,613.62722 h 6.95998 l 9.87998,26.63993 h -5.99999 l -2.15999,-6.07998 h -10.47998 l -2.03999,6.07998 h -5.91999 z m 6.95998,15.59996 -3.59999,-10.19998 -3.47999,10.19998 z"
             style="font-family:'Secular One';-inkscape-font-specification:'Secular One'"
             id="path837" />
          <path
             d="m 762.42775,613.62722 h 6.15998 l 4.63999,19.15995 4.75999,-18.99995 7.47998,-0.56 5.03999,20.11995 4.67999,-19.71995 h 5.71998 l -7.19998,26.63993 h -6.99998 l -5.15999,-21.07995 -5.35998,21.07995 h -6.91999 z"
             style="font-family:'Secular One';-inkscape-font-specification:'Secular One'"
             id="path839" />
          <path
             d="m 804.90761,613.62722 h 5.79999 v 10.31997 l 8.67998,-10.31997 h 6.91998 l -10.95997,12.63997 10.39997,13.99996 h -7.03998 l -7.99998,-10.75997 v 10.75997 h -5.79999 z"
             style="font-family:'Secular One';-inkscape-font-specification:'Secular One'"
             id="path841" />
          <path
             d="m 835.58752,640.78715 q -2.32,0 -4.43999,-0.52 -2.07999,-0.52 -3.59999,-1.4 l 0.48,-5.35998 q 1.79999,1.11999 3.75999,1.75999 1.99999,0.6 3.67999,0.6 1.91999,0 3.11999,-0.8 1.2,-0.79999 1.2,-2.11999 0,-1.08 -0.8,-1.64 -0.8,-0.6 -2.51999,-1.27999 l -0.96,-0.4 q -0.2,-0.08 -0.44,-0.16 -0.24,-0.12 -0.56,-0.24 -2.23999,-0.92 -3.59999,-1.72 -1.36,-0.84 -2.35999,-2.31999 -0.96,-1.48 -0.96,-3.83999 0,-3.83999 2.59999,-6.03999 2.6,-2.19999 7.23998,-2.19999 3.52,0 7.19999,1.43999 l -0.88,5.27999 q -1.48,-0.84 -3.19999,-1.32 -1.68,-0.47999 -3.2,-0.47999 -1.87999,0 -2.91999,0.75999 -1.04,0.72 -1.04,1.96 0,1.08 0.72,1.68 0.72,0.59999 2.32,1.27999 l 1.63999,0.64 q 2.32,0.88 3.83999,1.72 1.52,0.83999 2.6,2.43999 1.07999,1.56 1.07999,4.07999 0,3.87999 -2.63999,6.03998 -2.63999,2.16 -7.35998,2.16 z"
             style="font-family:'Secular One';-inkscape-font-specification:'Secular One'"
             id="path843" />
        </g>
      </g>
    </g>
  </g>
</svg>
