<?xml version="1.0" encoding="UTF-8" standalone="no"?>
<!-- Created with Inkscape (http://www.inkscape.org/) -->

<svg
   width="210mm"
   height="297mm"
   viewBox="0 0 210 297"
   version="1.1"
   id="svg16999"
   inkscape:version="1.1.1 (3bf5ae0d25, 2021-09-20)"
   sodipodi:docname="steelhawksLogo.svg"
   xmlns:inkscape="http://www.inkscape.org/namespaces/inkscape"
   xmlns:sodipodi="http://sodipodi.sourceforge.net/DTD/sodipodi-0.dtd"
   xmlns="http://www.w3.org/2000/svg"
   xmlns:svg="http://www.w3.org/2000/svg">
  <sodipodi:namedview
     id="namedview17001"
     pagecolor="#ffffff"
     bordercolor="#666666"
     borderopacity="1.0"
     inkscape:pageshadow="2"
     inkscape:pageopacity="0.0"
     inkscape:pagecheckerboard="0"
     inkscape:document-units="mm"
     showgrid="false"
     inkscape:zoom="0.73406285"
     inkscape:cx="-365.77249"
     inkscape:cy="561.94098"
     inkscape:window-width="1920"
     inkscape:window-height="1009"
     inkscape:window-x="-8"
     inkscape:window-y="-8"
     inkscape:window-maximized="1"
     inkscape:current-layer="layer1" />
  <defs
     id="defs16996" />
  <g
     inkscape:label="Layer 1"
     inkscape:groupmode="layer"
     id="layer1">
    <path
       style="fill:#000000;stroke-width:0.264583"
       d="m -85.111136,180.64011 c -2.02366,-3.76444 -3.66991,-7.46707 -3.91147,-8.79739 -0.15853,-0.87313 -0.50577,-1.88516 -0.77164,-2.24896 -2.27596,-3.11434 -3.74673,-6.03003 -3.74673,-7.42757 0,-0.67417 -0.0736,-0.63488 -4.25658,2.27368 -1.80027,1.25177 -3.315884,2.14797 -3.368024,1.99154 -0.0521,-0.15642 1.02845,-1.86036 2.401324,-3.78655 1.37287,-1.92618 2.65122,-3.79535 2.84078,-4.15371 l 0.34466,-0.65157 -0.7123,0.46672 c -0.39177,0.2567 -1.68556,1.24611 -2.8751,2.1987 -1.279614,1.02472 -2.206284,1.60149 -2.269304,1.41242 -0.0586,-0.17575 1.33653,-3.1517 3.100264,-6.61322 2.55549,-5.01544 3.20678,-6.51413 3.20678,-7.37914 0,-0.73032 -0.11589,-1.08547 -0.35419,-1.08547 -0.1948,0 -1.56001,0.58968 -3.03379,1.31039 -1.985844,0.97112 -3.384074,1.44663 -5.400504,1.83659 -4.26251,0.82432 -7.61634,1.55807 -11.65982,2.55092 -3.71622,0.9125 -5.48087,1.13127 -5.48087,0.67951 0,-0.13044 0.42922,-0.61404 0.95383,-1.07464 0.5246,-0.46061 0.90645,-0.88485 0.84855,-0.94275 -0.0579,-0.0579 -1.03561,0.19015 -2.17267,0.55123 -2.55662,0.81188 -6.11545,1.18456 -5.92753,0.62072 0.0683,-0.20492 0.82764,-0.78931 1.68743,-1.29863 l 1.56325,-0.92605 -4.41674,-0.13229 c -5.03317,-0.15075 -5.84499,-0.4239 -3.89254,-1.30967 0.96363,-0.43718 1.05331,-0.53262 0.50851,-0.54119 -1.33599,-0.021 -4.29754,-0.79149 -5.21001,-1.35543 l -0.9387,-0.58015 0.58897,-0.44426 0.58898,-0.44427 -0.83274,-0.34493 c -2.06119,-0.85377 -2.79957,-2.10141 -1.27411,-2.15284 0.7665,-0.0258 0.73119,-0.0542 -0.32506,-0.26111 -1.186,-0.23232 -3.27334,-1.51084 -3.22642,-1.97622 0.0137,-0.13597 0.41657,-0.31614 0.89524,-0.40039 0.74261,-0.13069 0.79266,-0.18251 0.34114,-0.35316 -1.80469,-0.68206 -2.55567,-1.09618 -3.19164,-1.75999 l -0.71684,-0.74823 0.76361,-0.16951 c 0.41999,-0.0932 0.88268,-0.19984 1.0282,-0.2369 0.14552,-0.0371 -0.22645,-0.31908 -0.82661,-0.62671 -1.18698,-0.60843 -2.57451,-2.06875 -2.33454,-2.45702 0.20228,-0.32731 1.48578,-0.30524 2.8957,0.0498 1.79563,0.45215 2.00168,0.13078 0.42931,-0.66959 -1.87533,-0.95459 -4.06509,-3.13054 -3.9519,-3.92698 0.0713,-0.50197 0.22059,-0.57667 0.99855,-0.49978 0.50308,0.0497 1.72049,0.49621 2.70538,0.99219 2.31162,1.16411 2.69579,1.13974 1.42479,-0.0904 -1.44842,-1.40185 -2.65546,-4.08712 -2.09094,-4.65165 0.0967,-0.0967 1.29749,0.42892 2.66847,1.16799 1.37098,0.73908 2.55453,1.28193 2.63013,1.20633 0.12915,-0.12915 -0.97088,-1.18494 -2.4325,-2.33466 -0.35634,-0.28029 -0.78523,-0.968 -0.95308,-1.52824 -0.31528,-1.05233 -0.14415,-2.7842 0.30238,-3.06018 0.13971,-0.0863 0.89437,0.53456 1.67701,1.37978 1.47002,1.58757 4.29396,3.71386 4.5682,3.43963 0.0856,-0.0856 -0.22567,-1.07163 -0.69173,-2.19115 -0.86551,-2.07905 -1.43955,-5.92941 -0.884,-5.92941 0.29088,0 4.15572,3.92792 6.24667,6.34863 3.72177,4.30872 9.05776,6.60546 18.70725,8.05207 1.72417,0.25848 5.10215,0.38501 10.75624,0.4029 l 8.242704,0.0261 1.41459,-1.31097 1.4146,-1.31096 -0.55538,-0.56648 c -0.54752,-0.55847 -2.02878,-1.03929 -3.23971,-1.05162 -0.4008,-0.004 -0.66901,0.18081 -0.75846,0.52285 -0.32436,1.24033 -1.39958,-0.11905 -1.39958,-1.76947 0,-1.48521 1.11967,-2.81219 2.71176,-3.21385 0.76958,-0.19416 1.50063,-0.67027 2.31532,-1.5079 0.65485,-0.67328 1.51214,-1.39319 1.90509,-1.5998 1.10308,-0.57998 4.04848,-0.48669 5.40767,0.17128 1.38815,0.67199 3.7887,3.216 4.50817,4.77758 0.29339,0.63678 0.9263,2.02058 1.40647,3.07513 0.80404,1.7658 0.97978,1.96705 2.22335,2.5461 2.65149,1.23465 3.74886,1.35734 12.06592,1.34904 6.85414,-0.007 8.22432,-0.0799 11.24479,-0.59926 5.02069,-0.86334 5.78711,-1.06553 8.99049,-2.37173 3.43443,-1.40043 5.60138,-2.80285 7.41368,-4.79805 3.512,-3.86645 6.69624,-6.96952 6.97503,-6.79722 0.49229,0.30426 0.0562,2.95328 -0.91621,5.56569 -0.48483,1.30249 -0.8315,2.41818 -0.77037,2.47931 0.23154,0.23154 3.60653,-2.40454 4.69135,-3.66424 0.62298,-0.7234 1.26764,-1.31534 1.43257,-1.31541 0.60268,-2.6e-4 0.85618,2.5153 0.34897,3.46303 -0.26394,0.49318 -2.16458,2.35354 -3.11304,3.04707 -0.24496,0.17912 -0.36444,0.40662 -0.26551,0.50555 0.0989,0.0989 1.13727,-0.35852 2.30741,-1.01656 2.9481,-1.65789 3.20042,-1.71999 3.20042,-0.78761 0,1.01985 -0.88779,2.62893 -2.19737,3.98266 -0.59829,0.61847 -0.99418,1.12448 -0.87975,1.12448 0.11442,0 1.08914,-0.42378 2.16602,-0.94174 2.05643,-0.98911 3.65343,-1.39636 3.90152,-0.99494 0.50202,0.81228 -2.09581,3.55272 -4.2543,4.48785 -1.16531,0.50485 -1.55755,1.08335 -0.52206,0.76997 1.10488,-0.33439 4.16719,-0.49412 4.16719,-0.21737 0,0.52387 -1.12913,1.6841 -2.14168,2.20066 -1.17403,0.59895 -1.33955,1.04557 -0.38748,1.04557 0.35522,0 0.70873,0.10176 0.7856,0.22613 0.22822,0.36927 -1.08655,1.42874 -2.56558,2.0674 -0.75867,0.3276 -1.1938,0.60042 -0.96695,0.60626 0.22685,0.006 0.62445,0.16565 0.88357,0.35512 0.43282,0.31648 0.38225,0.40606 -0.62209,1.10208 -0.60127,0.41667 -1.65372,0.90846 -2.33878,1.09286 -1.16223,0.31284 -1.18674,0.33647 -0.36627,0.35313 1.27606,0.0259 1.01404,0.72723 -0.6436,1.72261 -1.31689,0.79076 -1.33722,0.82163 -0.81004,1.22937 0.52442,0.40561 0.4956,0.44034 -0.95402,1.14957 -0.96361,0.47146 -2.17987,0.80155 -3.42279,0.92895 l -1.92801,0.19763 1.12448,0.4777 c 2.20699,0.93759 1.35316,1.23431 -4.01457,1.39512 l -4.213,0.12621 1.63332,0.91739 c 1.69207,0.95041 1.92107,1.23127 1.22245,1.49935 -0.6101,0.23412 -3.98146,-0.29626 -5.8899,-0.92659 -0.9188,-0.30347 -1.73068,-0.49162 -1.80419,-0.41812 -0.0735,0.0735 0.29129,0.4727 0.81064,0.88709 2.12026,1.69176 0.77626,1.7825 -4.84635,0.32721 -3.23329,-0.83687 -6.19111,-1.48185 -11.01038,-2.4009 -2.17209,-0.41422 -3.50063,-0.8497 -5.23698,-1.71662 -2.59073,-1.29349 -5.20156,-2.06544 -6.1665,-1.82326 -0.53895,0.13527 -0.63506,0.32078 -0.63506,1.22575 0,0.83663 0.71277,2.48853 3.30861,7.66788 1.81974,3.63083 3.17257,6.60152 3.00628,6.60152 -0.16628,0 -1.36662,-0.84068 -2.66742,-1.86817 -1.30081,-1.02749 -2.56402,-1.9445 -2.80714,-2.03779 -0.5436,-0.2086 -0.56206,-0.23818 2.82692,4.53042 2.26304,3.1843 2.66366,3.87345 2.25176,3.87345 -0.17467,0 -3.04748,-1.91541 -5.85287,-3.90233 -1.55207,-1.09926 -1.65364,-1.13429 -1.65364,-0.57028 0,1.56699 -1.28887,4.20721 -3.73332,7.64761 -0.25848,0.3638 -0.58893,1.3308 -0.73432,2.14888 -0.21779,1.22541 -3.82231,9.22821 -4.15647,9.22821 -0.0487,0 -0.23254,-0.26789 -0.40855,-0.59532 z m -11.34026,-35.24758 v -0.9179 l -3.15671,-0.0743 -3.156714,-0.0743 2.40311,-2.64583 c 3.202584,-3.52606 3.802264,-4.97125 2.822494,-6.80197 -0.85691,-1.60115 -4.030214,-2.03927 -6.486534,-0.89556 -1.61543,0.75218 -1.85481,1.06702 -1.4237,1.87254 l 0.32477,0.60685 1.45309,-0.76437 c 1.63041,-0.85764 2.40596,-0.94153 3.49553,-0.37809 1.783224,0.92214 1.259484,2.21902 -2.58577,6.40282 -2.18032,2.37228 -2.94999,3.38951 -2.94999,3.89885 v 0.68914 h 4.63021 4.630214 z m 9.51973,0.45447 c 1.40476,-0.70578 2.12213,-1.97174 2.12095,-3.74289 -0.002,-2.81312 -1.47315,-4.13202 -4.40142,-3.94556 -1.40578,0.0895 -1.80168,0.22906 -2.47217,0.87144 l -0.79834,0.76485 v -0.98608 c 0,-1.31496 0.88091,-2.97633 1.84154,-3.47309 0.96679,-0.49995 2.6614,-0.51788 3.8045,-0.0403 0.83442,0.34864 0.88227,0.33464 1.291,-0.37752 l 0.42446,-0.73958 -1.04027,-0.41623 c -0.57215,-0.22893 -1.75698,-0.41624 -2.63296,-0.41624 -2.92268,0 -4.64175,1.42563 -5.43021,4.50327 -0.89357,3.48797 0.27261,7.02319 2.66798,8.08782 1.14306,0.50803 3.52702,0.46168 4.62494,-0.0899 z m -3.8376,-1.48114 c -1.40964,-0.63581 -1.86713,-2.47933 -0.91549,-3.68914 1.12373,-1.4286 3.6588,-1.4878 4.62525,-0.10801 0.60026,0.857 0.50418,2.41709 -0.19762,3.2087 -0.73448,0.82847 -2.37179,1.1028 -3.51214,0.58845 z m 16.03824,1.32888 c 0.8968,-0.4735 1.34073,-0.95633 1.92235,-2.0908 0.67465,-1.31593 0.75296,-1.72775 0.72564,-3.81609 -0.026,-1.98488 -0.14099,-2.56232 -0.75626,-3.79617 -1.01822,-2.04195 -2.35452,-2.72785 -5.01319,-2.57317 -1.57948,0.0919 -2.0725,0.23768 -2.87571,0.85032 -0.53318,0.40667 -1.19406,1.24725 -1.46862,1.86794 -1.05412,2.383 -0.87382,6.21767 0.38115,8.10682 1.32235,1.99055 4.73794,2.69018 7.08464,1.45115 z m -4.7344,-1.62958 c -1.86961,-1.57318 -1.86066,-6.90841 0.0142,-8.48603 1.0094,-0.84935 2.97854,-0.8997 3.99255,-0.10208 0.78789,0.61975 1.49682,2.68053 1.49682,4.35108 0,1.67056 -0.70893,3.73134 -1.49682,4.35109 -1.02113,0.80323 -2.98303,0.74737 -4.00679,-0.11406 z m 13.44111,-4.23703 v -6.48229 h -2.24896 -2.24895 v 0.92604 c 0,0.92115 0.006,0.92605 1.19062,0.92605 h 1.19063 v 5.55625 5.55625 h 1.05833 1.05833 z"
       id="path16833" />
  </g>
</svg>
