<?xml version="1.0" encoding="UTF-8" standalone="no"?>
<!-- Created with Inkscape (http://www.inkscape.org/) -->

<svg
   width="6.1273241mm"
   height="9.5249996mm"
   viewBox="0 0 6.1273241 9.5249994"
   version="1.1"
   id="svg5"
   inkscape:version="1.1.1 (3bf5ae0d25, 2021-09-20)"
   sodipodi:docname="tba.svg"
   xmlns:inkscape="http://www.inkscape.org/namespaces/inkscape"
   xmlns:sodipodi="http://sodipodi.sourceforge.net/DTD/sodipodi-0.dtd"
   xmlns="http://www.w3.org/2000/svg"
   xmlns:svg="http://www.w3.org/2000/svg">
  <sodipodi:namedview
     id="namedview7"
     pagecolor="#ffffff"
     bordercolor="#666666"
     borderopacity="1.0"
     inkscape:pageshadow="2"
     inkscape:pageopacity="0.0"
     inkscape:pagecheckerboard="0"
     inkscape:document-units="mm"
     showgrid="false"
     fit-margin-top="0"
     fit-margin-left="0"
     fit-margin-right="0"
     fit-margin-bottom="0"
     inkscape:zoom="6.0578002"
     inkscape:cx="15.434646"
     inkscape:cy="53.5673"
     inkscape:window-width="1920"
     inkscape:window-height="1009"
     inkscape:window-x="-8"
     inkscape:window-y="-8"
     inkscape:window-maximized="1"
     inkscape:current-layer="layer1" />
  <defs
     id="defs2" />
  <g
     inkscape:label="Layer 1"
     inkscape:groupmode="layer"
     id="layer1"
     transform="translate(-86.201716,-84.388979)">
    <path
       style="fill:#000000;stroke-width:0.105265"
       d="M 88.83368,93.87309 C 87.9242,93.701235 87.202659,93.029898 86.947919,92.118538 86.885848,91.896478 86.885608,91.887116 86.876676,89.343162 L 86.867712,86.790598 86.630052,86.780827 C 86.39604,86.771206 86.390932,86.769459 86.297055,86.667022 L 86.201716,86.562987 V 85.584501 84.606013 L 86.310233,84.497496 86.41875,84.388979 89.27856,84.39633 92.138369,84.40368 92.233704,84.507715 92.32904,84.611749 V 85.587369 86.562987 L 92.233701,86.667022 C 92.139824,86.769459 92.134714,86.771206 91.900702,86.780827 L 91.663044,86.790598 91.65408,89.343162 C 91.645148,91.887116 91.644907,91.896478 91.582837,92.118538 91.240569,93.343031 90.04993,94.102914 88.83368,93.87309 Z M 88.986863,92.452755 V 91.547583 H 88.192137 87.397411 L 87.415113,91.693803 C 87.507368,92.455785 87.991116,93.065992 88.678437,93.287372 89.021723,93.397941 88.986863,93.492274 88.986863,92.452755 Z M 89.844042,93.288598 C 90.536906,93.069722 91.022844,92.460276 91.115642,91.693803 L 91.133344,91.547583 H 90.324693 89.516041 V 92.452755 C 89.516041,93.498209 89.479034,93.403904 89.844042,93.288598 Z M 88.986863,90.08538 V 89.152356 H 88.193097 87.399329 V 90.08538 91.018405 H 88.193097 88.986863 Z M 91.131427,90.08538 V 89.152356 H 90.323734 89.516041 V 90.08538 91.018405 H 90.323734 91.131427 Z M 88.986863,87.70408 V 86.784982 H 88.193097 87.399329 V 87.70408 88.623179 H 88.193097 88.986863 Z M 91.131427,87.70408 V 86.784982 H 90.323734 89.516041 V 87.70408 88.623179 H 90.323734 91.131427 Z"
       id="path972" />
  </g>
</svg>
