<?xml version="1.0" standalone="no"?>
<!DOCTYPE svg PUBLIC "-//W3C//DTD SVG 20010904//EN"
 "http://www.w3.org/TR/2001/REC-SVG-20010904/DTD/svg10.dtd">
<svg version="1.0" xmlns="http://www.w3.org/2000/svg"
 width="2091.000000pt" height="2091.000000pt" viewBox="0 0 2091.000000 2091.000000"
 preserveAspectRatio="xMidYMid meet">
<metadata>
Created by potrace 1.14, written by Peter Selinger 2001-2017
</metadata>
<g transform="translate(0.000000,2091.000000) scale(0.100000,-0.100000)"
fill="#000000" stroke="none">
<path d="M10553 20323 l-103 -4 0 -57 c0 -118 20 -678 26 -702 3 -14 -15 9
-40 50 -25 41 -139 212 -254 380 l-208 305 -155 2 c-85 2 -159 0 -166 -5 -8
-5 -7 -142 5 -554 10 -300 20 -549 23 -552 3 -4 57 -3 119 0 l112 7 -7 266
c-4 146 -10 321 -14 389 -3 67 -5 122 -4 122 2 0 14 -21 27 -47 14 -27 128
-198 253 -382 l228 -335 160 3 c88 1 162 4 164 6 5 6 -29 1097 -35 1107 -3 4
-11 7 -17 6 -7 -1 -58 -4 -114 -5z"/>
<path d="M11402 20240 c-255 -69 -405 -262 -419 -540 -4 -78 -1 -121 10 -167
66 -256 276 -404 597 -420 118 -6 214 4 305 32 l51 15 31 272 c18 150 30 274
28 276 -5 5 -469 61 -473 58 -6 -7 -24 -176 -19 -189 3 -9 39 -17 113 -25 59
-7 108 -13 109 -14 1 -2 -3 -46 -9 -98 l-11 -94 -40 -10 c-57 -13 -182 7 -250
40 -65 32 -118 87 -148 153 -18 37 -22 65 -22 146 0 91 3 106 31 166 53 112
134 172 256 189 115 17 265 -19 366 -85 l52 -35 47 95 48 95 -30 25 c-46 37
-133 81 -210 105 -103 33 -311 38 -413 10z"/>
<path d="M9105 20221 l-110 -17 3 -34 c3 -42 142 -1040 147 -1056 2 -7 42 -5
130 7 69 9 128 19 129 21 2 2 -145 1055 -153 1096 -1 4 -31 0 -146 -17z"/>
<path d="M8288 20066 c-234 -56 -429 -104 -433 -108 -7 -7 33 -198 44 -210 3
-4 73 9 154 29 82 19 150 33 153 31 2 -3 49 -195 104 -428 55 -233 101 -424
102 -426 2 -1 61 11 131 28 106 25 127 33 123 46 -9 31 -196 832 -196 840 0 4
68 23 150 42 83 19 150 39 150 44 0 20 -43 201 -49 207 -3 3 -198 -40 -433
-95z"/>
<path d="M13090 19880 c-58 -15 -147 -35 -199 -44 -52 -9 -96 -18 -98 -20 -3
-2 1 -48 8 -101 l13 -97 55 7 c31 4 92 13 136 20 43 8 80 13 82 12 1 -1 -52
-178 -117 -392 -66 -215 -120 -395 -120 -401 0 -13 242 -86 251 -76 15 17 320
1045 312 1052 -8 8 -208 71 -215 69 -1 -1 -50 -14 -108 -29z"/>
<path d="M7283 19773 l-151 -55 -7 -117 c-11 -160 1 -633 20 -821 19 -190 24
-220 39 -220 6 0 58 17 116 39 l105 38 -1 39 c0 21 -2 70 -5 108 l-4 68 194
69 c106 38 197 66 202 63 5 -3 32 -42 60 -88 l50 -83 122 44 c66 24 122 45
124 46 4 5 -150 238 -245 369 -141 194 -444 560 -461 557 -3 0 -74 -26 -158
-56z m295 -481 c47 -62 82 -115 79 -118 -12 -12 -280 -104 -286 -98 -3 3 -8
114 -10 247 l-3 241 68 -79 c37 -44 106 -131 152 -193z"/>
<path d="M13781 19701 c-40 -76 -241 -574 -235 -580 5 -4 45 -20 89 -35 205
-71 325 -159 325 -239 0 -47 -28 -90 -70 -107 -81 -34 -267 36 -387 145 l-62
56 -38 -53 c-22 -29 -50 -68 -63 -87 l-24 -35 61 -55 c129 -119 330 -203 488
-205 118 -1 178 20 250 85 99 91 139 231 100 348 -32 98 -158 208 -306 268
-38 15 -69 33 -69 39 0 12 63 161 72 170 3 3 97 -34 209 -81 111 -47 207 -84
212 -82 14 4 89 189 80 198 -5 4 -146 66 -316 137 -267 113 -309 128 -316 113z"/>
<path d="M6285 19331 c-119 -32 -195 -66 -382 -169 -57 -31 -103 -61 -103 -67
0 -9 469 -934 493 -972 6 -9 39 3 122 45 63 31 115 61 115 66 0 5 -34 74 -75
154 -41 80 -73 147 -70 150 2 3 33 22 67 42 l62 38 55 -37 c31 -20 101 -68
156 -106 55 -39 106 -74 113 -79 8 -4 61 18 140 60 70 36 128 68 130 69 4 4
-204 156 -300 220 -49 32 -88 61 -88 66 0 4 12 31 28 60 24 47 27 64 27 149 0
79 -4 103 -23 141 -36 72 -87 125 -149 156 -76 37 -212 43 -318 14z m129 -222
c76 -21 117 -91 102 -173 -10 -51 -83 -127 -165 -170 l-69 -36 -76 144 c-42
79 -76 148 -76 153 0 13 122 69 175 82 55 12 64 12 109 0z"/>
<path d="M15367 19273 c-9 -15 -57 -198 -77 -295 -32 -159 -58 -362 -70 -543
l-11 -170 -125 -187 c-68 -104 -124 -190 -124 -192 0 -9 220 -147 228 -143 4
3 63 89 131 190 l123 185 100 47 c128 59 323 168 453 252 113 74 315 223 315
233 0 4 -49 40 -109 80 -74 48 -114 69 -123 63 -7 -4 -56 -40 -108 -79 -130
-98 -454 -294 -485 -294 -21 0 31 369 80 566 19 75 35 139 35 140 0 3 -185
129 -217 147 -6 4 -14 4 -16 0z"/>
<path d="M5310 18754 c-30 -8 -93 -32 -139 -54 -122 -59 -380 -240 -373 -263
2 -8 602 -886 618 -906 10 -12 272 164 366 246 85 73 157 164 188 234 34 79
34 176 -2 245 -52 98 -123 138 -238 131 -41 -2 -82 -7 -92 -11 -14 -6 -13 -1
5 35 12 24 23 69 25 101 6 81 -17 136 -78 191 -74 66 -162 82 -280 51z m101
-263 c51 -51 37 -112 -43 -187 -40 -38 -100 -84 -110 -84 -3 0 -35 45 -73 100
l-68 99 24 20 c53 44 141 81 191 81 41 0 54 -5 79 -29z m306 -346 c53 -61 11
-150 -118 -245 -45 -34 -85 -57 -89 -53 -4 4 -37 52 -74 105 l-67 97 43 32
c135 98 255 123 305 64z"/>
<path d="M15946 17872 c-347 -410 -359 -426 -340 -441 11 -9 129 -108 263
-221 133 -113 248 -206 254 -207 13 -2 132 137 132 154 0 5 -73 72 -162 147
-90 76 -163 140 -163 143 0 10 142 173 151 173 7 0 53 -37 265 -217 l51 -43
66 80 c37 43 67 83 66 87 0 4 -70 66 -155 137 l-154 128 31 39 c16 21 49 60
73 86 l43 47 159 -135 c87 -74 164 -138 170 -142 7 -4 39 27 78 73 36 43 66
81 66 83 0 3 -389 334 -520 443 -13 10 -69 -52 -374 -414z"/>
<path d="M4253 17993 c-144 -125 -262 -232 -262 -236 -1 -9 720 -832 728 -832
9 1 520 450 520 459 1 4 -29 43 -66 86 l-68 78 -55 -48 c-30 -26 -104 -91
-165 -144 -60 -53 -112 -96 -116 -96 -6 0 -142 156 -147 169 -1 4 65 67 148
140 82 72 150 135 150 139 0 4 -31 41 -69 83 l-68 76 -153 -134 c-85 -73 -157
-132 -161 -131 -14 5 -139 153 -138 163 0 6 65 66 145 135 80 69 152 133 161
142 17 19 16 20 -89 141 l-33 38 -262 -228z"/>
<path d="M10060 17999 c-2588 -123 -4928 -1641 -6104 -3959 -102 -200 -231
-480 -242 -525 -5 -22 -4 -22 133 -29 362 -18 1024 -26 2593 -32 1442 -6 1710
-5 1737 7 17 8 103 79 190 159 334 306 588 544 596 557 10 17 -22 62 -101 139
-190 186 -519 307 -873 321 -101 4 -156 2 -182 -6 -45 -15 -89 -64 -128 -146
-18 -35 -43 -75 -58 -89 -25 -23 -28 -24 -65 -11 -101 35 -200 206 -248 430
-20 94 -14 294 11 390 43 164 123 296 257 426 129 125 240 189 454 264 161 55
282 114 393 189 104 71 164 123 434 375 283 265 356 318 513 373 158 55 456
79 728 60 380 -27 646 -102 852 -242 148 -100 429 -356 601 -546 329 -363 481
-603 682 -1074 103 -241 378 -818 418 -877 119 -176 273 -289 575 -420 279
-120 590 -205 934 -253 284 -40 360 -42 1698 -47 l1304 -5 -7 24 c-31 99 -223
509 -335 718 -577 1072 -1391 1966 -2399 2635 -1289 854 -2800 1268 -4361
1194z"/>
<path d="M17050 17344 c-193 -77 -601 -275 -753 -364 l-87 -52 69 -76 c114
-127 95 -121 194 -61 47 28 90 49 96 47 5 -1 72 -71 149 -154 l140 -151 -59
-84 c-32 -46 -59 -86 -59 -89 0 -3 40 -48 88 -100 l89 -94 90 134 c49 74 130
203 178 285 96 163 293 549 297 582 4 26 -205 253 -230 252 -9 0 -100 -34
-202 -75z m114 -286 c-26 -51 -78 -149 -117 -217 l-70 -124 -103 109 c-57 60
-103 114 -104 120 0 14 396 201 433 203 4 1 -14 -41 -39 -91z"/>
<path d="M3416 17173 l-89 -97 34 -30 c19 -16 200 -183 403 -370 203 -188 374
-341 381 -341 7 0 112 108 234 239 172 187 219 242 209 251 -7 6 -45 41 -84
78 l-71 67 -133 -145 c-73 -80 -137 -145 -141 -145 -5 0 -151 132 -325 293
-174 160 -319 293 -323 294 -3 2 -46 -41 -95 -94z"/>
<path d="M2900 16538 c-111 -149 -204 -277 -207 -283 -4 -11 835 -647 872
-661 9 -4 83 87 219 271 113 151 206 278 206 280 0 7 -158 125 -167 125 -4 -1
-66 -79 -137 -175 l-130 -174 -50 36 c-119 85 -135 99 -131 110 2 7 57 82 122
169 l117 156 -29 23 c-15 13 -55 42 -86 64 l-58 41 -124 -165 -124 -164 -90
67 -90 68 128 173 c71 96 129 177 129 181 0 7 -123 103 -156 123 -7 4 -91
-101 -214 -265z"/>
<path d="M17464 16368 c-247 -176 -450 -321 -452 -323 -2 -2 31 -51 73 -109
63 -88 79 -104 93 -97 9 6 73 50 141 99 l124 89 41 -50 c23 -27 45 -55 50 -62
7 -9 -19 -70 -78 -190 -48 -98 -85 -183 -82 -190 2 -7 39 -61 81 -119 62 -85
80 -105 91 -96 7 7 59 103 114 215 l101 203 52 -20 c63 -24 164 -26 225 -4
137 49 222 167 222 309 0 158 -85 335 -278 579 l-68 87 -450 -321z m477 -79
c99 -146 100 -259 4 -319 -62 -38 -140 -22 -214 45 -41 37 -117 133 -110 139
10 8 274 196 276 196 1 0 21 -28 44 -61z"/>
<path d="M2284 16034 c-112 -59 -198 -157 -264 -299 -50 -106 -65 -172 -63
-280 3 -260 169 -484 465 -625 112 -53 220 -80 327 -80 172 0 295 52 416 174
93 94 135 162 178 283 25 73 31 108 35 203 3 90 1 118 -9 127 -13 10 -181 53
-208 53 -8 0 -9 -24 -5 -83 19 -244 -135 -454 -348 -473 -203 -19 -458 121
-558 306 -33 62 -35 70 -35 165 0 89 3 106 28 157 40 81 114 159 191 199 l65
34 -81 83 c-44 45 -82 82 -83 82 -1 0 -24 -12 -51 -26z"/>
<path d="M18331 15599 c-82 -33 -144 -100 -171 -185 -20 -65 -21 -81 -15 -265
6 -168 5 -200 -9 -226 -17 -34 -33 -43 -76 -43 -84 0 -180 182 -180 340 0 34
-4 50 -12 50 -7 -1 -56 -11 -108 -23 l-95 -23 -3 -44 c-10 -134 95 -368 212
-473 91 -81 220 -108 328 -67 75 28 149 95 179 162 23 51 24 62 24 286 0 233
0 234 24 253 34 28 75 24 114 -11 56 -49 107 -186 107 -286 0 -19 3 -34 8 -34
4 1 52 11 107 24 l100 23 -2 57 c-6 174 -141 404 -277 473 -72 37 -179 42
-255 12z"/>
<path d="M13630 9272 c-79 -39 -105 -128 -97 -327 3 -89 12 -153 26 -202 21
-73 193 -455 514 -1143 275 -589 335 -716 729 -1542 l370 -778 27 21 c134 104
531 505 722 729 475 555 873 1189 1151 1835 83 191 151 366 145 371 -3 3 -148
34 -323 69 -616 124 -934 233 -1579 542 -460 221 -790 340 -1150 414 -124 26
-161 29 -320 29 -151 0 -186 -3 -215 -18z"/>
<path d="M7510 9233 c-46 -16 -469 -203 -610 -268 -548 -256 -747 -341 -981
-418 -231 -78 -300 -94 -1144 -267 -812 -167 -1069 -221 -1077 -229 -15 -14
213 -508 354 -766 250 -455 567 -910 905 -1298 143 -164 457 -482 624 -631
134 -120 321 -276 331 -276 3 0 13 21 23 48 10 26 171 360 358 742 421 862
757 1555 894 1850 268 575 435 948 456 1018 18 65 22 102 22 237 0 219 -17
266 -98 264 -23 0 -49 -3 -57 -6z"/>
<path d="M7270 5938 c-135 -95 -462 -335 -727 -535 -265 -199 -496 -369 -513
-378 l-32 -17 128 -95 c150 -111 406 -283 421 -283 9 0 283 395 565 815 161
240 410 644 406 657 -2 5 -113 -69 -248 -164z"/>
<path d="M13687 6033 c-15 -14 79 -157 450 -687 212 -303 388 -554 392 -558 9
-10 451 316 451 333 0 12 -1091 822 -1173 870 -79 47 -106 57 -120 42z"/>
<path d="M17654 5997 c-33 -24 -96 -83 -141 -131 -99 -105 -166 -228 -185
-342 -22 -135 33 -267 150 -359 83 -66 149 -88 243 -83 88 5 167 38 329 137
177 109 207 118 267 81 90 -54 55 -212 -73 -329 -51 -48 -141 -108 -202 -135
-23 -10 -42 -22 -42 -25 0 -15 195 -176 209 -173 37 8 153 97 222 169 249 262
284 528 91 704 -107 98 -225 135 -340 105 -75 -19 -131 -47 -275 -137 -61 -38
-132 -76 -158 -84 -42 -14 -51 -14 -82 -1 -149 62 -58 279 175 418 l69 41 -93
94 c-51 51 -96 93 -99 93 -4 0 -33 -19 -65 -43z"/>
<path d="M3016 5979 c-3 -24 -8 -81 -11 -126 l-6 -83 68 0 c133 0 229 -48 283
-142 62 -110 31 -216 -81 -272 -77 -38 -165 -35 -633 25 -448 57 -415 58 -499
-14 l-37 -32 280 -380 c155 -209 287 -386 295 -394 12 -12 26 -4 102 51 48 36
88 71 87 80 -1 8 -72 110 -158 227 -87 117 -156 214 -154 216 2 1 107 -13 233
-31 395 -58 490 -56 619 14 81 44 171 135 208 210 31 63 33 73 33 173 0 104
-1 107 -43 192 -30 61 -62 106 -110 155 -111 114 -212 160 -374 169 l-96 6 -6
-44z"/>
<path d="M17036 5209 c-67 -70 -116 -129 -116 -141 0 -10 16 -157 35 -325 19
-169 33 -308 30 -311 -2 -3 -85 73 -184 167 l-180 173 -98 -103 c-54 -56 -98
-105 -98 -110 0 -4 216 -213 480 -464 l480 -456 101 106 102 106 -189 181
c-104 100 -188 182 -187 183 2 2 148 -15 326 -36 l323 -40 112 117 c62 64 115
122 119 129 10 16 25 14 -452 71 -217 26 -396 48 -397 49 -2 1 -21 185 -43
410 -21 224 -41 410 -43 412 -3 2 -57 -51 -121 -118z"/>
<path d="M7984 4981 c-43 -21 -279 -171 -522 -333 l-444 -295 84 -46 c234
-127 631 -296 958 -409 179 -61 511 -160 518 -154 2 3 -26 57 -62 121 -237
412 -352 719 -387 1033 -15 140 -21 143 -145 83z"/>
<path d="M13090 5013 c-1 -46 -34 -293 -49 -360 -41 -189 -122 -406 -236 -634
-36 -71 -65 -130 -65 -133 0 -6 256 88 420 154 256 104 518 229 768 368 l63
34 -113 76 c-62 41 -238 160 -390 264 -271 185 -398 258 -398 231z"/>
<path d="M3855 4865 c-344 -55 -430 -76 -529 -128 -73 -39 -172 -135 -208
-203 -155 -288 13 -654 339 -738 169 -44 340 3 467 128 189 186 189 461 1 648
-27 26 -34 39 -24 42 8 3 137 22 287 43 150 20 271 40 270 44 -2 4 -49 55
-105 113 -91 94 -106 106 -135 105 -18 -1 -181 -25 -363 -54z m-191 -349 c87
-36 146 -126 146 -221 0 -68 -17 -110 -66 -165 -68 -75 -161 -105 -249 -80
-61 17 -138 87 -161 145 -20 53 -15 144 10 193 24 46 83 101 130 123 49 22
143 25 190 5z"/>
<path d="M16192 4330 c-62 -45 -112 -85 -112 -91 0 -5 83 -210 185 -456 102
-245 183 -448 181 -450 -2 -3 -175 140 -385 316 -209 177 -384 321 -390 321
-17 0 -286 -232 -283 -244 2 -6 73 -186 158 -401 205 -511 194 -485 190 -485
-2 0 -169 141 -371 314 l-367 314 -124 -90 c-68 -49 -124 -91 -124 -93 0 -7
1041 -870 1053 -873 15 -3 283 191 280 204 -1 5 -87 227 -193 493 -105 266
-189 485 -187 487 2 2 181 -147 398 -332 217 -185 399 -338 406 -341 7 -3 75
41 152 97 l140 101 -18 47 c-10 26 -119 313 -241 637 -123 325 -226 594 -230
598 -4 4 -57 -29 -118 -73z"/>
<path d="M4661 4240 c-138 -37 -229 -89 -340 -194 -120 -115 -202 -241 -253
-387 -29 -86 -32 -104 -32 -219 -1 -143 18 -213 80 -308 107 -163 312 -266
494 -247 226 24 420 152 584 388 229 327 185 710 -104 900 -121 79 -288 105
-429 67z m246 -255 c59 -25 119 -81 147 -137 53 -106 26 -245 -77 -400 -135
-203 -303 -319 -441 -305 -98 10 -179 66 -222 153 -24 49 -26 63 -22 137 3 66
11 97 36 150 43 93 96 170 172 250 111 119 198 166 308 167 35 0 79 -7 99 -15z"/>
<path d="M5612 3611 l-61 -100 115 -72 c63 -39 113 -76 111 -83 -4 -9 -497
-811 -580 -943 l-27 -42 116 -72 c64 -39 119 -67 123 -63 5 5 171 274 371 598
299 486 360 590 349 600 -17 15 -421 263 -442 271 -9 4 -33 -25 -75 -94z"/>
<path d="M14173 3044 c-84 -40 -153 -79 -153 -86 1 -45 130 -1392 135 -1396 5
-5 241 103 258 118 5 4 0 78 -10 164 l-19 157 80 38 c45 21 150 71 234 111
l153 74 114 -114 114 -114 123 57 c166 78 158 71 128 101 -209 206 -996 966
-1000 965 -3 0 -74 -34 -157 -75z m484 -627 c-3 -9 -297 -151 -302 -145 -2 1
-15 104 -29 228 -14 124 -29 241 -32 260 -5 33 8 22 180 -150 103 -102 185
-189 183 -193z"/>
<path d="M6844 2891 c-128 -46 -205 -135 -249 -286 -24 -80 -16 -159 24 -240
23 -47 69 -102 186 -224 151 -157 155 -162 155 -204 0 -76 -50 -117 -144 -117
-106 0 -222 65 -343 194 l-73 76 -57 -113 c-32 -61 -59 -117 -61 -123 -5 -17
130 -138 198 -178 361 -212 662 -150 765 157 29 88 31 133 9 208 -24 82 -46
113 -189 259 -168 172 -175 182 -175 237 0 38 5 50 34 79 31 31 40 34 90 34
96 0 205 -57 314 -163 51 -51 64 -59 72 -47 6 8 38 59 71 113 70 114 73 101
-44 189 -193 143 -430 204 -583 149z"/>
<path d="M13287 2670 c-71 -21 -131 -40 -134 -43 -4 -4 113 -427 134 -483 5
-13 -526 -169 -537 -157 -4 4 -38 114 -75 243 -37 129 -68 236 -70 238 -3 3
-276 -75 -280 -80 -3 -4 364 -1271 370 -1276 4 -4 253 66 271 77 7 4 -17 99
-68 275 -44 147 -78 270 -76 271 15 12 533 152 538 145 3 -5 39 -125 79 -267
41 -142 76 -260 77 -262 6 -7 276 73 280 84 5 15 -361 1269 -372 1271 -5 1
-67 -15 -137 -36z"/>
<path d="M7705 2575 c-8 -30 -22 -79 -30 -109 -8 -30 -15 -60 -15 -68 0 -9 55
-28 170 -58 109 -29 170 -49 170 -58 0 -7 -61 -241 -135 -519 -75 -279 -132
-510 -128 -513 11 -10 271 -76 276 -70 2 3 64 232 138 508 74 277 137 509 141
515 4 7 59 -3 177 -34 l171 -46 11 41 c6 23 20 76 31 119 13 46 18 81 12 86
-8 7 -950 261 -967 261 -4 0 -13 -25 -22 -55z"/>
<path d="M8885 2328 c-9 -30 -177 -1300 -172 -1305 9 -8 790 -113 796 -107 9
9 39 238 32 245 -3 3 -120 21 -258 39 -151 20 -253 38 -253 44 1 28 40 290 45
294 3 3 97 -7 211 -22 113 -16 208 -26 210 -23 9 8 37 216 31 230 -3 8 -53 19
-143 30 -76 10 -171 23 -209 28 l-71 11 17 125 c10 69 20 127 22 129 2 2 118
-12 257 -31 139 -19 255 -33 257 -32 9 9 34 240 27 247 -7 6 -757 111 -787
110 -4 0 -9 -6 -12 -12z"/>
<path d="M11102 2235 c-62 -6 -115 -15 -119 -19 -7 -6 118 -1301 127 -1316 5
-7 756 62 764 71 6 6 -19 237 -26 245 -4 3 -101 -3 -216 -15 -114 -11 -219
-21 -233 -21 l-24 0 -49 488 c-26 268 -50 508 -53 535 -7 54 8 52 -171 32z"/>
<path d="M9926 1973 c-3 -131 -9 -430 -12 -665 l-7 -427 24 -5 c13 -3 195 -7
405 -9 l381 -5 6 121 c3 66 4 123 2 127 -2 4 -120 10 -261 13 -141 3 -258 8
-261 11 -3 2 -2 73 2 157 l8 152 213 -5 212 -5 4 121 c2 67 3 122 3 123 -1 1
-99 5 -218 9 l-217 7 0 91 c0 50 3 109 7 130 l6 39 259 -7 258 -7 0 129 0 129
-277 6 c-153 4 -335 7 -404 7 l-126 0 -7 -237z"/>
</g>
</svg>
