<?xml version="1.0" encoding="utf-8"?>
<!-- Generator: Adobe Illustrator 27.1.1, SVG Export Plug-In . SVG Version: 6.00 Build 0)  -->
<svg version="1.1"
	 id="svg5" xmlns:inkscape="http://www.inkscape.org/namespaces/inkscape" xmlns:sodipodi="http://sodipodi.sourceforge.net/DTD/sodipodi-0.dtd" xmlns:svg="http://www.w3.org/2000/svg"
	 xmlns="http://www.w3.org/2000/svg" xmlns:xlink="http://www.w3.org/1999/xlink" x="0px" y="0px" viewBox="0 0 36 48"
	 style="enable-background:new 0 0 36 48;" xml:space="preserve">
<style type="text/css">
	.st0{fill:#FFFFFF;}
</style>
<sodipodi:namedview  bordercolor="#666666" borderopacity="1.0" fit-margin-bottom="0" fit-margin-left="0" fit-margin-right="0" fit-margin-top="0" id="namedview7" inkscape:current-layer="layer1" inkscape:cx="15.434646" inkscape:cy="53.5673" inkscape:document-units="mm" inkscape:pagecheckerboard="0" inkscape:pageopacity="0.0" inkscape:pageshadow="2" inkscape:window-height="1009" inkscape:window-maximized="1" inkscape:window-width="1920" inkscape:window-x="-8" inkscape:window-y="-8" inkscape:zoom="6.0578002" pagecolor="#ffffff" showgrid="false">
	</sodipodi:namedview>
<g id="layer1" transform="translate(-86.201716,-84.388979)" inkscape:groupmode="layer" inkscape:label="Layer 1">
	<path id="path972" class="st0" d="M102.1,132.2c-4.6-0.9-8.3-4.3-9.5-8.9c-0.3-1.1-0.3-1.2-0.4-14l-0.1-12.9l-1.2-0.1
		c-1.2-0.1-1.2-0.1-1.7-0.6l-0.5-0.5v-5v-5l0.5-0.5l0.5-0.5h14.4h14.4l0.5,0.5l0.5,0.5v5v5l-0.5,0.5c-0.5,0.5-0.5,0.5-1.7,0.6
		l-1.2,0.1l-0.1,12.9c-0.1,12.8-0.1,12.9-0.4,14C114.3,129.5,108.3,133.4,102.1,132.2z M102.9,125v-4.6h-4h-4l0.1,0.8
		c0.5,3.8,2.9,6.9,6.4,8C103.1,129.8,102.9,130.3,102.9,125z M107.2,129.2c3.5-1.1,5.9-4.2,6.4-8l0.1-0.8h-4.1h-4.1v4.6
		C105.6,130.3,105.3,129.8,107.2,129.2z M102.9,113.1v-4.7h-4h-4v4.7v4.7h4h4V113.1z M113.7,113.1v-4.7h-4.1h-4.1v4.7v4.7h4.1h4.1
		V113.1z M102.9,101.1v-4.7h-4h-4v4.7v4.7h4h4V101.1z M113.7,101.1v-4.7h-4.1h-4.1v4.7v4.7h4.1h4.1V101.1z"/>
</g>
</svg>
