<svg xmlns="http://www.w3.org/2000/svg" width="512" height="512" viewBox="0 0 512 512"><g fill="#008cdb"><path d="M309.905 82.378l20.996-30.485c1.247-1.813.935-4.192-.697-5.318-1.624-1.114-3.962-.564-5.197 1.251l-21.82 31.672c-14.38-5.668-30.348-8.818-47.18-8.818-16.829 0-32.801 3.15-47.181 8.818L187.01 47.824c-1.251-1.805-3.584-2.363-5.213-1.249-1.632 1.126-1.936 3.505-.689 5.316l21 30.487c-33.391 15.535-56.811 45.058-59.793 79.513H369.69c-2.979-34.455-26.394-63.978-59.785-79.513zm-101.399 48.058c-6.948 0-12.58-5.629-12.58-12.58s5.627-12.582 12.58-12.582c6.944 0 12.575 5.629 12.575 12.582 0 6.944-5.631 12.58-12.575 12.58zm94.988 0c-6.944 0-12.576-5.629-12.576-12.58 0-6.952 5.632-12.582 12.576-12.582 6.952 0 12.583 5.631 12.583 12.582.001 6.944-5.631 12.58-12.583 12.58zM127.713 305.571c0 14.007-11.353 25.364-25.364 25.364-14.007 0-25.364-11.357-25.364-25.364V202.975c0-14.007 11.357-25.362 25.364-25.362 14.011 0 25.364 11.355 25.364 25.362v102.596zM142.311 178.396v185.299c0 11.002 8.921 19.925 19.929 19.925h23.572v57.016c0 14.011 11.353 25.364 25.364 25.364 14.007 0 25.364-11.353 25.364-25.364V383.62h38.924v57.016c0 14.011 11.353 25.364 25.364 25.364 14.007 0 25.364-11.353 25.364-25.364V383.62h23.572c11.008 0 19.925-8.913 19.925-19.925V178.396H142.311zM384.287 305.571c0 14.007 11.357 25.364 25.364 25.364 14.011 0 25.364-11.357 25.364-25.364V202.975c0-14.007-11.353-25.362-25.364-25.362-14.007 0-25.364 11.355-25.364 25.362v102.596z"/></g></svg>