<?xml version="1.0" encoding="utf-8"?>
<!-- Generator: Adobe Illustrator 26.5.2, SVG Export Plug-In . SVG Version: 6.00 Build 0)  -->
<svg version="1.1"
	 id="svg2" xmlns:svg="http://www.w3.org/2000/svg" xmlns:dc="http://purl.org/dc/elements/1.1/" xmlns:rdf="http://www.w3.org/1999/02/22-rdf-syntax-ns#" xmlns:sodipodi="http://sodipodi.sourceforge.net/DTD/sodipodi-0.dtd" xmlns:cc="http://creativecommons.org/ns#" xmlns:inkscape="http://www.inkscape.org/namespaces/inkscape"
	 xmlns="http://www.w3.org/2000/svg" xmlns:xlink="http://www.w3.org/1999/xlink" x="0px" y="0px" viewBox="0 0 191.4 135.4"
	 style="enable-background:new 0 0 191.4 135.4;" xml:space="preserve">
<style type="text/css">
	.st0{clip-path:url(#SVGID_00000095308186601140937850000016883346627783893175_);}
	.st1{fill:#FFFFFF;}
	.st2{fill:#99989A;}
	.st3{fill:#ED1D24;}
	.st4{fill:#0066B3;}
</style>
<g>
	<defs>
		<polygon id="SVGID_1_" points="1.1,132.6 190.3,132.6 190.3,2.8 1.1,2.8 1.1,132.6 		"/>
	</defs>
	<clipPath id="SVGID_00000076581868403449628010000000911181193211828143_">
		<use xlink:href="#SVGID_1_"  style="overflow:visible;"/>
	</clipPath>
	<g id="g3534" style="clip-path:url(#SVGID_00000076581868403449628010000000911181193211828143_);">
		<g id="g3540" transform="translate(320.2376,185.3657)">
			<path id="path3542" inkscape:connector-curvature="0" class="st1" d="M-289.4-91.1h4.5c1.6,0,2.5-0.9,2.5-2.4
				c0-1.5-1.2-2.2-2.7-2.2h-4.3V-91.1z M-294.8-100h10.5c3.6,0,7.2,1.6,7.2,5.8c0,2.2-1.1,4.3-3.2,5.2v0.1c2.2,0.5,2.8,3,3,4.9
				c0.1,0.9,0.1,3.9,0.9,4.6h-5.3c-0.5-0.7-0.5-2.7-0.6-3.3c-0.1-2.1-0.5-4.2-3-4.2h-4.1v7.5h-5.4C-294.8-79.5-294.8-100-294.8-100z
				"/>
		</g>
		<g id="g3544" transform="translate(343.287,177.9116)">
			<path id="path3546" inkscape:connector-curvature="0" class="st1" d="M-289.4-76.2c3.5,0,4.8-3,4.8-6.1c0-3.1-1.3-6.1-4.8-6.1
				c-3.5,0-4.8,3-4.8,6.1C-294.2-79.3-292.9-76.2-289.4-76.2 M-289.4-93c6.5,0,10.1,4.7,10.1,10.7s-3.7,10.7-10.1,10.7
				c-6.5,0-10.1-4.7-10.1-10.7S-295.9-93-289.4-93"/>
		</g>
		<g id="g3548" transform="translate(359.945,178.0284)">
			<path id="path3550" inkscape:connector-curvature="0" class="st1" d="M-289.4-76.4h4.3c1.7,0,2.9-0.6,2.9-2.3
				c0-1.8-1.3-2.4-2.9-2.4h-4.3V-76.4z M-289.4-84.6h4.1c0.9,0,2.2-0.5,2.2-2c0-1.5-1.1-2-2.2-2h-4.1V-84.6z M-294.8-92.7h9.6
				c3.5-0.1,7.4,0.9,7.4,5.2c0,1.8-1.1,3.3-2.7,4.1c2.2,0.6,3.5,2.5,3.5,4.9c0,4.9-3.6,6.4-8,6.4h-9.9
				C-294.8-72.2-294.8-92.7-294.8-92.7z"/>
		</g>
		<g id="g3552" transform="translate(382.9934,177.9116)">
			<path id="path3554" inkscape:connector-curvature="0" class="st1" d="M-289.4-76.2c3.5,0,4.8-3,4.8-6.1c0-3.1-1.3-6.1-4.8-6.1
				c-3.5,0-4.8,3-4.8,6.1C-294.2-79.3-292.9-76.2-289.4-76.2 M-289.4-93c6.5,0,10.1,4.7,10.1,10.7s-3.7,10.7-10.1,10.7
				c-6.5,0-10.1-4.7-10.1-10.7S-295.9-93-289.4-93"/>
		</g>
		<g id="g3556" transform="translate(410.5893,189.6813)">
			<path id="path3558" inkscape:connector-curvature="0" class="st1" d="M-289.4-99.8h-6.1v15.9h-5.4v-15.9h-6.1v-4.6h17.6V-99.8z"
				/>
		</g>
		<path id="path3560" inkscape:connector-curvature="0" class="st1" d="M122.4,85.5h5.4v20.5h-5.4V85.5z"/>
		<g id="g3562" transform="translate(432.1937,186.9481)">
			<path id="path3564" inkscape:connector-curvature="0" class="st1" d="M-289.4-94.3c-0.3-2.1-1.9-3.2-4.1-3.2
				c-3.5,0-4.8,3-4.8,6.1c0,3.1,1.3,6.1,4.8,6.1c2.5,0,3.9-1.4,4.1-3.8h5.4c-0.3,5.3-4.2,8.4-9.4,8.4c-6.2,0-10.2-4.7-10.2-10.7
				c0-6,4-10.7,10.2-10.7c4.4,0,9.2,2.8,9.4,7.8H-289.4z"/>
		</g>
		<g id="g3566" transform="translate(442.8386,180.6448)">
			<path id="path3568" inkscape:connector-curvature="0" class="st1" d="M-289.4-81.7c0.1,2.4,1.6,3.2,3.9,3.2
				c1.6,0,3.3-0.6,3.3-2.1c0-1.8-2.9-2.2-5.9-3c-2.9-0.8-6-2.2-6-5.9c0-4.5,4.5-6.2,8.4-6.2c4.1,0,8.2,2,8.2,6.6h-5.4
				c0.1-1.9-1.7-2.5-3.3-2.5c-1.2,0-2.6,0.4-2.6,1.8c0,1.6,3,1.9,6,2.7c3,0.8,6,2.2,6,5.9c0,5.2-4.4,6.9-8.9,6.9
				c-4.7,0-8.9-2.1-8.9-7.3H-289.4z"/>
		</g>
		<g id="g3570" transform="translate(304.8317,160.6422)">
			<path id="path3572" inkscape:connector-curvature="0" class="st1" d="M-289.4-41.7c-0.3-2.1-1.9-3.2-4.1-3.2
				c-3.5,0-4.8,3-4.8,6.1c0,3.1,1.3,6.1,4.8,6.1c2.5,0,3.9-1.4,4.1-3.8h5.4c-0.3,5.3-4.2,8.4-9.4,8.4c-6.2,0-10.2-4.7-10.2-10.7
				c0-6,4-10.7,10.2-10.7c4.4,0,9.2,2.8,9.4,7.8H-289.4z"/>
		</g>
		<g id="g3574" transform="translate(320.6561,151.6053)">
			<path id="path3576" inkscape:connector-curvature="0" class="st1" d="M-289.4-23.6c3.5,0,4.8-3,4.8-6.1c0-3.1-1.3-6.1-4.8-6.1
				c-3.5,0-4.8,3.1-4.8,6.1C-294.2-26.6-292.9-23.6-289.4-23.6 M-289.4-40.4c6.5,0,10.1,4.7,10.1,10.7c0,6-3.7,10.7-10.1,10.7
				c-6.5,0-10.1-4.7-10.1-10.7C-299.6-35.7-295.9-40.4-289.4-40.4"/>
		</g>
		<g id="g3578" transform="translate(331.9875,167.9797)">
			<path id="path3580" inkscape:connector-curvature="0" class="st1" d="M-289.4-56.3h7.9l3.5,13.7h0.1l3.5-13.7h7.9v20.5h-5v-15.6
				h-0.1l-4.3,15.6h-4.1l-4.3-15.6h-0.1v15.6h-5V-56.3z"/>
		</g>
		<g id="g3582" transform="translate(361.1057,158.4241)">
			<path id="path3584" inkscape:connector-curvature="0" class="st1" d="M-289.4-37.2h3.6c1.7,0,2.9-0.7,2.9-2.6
				c0-1.9-1.2-2.7-2.9-2.7h-3.6V-37.2z M-294.8-46.8h9.8c3.8,0,7.4,1.8,7.4,6.6c0,5.1-2.9,7.1-7.4,7.1h-4.4v6.9h-5.4V-46.8z"/>
		</g>
		<g id="g3586" transform="translate(374.1121,167.9797)">
			<path id="path3588" inkscape:connector-curvature="0" class="st1" d="M-289.4-56.3h16.4v4.3h-11v3.6h10.1v4.1h-10.1v3.9h11.3v4.6
				h-16.7V-56.3z"/>
		</g>
		<g id="g3590" transform="translate(408.9474,163.3756)">
			<path id="path3592" inkscape:connector-curvature="0" class="st1" d="M-289.4-47.1h-6.1v15.9h-5.4v-15.9h-6.1v-4.6h17.6V-47.1z"
				/>
		</g>
		<path id="path3594" inkscape:connector-curvature="0" class="st1" d="M120.3,111.6h5.4v20.5h-5.4V111.6z"/>
		<g id="g3596" transform="translate(433.5796,163.3756)">
			<path id="path3598" inkscape:connector-curvature="0" class="st1" d="M-289.4-47.1h-6.1v15.9h-5.4v-15.9h-6.1v-4.6h17.6V-47.1z"
				/>
		</g>
		<path id="path3600" inkscape:connector-curvature="0" class="st1" d="M145.2,111.6h5.4v20.5h-5.4V111.6z"/>
		<g id="g3602" transform="translate(451.2711,151.6053)">
			<path id="path3604" inkscape:connector-curvature="0" class="st1" d="M-289.4-23.6c3.5,0,4.8-3,4.8-6.1c0-3.1-1.3-6.1-4.8-6.1
				c-3.5,0-4.8,3.1-4.8,6.1C-294.2-26.6-292.9-23.6-289.4-23.6 M-289.4-40.4c6.5,0,10.1,4.7,10.1,10.7c0,6-3.7,10.7-10.1,10.7
				c-6.5,0-10.1-4.7-10.1-10.7C-299.6-35.7-295.9-40.4-289.4-40.4"/>
		</g>
		<g id="g3606" transform="translate(461.9589,167.9797)">
			<path id="path3608" inkscape:connector-curvature="0" class="st1" d="M-289.4-56.3h5.5l7.1,12.7h0.1v-12.7h5v20.5h-5.5l-7.1-12.8
				h-0.1v12.8h-5V-56.3z"/>
		</g>
		<g id="g3610" transform="translate(383.5043,260.6019)">
			<path id="path3612" inkscape:connector-curvature="0" class="st2" d="M-289.4-241.6c1.5,0,2.9,0.1,4.3,0.4l3.3-3.4
				c-2.3-0.8-4.9-1.2-7.6-1.2c-4.7,0-8.9,1.3-12,3.4l2.9,2.7C-295.9-240.9-292.8-241.6-289.4-241.6"/>
		</g>
		<g id="g3614" transform="translate(383.5043,264.8989)">
			<path id="path3616" inkscape:connector-curvature="0" class="st1" d="M-289.4-250.2c2.7,0,5.3,0.4,7.6,1.2l3.6-3.7
				c-3.3-1.3-7.2-2.1-11.2-2.1c-6.1,0-11.6,1.7-15.8,4.4l3.8,3.6C-298.3-248.9-294.1-250.2-289.4-250.2"/>
		</g>
		<g id="g3618" transform="translate(366.2726,250.2809)">
			<path id="path3620" inkscape:connector-curvature="0" class="st2" d="M-289.4-221c0.3-1.2,0.9-2.4,1.6-3.5l-1.4-1.5
				c-0.3,0.9-0.4,1.8-0.4,2.8C-289.7-222.4-289.6-221.7-289.4-221"/>
		</g>
		<g id="g3622" transform="translate(355.5898,242.1958)">
			<path id="path3624" inkscape:connector-curvature="0" class="st2" d="M-289.4-204.8l-0.6,3.1l6-2.6c-0.4-0.8-0.5-1.8-0.7-2.7
				L-289.4-204.8z"/>
		</g>
		<g id="g3626" transform="translate(351.3401,276.4153)">
			<path id="path3628" inkscape:connector-curvature="0" class="st2" d="M-289.4-273.2l-8.7,47.9l4.1,0.3l8.7-48.6L-289.4-273.2z"/>
		</g>
		<g id="g3630" transform="translate(380.7315,248.8735)">
			<path id="path3632" inkscape:connector-curvature="0" class="st3" d="M-289.4-218.1v-3.9l-6.3-6l-2.9-2.7l-3.8-3.6l-12.4-11.7
				l-8.7,48.6l18.3-8.1c-1.8-1.6-3.1-3.3-4.1-5.4l-6,2.6l0.6-3.1l3.9-20.1l0.3-1.7l3.2,3.2l4.1,4.1l1.8,1.8l7.2,6.2l-7,3.2
				c1.8,1.8,4,3.4,6.9,4.3l8.8-3.9L-289.4-218.1z"/>
		</g>
		<g id="g3634" transform="translate(400.7349,250.2809)">
			<path id="path3636" inkscape:connector-curvature="0" class="st2" d="M-289.4-221c0.2-0.7,0.3-1.4,0.3-2.1c0-2.2-0.8-4.2-2.1-6
				l-2.1,2.2C-291.4-225.3-290-223.2-289.4-221"/>
		</g>
		<g id="g3638" transform="translate(404.6523,229.7951)">
			<path id="path3640" inkscape:connector-curvature="0" class="st2" d="M-289.4-180l-4.9-4.7c-0.8,0.5-1.6,1-2.5,1.5l7.5,7.2
				l23-23.9l0-3.9L-289.4-180z"/>
		</g>
		<g id="g3642" transform="translate(387.8992,245.8771)">
			<path id="path3644" inkscape:connector-curvature="0" class="st2" d="M-289.4-212.1l-4.1-3.9l-3.1-3l0,3.9l4.4,4.2l4.2,4
				c1.1-0.3,2.1-0.6,3-1L-289.4-212.1z"/>
		</g>
		<g id="g3646" transform="translate(403.8844,267.5323)">
			<path id="path3648" inkscape:connector-curvature="0" class="st2" d="M-289.4-255.5l-3.3,3.4l-3.6,3.8l-2.5,2.6l-4.7,4.9l2,1.9
				l5-5.2l2.1-2.2l3.8-4l1.2-1.3l12.6,12.1l2-2L-289.4-255.5z"/>
		</g>
		<g id="g3650" transform="translate(402.6687,262.3545)">
			<path id="path3652" inkscape:connector-curvature="0" class="st1" d="M-289.4-245.1l-3.8,4c1.4,1.8,2.1,3.8,2.1,6
				c0,0.7-0.1,1.4-0.3,2.1c-0.4,1.8-1.4,3.5-2.9,5c-1.5,1.5-3.4,2.7-5.6,3.7c-1,0.4-2,0.7-3,1c-1.8,0.4-3.7,0.7-5.8,0.7
				c-2.5,0-4.9-0.4-7-1c-2.9-0.9-5.4-2.4-7.2-4.2c-0.7-0.7-1.2-1.4-1.7-2.1c-0.6-0.9-1-1.9-1.3-3c-0.2-0.7-0.3-1.4-0.3-2.1
				c0-1,0.2-1.9,0.4-2.8l-4.4-4.4c-1.6,2.4-2.5,5-2.5,7.9c0,0.7,0.1,1.4,0.2,2.1c0.3,1.7,0.9,3.3,1.8,4.9c0.4,0.8,1,1.5,1.6,2.2
				c1.5,1.9,3.5,3.5,5.8,4.8c4,2.3,9.1,3.7,14.6,3.7c3.8,0,7.5-0.7,10.7-1.9c1-0.4,1.9-0.8,2.8-1.2c2.1-1,3.9-2.3,5.4-3.8
				c2.6-2.5,4.3-5.4,4.8-8.7c0.1-0.7,0.2-1.4,0.2-2.1C-284.7-238.5-286.4-242.1-289.4-245.1"/>
		</g>
		<g id="g3654" transform="translate(387.8783,245.8484)">
			<path id="path3656" inkscape:connector-curvature="0" class="st4" d="M-289.4-212.1l4.4,4.2c2.2-0.9,4.1-2.2,5.6-3.7l-6-5.8
				l-2-1.9l4.6-4.8l2.5-2.6l3.6-3.8l3.3-3.4l14.6,14l-2,2l-11.9,12.4c-1.3,1.7-2.9,3.2-4.8,4.6l4.9,4.7l23-23.9l-23.9-23l-9,9.3
				l-3.6,3.7l-3.3,3.4l-7.1,7.4L-289.4-212.1z"/>
		</g>
		<g id="g3658" transform="translate(367.6436,247.2079)">
			<path id="path3660" inkscape:connector-curvature="0" class="st2" d="M-289.4-214.8c0,0,0.1,0.2,0.1,0.2c0.4,0.6,0.8,1.1,1.3,1.6
				l7.2-3.3l-16.4-15.3l-0.4,2.4l12.9,12.8L-289.4-214.8z"/>
		</g>
		<g id="g3662" transform="translate(407.4195,251.7746)">
			<path id="path3664" inkscape:connector-curvature="0" class="st2" d="M-289.4-223.9c0,0.7-0.1,1.4-0.2,2.1
				c-0.5,3.2-2.2,6.2-4.8,8.7c-1.5,1.5-3.4,2.7-5.4,3.8c-0.9,0.5-1.8,0.9-2.8,1.2c-3.2,1.2-6.8,1.9-10.7,1.9
				c-5.5,0-10.5-1.4-14.6-3.7c-2.3-1.3-4.3-2.9-5.8-4.8c-0.6-0.7-1.1-1.4-1.6-2.2c-0.9-1.5-1.5-3.2-1.8-4.9
				c-0.1-0.7-0.2-1.4-0.2-2.1c0-0.2,0-0.5,0-0.7c0,0,0,0,0,0c-0.1,0.7,0,4.3,0,5c0,1.2,0.2,2.3,0.4,3.4c0.2,0.9,0.5,1.7,0.9,2.5
				c1,2,2.4,3.9,4.2,5.5c4.4,3.9,11,6.3,18.3,6.3c5.1,0,9.8-1.2,13.7-3.2c0.9-0.5,1.7-1,2.5-1.5c1.9-1.3,3.6-2.9,4.8-4.6
				c1.8-2.5,2.9-5.3,2.9-8.4c0-0.6,0.1-3.7,0-4.9C-289.4-224.7-289.4-224.1-289.4-223.9"/>
		</g>
		<g id="g3666" transform="translate(343.179,222.6902)">
			<path id="path3668" inkscape:connector-curvature="0" class="st1" d="M-289.4-165.8h16.4l-1.5,6.3h-7.8l-0.8,3.3h8.2l-1.4,5.8
				h-8.1l-1.9,8.3h-8.5L-289.4-165.8z"/>
		</g>
		<g id="g3670" transform="translate(361.7706,222.6902)">
			<path id="path3672" inkscape:connector-curvature="0" class="st1" d="M-289.4-165.8h8.5l-5.5,23.7h-8.5L-289.4-165.8z"/>
		</g>
		<g id="g3674" transform="translate(378.6814,211.367)">
			<path id="path3676" inkscape:connector-curvature="0" class="st1" d="M-289.4-143.1c2.7,0,4.6-1.6,4.6-3.9c0-1.2-0.9-1.8-2.6-1.8
				c-0.5,0-0.8,0-1.3,0.1l-1.3,5.5C-289.8-143.2-289.7-143.1-289.4-143.1 M-295.7-154.3l0.5-0.1c2.7-0.3,6.1-0.5,8-0.5
				c3.1,0,5.5,0.4,7.3,1.1c2.3,1,3.7,3.1,3.7,5.6c0,2.2-0.7,4.2-2.1,5.8c-1.2,1.4-2.3,2.1-4.5,2.7l-0.5,0.2c0.2,0.2,0.3,0.2,0.4,0.4
				c0.7,0.7,2.6,4.6,4.3,8.4h-9.3c-1.2-3.4-1.6-4.3-3.1-8.1l-1.9,8.1h-8.2C-301.1-130.7-295.7-154.3-295.7-154.3z"/>
		</g>
		<g id="g3678" transform="translate(412.0552,222.6902)">
			<path id="path3680" inkscape:connector-curvature="0" class="st1" d="M-289.4-165.8h20.5l-1.4,6.9h-6.1l-4,16.9h-8.5l4-16.9h-6.6
				L-289.4-165.8z"/>
		</g>
		<g id="g3682" transform="translate(424.916,201.1907)">
			<path id="path3684" inkscape:connector-curvature="0" class="st1" d="M-289.4-122.8c0.2,0,0.3-0.1,0.3-0.3c0-0.2-0.1-0.2-0.3-0.2
				c0,0,0,0-0.1,0L-289.4-122.8C-289.5-122.8-289.5-122.8-289.4-122.8 M-290.2-123.8c0.1,0,0.1,0,0.3,0c0.2,0,0.3,0,0.4,0
				c0.7,0,1,0.3,1,0.8c0,0.3-0.1,0.5-0.4,0.6l0,0c0,0,0,0,0,0c0.1,0.1,0.3,0.4,0.5,0.8h-0.8c-0.2-0.3-0.2-0.4-0.4-0.7v0.7h-0.7
				C-290.2-121.7-290.2-123.8-290.2-123.8z M-289.4-120.9c1,0,1.8-0.8,1.8-1.8c0-1-0.8-1.8-1.8-1.8c-1,0-1.8,0.8-1.8,1.8
				C-291.2-121.7-290.4-120.9-289.4-120.9 M-289.4-124.8c1.1,0,2.1,0.9,2.1,2.1c0,1.1-0.9,2.1-2.1,2.1c-1.2,0-2.1-0.9-2.1-2.1
				C-291.4-123.9-290.5-124.8-289.4-124.8"/>
		</g>
		<g id="g3686" transform="translate(390.3344,199.5445)">
			<path id="path3688" inkscape:connector-curvature="0" class="st1" d="M-289.4-119.5c2.4,0.7,5,1.1,7.4,1.1c3.3,0,5.8-0.7,8-2.3
				c2.4-1.7,4-4.3,4-6.7c0-1.6-0.7-3.1-1.9-4.1c-1-0.8-2-1.4-4-2.3l-1.7-0.8c-0.5-0.3-0.8-0.6-0.8-0.9c0-0.9,1.1-1.5,2.6-1.5
				c1.1,0,2.4,0.3,4.9,1.1l1.7-6.4c-1.9-0.5-3.7-0.8-5.5-0.8c-6.9,0-12.2,3.8-12.2,8.7c0,2.6,1.7,4.4,6,6.4c2,0.9,2.4,1.2,2.4,1.8
				c0,1-1,1.6-2.8,1.6c-1.5,0-3.5-0.5-6.1-1.4l0,0L-289.4-119.5z"/>
		</g>
	</g>
</g>
</svg>
