<?xml version="1.0" encoding="UTF-8" standalone="no"?>
<!-- Created with Inkscape (http://www.inkscape.org/) -->

<svg
   width="158.5681mm"
   height="18.520834mm"
   viewBox="0 0 158.5681 18.520834"
   version="1.1"
   id="svg5"
   inkscape:version="1.1.2 (b8e25be833, 2022-02-05)"
   sodipodi:docname="hawkAndText.svg"
   xmlns:inkscape="http://www.inkscape.org/namespaces/inkscape"
   xmlns:sodipodi="http://sodipodi.sourceforge.net/DTD/sodipodi-0.dtd"
   xmlns="http://www.w3.org/2000/svg"
   xmlns:svg="http://www.w3.org/2000/svg">
  <sodipodi:namedview
     id="namedview7"
     pagecolor="#ffffff"
     bordercolor="#666666"
     borderopacity="1.0"
     inkscape:pageshadow="2"
     inkscape:pageopacity="0.0"
     inkscape:pagecheckerboard="0"
     inkscape:document-units="mm"
     showgrid="false"
     inkscape:snap-global="false"
     inkscape:zoom="0.48729658"
     inkscape:cx="29.756006"
     inkscape:cy="205.21384"
     inkscape:window-width="1366"
     inkscape:window-height="697"
     inkscape:window-x="-8"
     inkscape:window-y="-8"
     inkscape:window-maximized="1"
     inkscape:current-layer="layer1"
     fit-margin-top="0"
     fit-margin-left="0"
     fit-margin-right="0"
     fit-margin-bottom="0" />
  <defs
     id="defs2" />
  <g
     inkscape:label="Layer 1"
     inkscape:groupmode="layer"
     id="layer1"
     transform="translate(-67.177593,-85.740974)">
    <g
       id="g944"
       transform="matrix(0.53703507,0,0,0.53703507,91.016248,46.69321)"
       style="fill:#ffffff;fill-opacity:1">
      <path
         id="path16833"
         style="fill:#ffffff;fill-opacity:1;stroke-width:0.142565"
         d="m -39.038302,72.709955 c -0.299462,0 0.0098,2.07412 0.476328,3.19392 0.251223,0.603 0.419126,1.13405 0.372985,1.18015 -0.147826,0.14771 -1.67003,-0.99751 -2.462424,-1.85261 -0.421872,-0.45525 -0.828602,-0.78965 -0.90391,-0.74315 -0.240696,0.14864 -0.332903,1.08123 -0.162955,1.64803 0.09048,0.30176 0.321574,0.67235 0.513655,0.82332 0.787866,0.61926 1.380774,1.18797 1.311158,1.25754 -0.04075,0.0408 -0.678836,-0.25184 -1.417844,-0.64991 -0.739009,-0.39809 -1.386053,-0.68114 -1.438178,-0.62906 -0.304298,0.30406 0.34628,1.75025 1.127033,2.50532 0.685115,0.66258 0.478071,0.67573 -0.767977,0.0488 -0.530891,-0.26714 -1.187056,-0.50764 -1.458234,-0.5344 -0.419348,-0.0415 -0.500013,-8.9e-4 -0.538446,0.26942 -0.06102,0.42897 1.119515,1.60092 2.130386,2.11509 0.847565,0.4311 0.736432,0.60398 -0.231478,0.36045 -0.759998,-0.19124 -1.451985,-0.20302 -1.561021,-0.0267 -0.129348,0.20913 0.618685,0.9958 1.25851,1.3235 0.323509,0.16569 0.524128,0.31738 0.445688,0.33735 -0.07844,0.02 -0.327935,0.0775 -0.554324,0.12772 l -0.411704,0.0912 0.386356,0.40302 c 0.34281,0.35754 0.74784,0.58065 1.720632,0.94802 0.243387,0.0919 0.21617,0.11969 -0.184124,0.19011 -0.258021,0.0454 -0.475072,0.14246 -0.482458,0.21572 -0.02529,0.25065 1.099721,0.93923 1.739018,1.06436 0.569358,0.11136 0.588661,0.12669 0.17549,0.14056 -0.822279,0.0277 -0.424419,0.6997 0.686637,1.15956 l 0.44903,0.18592 -0.317553,0.2391 -0.317552,0.23937 0.506134,0.31257 c 0.491855,0.30375 2.088242,0.71878 2.808388,0.73008 0.293668,0.004 0.245334,0.056 -0.274096,0.29141 -1.052443,0.4771 -0.614987,0.62412 2.098074,0.70533 l 2.380807,0.0712 -0.842627,0.49879 c -0.463458,0.27433 -0.872944,0.58909 -0.909761,0.69946 -0.101295,0.3037 1.817191,0.10305 3.195302,-0.33427 0.612917,-0.1945 1.139834,-0.3279 1.171045,-0.29672 0.03121,0.0313 -0.174608,0.2596 -0.457387,0.50768 -0.282785,0.2481 -0.513934,0.50841 -0.513934,0.57868 0,0.24332 0.951174,0.12581 2.954352,-0.36574 2.179582,-0.53477 3.987383,-0.93016 6.285031,-1.37416 1.086929,-0.21003 1.840456,-0.46615 2.910897,-0.98921 0.794421,-0.38818 1.530391,-0.70587 1.635395,-0.70587 0.128445,0 0.191089,0.19143 0.191089,0.5848 0,0.4659 -0.35121,1.27299 -1.72871,3.97438 -0.950718,1.86445 -1.702638,3.46752 -1.671051,3.56217 0.03396,0.10187 0.533374,-0.20875 1.223134,-0.76069 0.641205,-0.51308 1.338699,-1.04607 1.549878,-1.18434 l 0.383849,-0.25132 -0.185797,0.35097 c -0.102171,0.19303 -0.791188,1.19954 -1.531214,2.23702 -0.74003,1.03748 -1.322528,1.95539 -1.294446,2.03964 0.02811,0.0842 0.845209,-0.39848 1.815621,-1.07271 2.254779,-1.56659 2.294456,-1.5878 2.294456,-1.22469 0,0.75274 0.792697,2.32312 2.019522,4.000555 0.143318,0.19595 0.33043,0.74105 0.415882,1.21133 0.13021,0.71652 1.017555,2.71084 2.108382,4.73843 0.09487,0.17635 0.194086,0.32064 0.220335,0.32064 0.180126,0 2.1230193,-4.31025 2.2404163,-4.97028 0.07836,-0.44064 0.256497,-0.96166 0.395826,-1.15761 1.317649,-1.853065 2.012559,-3.275115 2.012559,-4.119115 0,-0.30379 0.05475,-0.2848 0.891377,0.30728 1.512205,1.07019 3.060757,2.10173 3.154911,2.10173 0.222027,0 0.0059,-0.37103 -1.213944,-2.08614 -1.826782,-2.56844 -1.816714,-2.55255 -1.523694,-2.44019 0.131057,0.0502 0.811926,0.54406 1.51311,1.09748 0.701179,0.55342 1.348269,1.0062 1.437899,1.0062 0.08963,0 -0.639724,-1.59987 -1.620631,-3.5555 -1.399252,-2.78968 -1.783308,-3.67937 -1.783308,-4.12998 0,-0.48744 0.05156,-0.58735 0.342065,-0.66022 0.520139,-0.13049 1.927497,0.28527 3.323995,0.98198 0.93595499,0.46694 1.65231699,0.70153 2.823152,0.92464 2.597758,0.49501 4.192028,0.8424 5.934884,1.29316 3.0307967,0.78384 3.7551977,0.73474 2.612289,-0.17647 -0.27995,-0.2232 -0.476673,-0.43803 -0.437053,-0.47762 0.03961,-0.0395 0.477445,0.0617 0.9727067,0.22517 1.028721,0.3395 2.845825,0.62516 3.174682,0.49906 0.376597,-0.14434 0.253314,-0.29555 -0.658765,-0.80746 l -0.880518,-0.49433 2.271055,-0.0679 c 2.893406,-0.0865 3.353746,-0.24651 2.164086,-0.75151 l -0.606123,-0.25718 1.039013,-0.10626 c 0.66997,-0.0686 1.32572,-0.24653 1.84514,-0.50045 0.7814,-0.382 0.79689,-0.40085 0.5142,-0.6193 -0.28417,-0.21963 -0.27307,-0.23627 0.43679,-0.66217 0.89352,-0.53614 1.03464,-0.91375 0.3468,-0.92771 -0.44226,-0.009 -0.42899,-0.0216 0.19749,-0.19009 0.36928,-0.0993 0.93664,-0.36427 1.26074,-0.58871 0.54137,-0.37487 0.56841,-0.42322 0.3351,-0.59368 -0.13969,-0.10203 -0.35377,-0.18798 -0.47606,-0.19123 -0.1223,-0.003 0.11225,-0.15003 0.52118,-0.32649 0.79727,-0.34398 1.50605,-0.91472 1.38303,-1.11362 -0.0415,-0.067 -0.23221,-0.12188 -0.42368,-0.12188 -0.51321,0 -0.42393,-0.24046 0.20891,-0.56307 0.5458,-0.27823 1.15461,-0.90301 1.15461,-1.18516 0,-0.14906 -1.65068,-0.0632 -2.24625,0.11692 -0.55818,0.16879 -0.34682,-0.14276 0.28134,-0.41473 1.16349,-0.50368 2.56367,-1.97957 2.29304,-2.41708 -0.1337,-0.21621 -0.99459,0.003 -2.10308,0.53579 -0.58048,0.27897 -1.10574,0.50713 -1.16742,0.50713 -0.0617,0 0.1516,-0.27254 0.4741,-0.60566 0.70591,-0.72914 1.18469,-1.59557 1.18469,-2.14487 0,-0.50221 -0.13618,-0.46878 -1.72535,0.42418 -0.63075,0.35443 -1.19044,0.60076 -1.24376,0.5475 -0.0533,-0.0533 0.0116,-0.17574 0.14318,-0.27222 0.51126,-0.37355 1.53574,-1.37572 1.67802,-1.64137 0.2734,-0.51046 0.13677,-1.86528 -0.18803,-1.86514 -0.0889,5e-5 -0.43634,0.31875 -0.77214,0.70837 -0.58476,0.67851 -2.4042,2.09841 -2.52901,1.97371 -0.0329,-0.0329 0.15398,-0.63394 0.41533,-1.33548 0.52417,-1.40708 0.75923,-2.83382 0.49387,-2.99768 -0.15027,-0.0928 -1.86655,1.57842 -3.759653,3.66097 -0.97689,1.07464 -2.145144,1.83006 -3.996423,2.58437 -1.7267357,0.70354 -2.1396757,0.81256 -4.8460097,1.27757 -1.628144,0.27973 -2.366728,0.31881 -6.06135601,0.3226 -4.48319799,0.004 -5.07472299,-0.0615 -6.50397399,-0.72647 -0.670329,-0.31189 -0.765214,-0.42028 -1.198621,-1.37138 -0.258829,-0.568 -0.600077,-1.31341 -0.758227,-1.65638 -0.38782,-0.8411 -1.681569,-2.21129 -2.4298333,-2.57324 -0.732653,-0.35439 -2.320475,-0.4048 -2.915076,-0.0924 -0.211813,0.11122 -0.673764,0.49909 -1.026752,0.86173 -0.439148,0.45115 -0.833372,0.7076 -1.248205,0.81219 -0.858193,0.21634 -1.461575,0.93103 -1.461575,1.73098 0,0.88896 0.579484,1.6211 0.754326,0.95304 0.04821,-0.18424 0.192874,-0.28356 0.408918,-0.2814 0.652735,0.007 1.451127,0.26561 1.746258,0.56642 l 0.299448,0.30506 -0.762683,0.70614 -0.762404,0.70615 -4.443228,-0.0146 c -3.047766,-0.009 -4.868453,-0.0774 -5.797844,-0.21657 -5.201427,-0.77916 -8.077792,-2.01631 -10.083961,-4.33706 -1.127098,-1.30384 -3.210375,-3.41966 -3.367169,-3.41966 z"
         inkscape:export-filename="C:\Users\13479\Desktop\hawkAndText.png"
         inkscape:export-xdpi="95.805199"
         inkscape:export-ydpi="95.805199" />
      <text
         xml:space="preserve"
         style="font-style:normal;font-variant:normal;font-weight:normal;font-stretch:normal;font-size:39.9999px;line-height:1.25;font-family:Cinzel;-inkscape-font-specification:Cinzel;font-variant-ligatures:normal;font-variant-position:normal;font-variant-caps:normal;font-variant-numeric:normal;font-variant-alternates:normal;font-variant-east-asian:normal;font-feature-settings:normal;font-variation-settings:normal;text-indent:0;text-align:start;text-decoration:none;text-decoration-line:none;text-decoration-style:solid;text-decoration-color:#000000;letter-spacing:normal;word-spacing:normal;text-transform:none;writing-mode:lr-tb;direction:ltr;text-orientation:mixed;dominant-baseline:auto;baseline-shift:baseline;text-anchor:start;white-space:normal;shape-padding:0;shape-margin:0;inline-size:0;opacity:1;vector-effect:none;fill:#ffffff;fill-opacity:1;stroke-width:0.999999;stroke-linecap:butt;stroke-linejoin:miter;stroke-miterlimit:4;stroke-dasharray:none;stroke-dashoffset:0;stroke-opacity:1;stop-color:#000000;stop-opacity:1"
         x="593.06799"
         y="640.26715"
         id="text1972"
         transform="matrix(0.85363027,0,0,0.85363027,-470.94265,-445.2276)"
         inkscape:export-filename="C:\Users\13479\Desktop\hawkAndText.png"
         inkscape:export-xdpi="95.805199"
         inkscape:export-ydpi="95.805199"><tspan
           sodipodi:role="line"
           id="tspan1970"
           x="593.06799"
           y="640.26715"
           style="font-style:normal;font-variant:normal;font-weight:normal;font-stretch:normal;font-family:'Secular One';-inkscape-font-specification:'Secular One';fill:#ffffff;fill-opacity:1">STEEL HAWKS</tspan></text>
    </g>
  </g>
</svg>
